<svg xmlns="http://www.w3.org/2000/svg" viewBox="0 0 2500 1800" width="2500" height="1800"><path fill="#FFF" d="M0 0h2500v1800H0z"/><g transform="translate(305.0 292.0) rotate(0.0 1013.5 730.5) scale(1.1098572516605425 1.1099285041947093)"><svg width="1826.361" height="1316.301" viewBox="0 0 1826.361 1316.301"><linearGradient id="a" gradientUnits="userSpaceOnUse" x1="465.103" x2="776.156" y1="206.807" y2="921.447"><stop offset="0" stop-color="#3A86FF"/><stop offset=".449" stop-color="#3658c1"/><stop offset="1" stop-color="#111"/></linearGradient><linearGradient id="b" gradientUnits="userSpaceOnUse" x1="415.876" x2="1832.664" y1="1277.469" y2="998.728"><stop offset="0" stop-color="#111"/><stop offset=".353" stop-color="#3658c1"/><stop offset=".585" stop-color="#3A86FF"/><stop offset=".863" stop-color="#3658c1"/><stop offset="1" stop-color="#111"/></linearGradient><path d="M900.962 5.251c31.5-13.367 71.54 5.837 89.454 42.907l302.21 625.378c17.9 37.049 6.9 77.931-24.6 91.3l-854.256 362.45c-31.486 13.36-71.55-5.857-89.454-42.906L22.106 459c-17.914-37.07-6.886-77.939 24.6-91.3z" fill="#3A86FF"/><path d="M392.583 1132.516c-26.865 0-54.966-18.313-69.167-47.7L21.206 459.437c-9.787-20.253-11.387-42.542-4.388-61.153 5.478-14.567 15.954-25.755 29.5-31.5L900.571 4.331l.391.92-.391-.92c31.929-13.547 72.636 5.918 90.745 43.392l302.21 625.377c9.787 20.253 11.386 42.543 4.387 61.155-5.477 14.566-15.952 25.752-29.5 31.5l-854.252 362.451a54.994 54.994 0 0 1-21.578 4.31zm529.6-1130.5a53.078 53.078 0 0 0-20.83 4.158L47.1 368.624c-13.035 5.53-23.124 16.314-28.407 30.364-6.807 18.1-5.234 39.816 4.316 59.579l302.211 625.378c17.651 36.528 57.2 55.557 88.162 42.421l854.256-362.452c13.036-5.531 23.124-16.314 28.406-30.362 6.808-18.1 5.235-39.818-4.315-59.581L989.516 48.593c-13.862-28.685-41.229-46.579-67.334-46.579z" fill="#111"/><path d="M906.924 33.074 65.08 390.26c-22.02 9.343-29.74 37.934-17.208 63.867l297.358 615.337c12.522 25.912 40.545 39.337 62.565 29.994l841.845-357.187c22.038-9.35 29.741-37.933 17.219-63.845L969.5 63.089c-12.532-25.933-40.538-39.366-62.577-30.015" fill="#fff"/><g fill="#111"><path d="M392.974 1103.416c-18.9 0-38.664-12.864-48.644-33.517L46.972 454.562c-6.882-14.241-8-29.919-3.079-43.016a38.293 38.293 0 0 1 20.8-22.206L906.534 32.153c22.48-9.537 51.131 4.145 63.867 30.5l297.358 615.337c6.878 14.233 8 29.9 3.078 42.99a38.306 38.306 0 0 1-20.806 22.211l-841.845 357.187a38.77 38.77 0 0 1-15.212 3.038zM906.924 33.074l.391.92L65.47 391.181a36.313 36.313 0 0 0-19.7 21.069c-4.733 12.587-3.637 27.692 3.007 41.442l297.359 615.337c12.273 25.4 39.76 38.634 61.274 29.508l841.844-357.186a36.324 36.324 0 0 0 19.716-21.074c4.73-12.578 3.634-27.674-3.006-41.416L968.6 63.524c-12.279-25.411-39.772-38.658-61.285-29.53z"/><path d="M494.98 230.245c-5.317 2.256-7.176 9.157-4.143 15.434 3.024 6.256 9.785 9.5 15.1 7.244s7.194-9.165 4.17-15.421c-3.033-6.277-9.813-9.513-15.129-7.257"/><path d="M502.376 254.633c-4.851 0-9.9-3.265-12.439-8.519a14.1 14.1 0 0 1-.777-11 9.986 9.986 0 0 1 5.429-5.786c5.8-2.462 13.168 1.012 16.421 7.743a14.059 14.059 0 0 1 .764 10.971 9.878 9.878 0 0 1-9.4 6.595zm-3.793-24.108a8.2 8.2 0 0 0-3.213.64 7.9 7.9 0 0 0-4.338 4.649 12.1 12.1 0 0 0 .706 9.43c2.79 5.774 8.985 8.806 13.81 6.758a8.037 8.037 0 0 0 4.354-4.668 12.054 12.054 0 0 0-.693-9.4c-2.203-4.557-6.526-7.409-10.626-7.409z"/></g><path d="M1268.026 764.834 413.77 1127.286c-31.486 13.36-71.55-5.857-89.454-42.906L22.106 459c-16.491-34.124-8.455-71.47 17.494-87.609l-12.519 7.788C1.131 395.317-6.9 432.664 9.586 466.79L311.8 1092.168c17.9 37.049 57.968 56.265 89.454 42.906l854.256-362.452a51.748 51.748 0 0 0 7.112-3.688l12.52-7.788a51.7 51.7 0 0 1-7.116 3.688z" fill="url(#a)"/><path d="M380.064 1140.3c-26.867 0-54.965-18.311-69.168-47.7L8.686 467.225c-16.476-34.1-8.8-72.312 17.862-88.9l12.52-7.787a1 1 0 1 1 1.057 1.7c-25.79 16.042-33.149 53.154-17.119 86.327l302.211 625.378c17.651 36.528 57.2 55.557 88.163 42.42l854.255-362.451.242.57-.242-.57a51.14 51.14 0 0 0 6.975-3.617 1 1 0 0 1 1.056 1.7l-.055.034-12.465 7.754a53 53 0 0 1-7.249 3.759l-854.256 362.453a55.024 55.024 0 0 1-21.577 4.305zM28 379.783l-.393.245c-25.791 16.041-33.151 53.154-17.12 86.327L312.7 1091.733c17.652 36.527 57.2 55.555 88.163 42.421L1255.116 771.7a51.392 51.392 0 0 0 4.8-2.34l-845.755 358.846c-31.927 13.548-72.636-5.917-90.745-43.391L21.206 459.437C7.3 430.661 10.6 398.947 28 379.783z" fill="#111"/><path d="M1262.454 766.161c31.486-13.359 78.082-18.343 104.038-11.127l438.139 121.8c25.955 7.215 21.47 23.9-10.016 37.265l-854.256 362.453c-31.486 13.359-78.083 18.342-104.038 11.127l-438.139-121.8c-25.956-7.216-21.47-23.906 10.017-37.265z" fill="#3A86FF"/><path d="M865.376 1291.97c-11.067 0-21.2-1.07-29.323-3.327l-438.138-121.8c-14.028-3.9-17.307-9.849-17.587-14.155-.537-8.246 9.479-17.355 27.48-24.993l854.256-362.452.39.92-.39-.92c31.621-13.417 78.587-18.429 104.7-11.171l438.139 121.8c14.027 3.9 17.306 9.849 17.586 14.154.537 8.246-9.479 17.356-27.48 24.994l-854.26 362.452c-21.786 9.244-50.859 14.498-75.373 14.498zm472.009-539.244c-24.214 0-52.972 5.2-74.54 14.355l-854.256 362.453c-16.918 7.178-26.737 15.785-26.266 23.023.338 5.171 6.065 9.56 16.127 12.358l438.139 121.8c25.736 7.154 72.112 2.181 103.379-11.085l854.256-362.452c16.918-7.178 26.737-15.785 26.265-23.023-.337-5.172-6.064-9.56-16.126-12.358L1366.224 756c-7.982-2.222-17.952-3.274-28.839-3.274z" fill="#111"/><path d="M1244.523 804.552 513.8 1114.588c-9.7 4.115-11.081 9.256-3.085 11.479L740.709 1190c8 2.222 22.333.683 32.032-3.432l730.718-310.036c9.7-4.115 11.077-9.244 3.082-11.467l-229.989-63.936c-8-2.223-22.33-.695-32.029 3.42" fill="#fff"/><path d="M749.625 1192.009a35.3 35.3 0 0 1-9.184-1.043l-229.989-63.936c-4.712-1.31-5.822-3.432-5.923-4.982-.188-2.893 2.967-5.869 8.885-8.38l730.718-310.037c9.854-4.18 24.517-5.734 32.688-3.463l229.989 63.932c4.713 1.311 5.823 3.431 5.924 4.979.188 2.889-2.967 5.862-8.884 8.373l-730.718 310.04a64.383 64.383 0 0 1-23.506 4.517zm517.935-390.9a62.057 62.057 0 0 0-22.647 4.366L514.2 1115.509c-5.8 2.462-7.767 4.925-7.67 6.409.082 1.259 1.709 2.419 4.463 3.185l229.989 63.937c7.791 2.166 21.865.645 31.373-3.389l730.718-310.036c5.8-2.462 7.765-4.921 7.669-6.4-.082-1.256-1.709-2.416-4.464-3.182L1276.284 802.1a33.535 33.535 0 0 0-8.724-.994z" fill="#111"/><path d="m1287.21 981.649-260.187 110.4c-11.207 4.755-12.8 10.694-3.549 13.267l133.051 36.987c9.238 2.569 25.82.8 37.027-3.96l260.187-110.395c11.208-4.755 12.805-10.694 3.566-13.263l-133.051-36.987c-9.254-2.573-25.836-.8-37.044 3.956" fill="#fff"/><path d="M1166.848 1144.464a40.687 40.687 0 0 1-10.591-1.2l-133.051-36.988c-5.368-1.492-6.63-3.881-6.743-5.624-.213-3.271 3.4-6.654 10.169-9.527l260.187-110.4c11.369-4.823 28.282-6.618 37.7-4l133.052 36.988c5.357 1.489 6.616 3.876 6.73 5.616.213 3.272-3.4 6.657-10.173 9.531l-260.187 110.394a74.222 74.222 0 0 1-27.093 5.21zm120.362-162.815.391.92-260.187 110.395c-6.778 2.876-9.07 5.789-8.955 7.556.1 1.549 1.977 2.908 5.282 3.827l133.051 36.988c9.04 2.512 25.355.755 36.369-3.918l260.187-110.394c6.781-2.877 9.074-5.792 8.959-7.56-.1-1.546-1.972-2.9-5.27-3.819l-133.051-36.988c-9.05-2.516-25.371-.76-36.385 3.913z" fill="#111"/><path d="m1825.255 913.621-3.855-24.315c1.21 7.631-7.964 16.807-26.785 24.794l-854.256 362.451c-31.486 13.36-78.083 18.344-104.038 11.128l-438.138-121.8c-10.441-2.9-15.956-7.337-16.77-12.472l3.855 24.314c.815 5.135 6.33 9.57 16.77 12.472l438.138 121.8c25.956 7.216 72.552 2.232 104.038-11.127l854.256-362.452c18.822-7.986 27.995-17.163 26.785-24.793z" fill="url(#b)"/><path d="M869.232 1316.285c-11.067 0-21.2-1.071-29.323-3.329l-438.139-121.8c-10.528-2.928-16.576-7.519-17.489-13.279l-3.847-24.258-.009-.056a1 1 0 1 1 1.976-.314c.77 4.859 6.47 9 16.05 11.666l438.137 121.8c25.736 7.155 72.111 2.183 103.38-11.084l854.256-362.452c17.571-7.455 27.361-16.322 26.188-23.716a1 1 0 0 1 1.976-.314l3.855 24.315c1.345 8.487-8.635 17.916-27.383 25.87l-854.255 362.452c-21.787 9.244-50.86 14.498-75.373 14.499zm-485.874-157 2.9 18.279c.77 4.859 6.47 9 16.05 11.665l438.138 121.8c25.736 7.155 72.112 2.181 103.38-11.085l854.255-362.451c17.571-7.456 27.361-16.322 26.188-23.716l-2.894-18.254c-3.059 6.646-12.216 13.491-26.368 19.5L940.75 1277.472c-31.624 13.418-78.591 18.428-104.7 11.17l-438.138-121.8c-6.75-1.878-11.66-4.442-14.554-7.557z" fill="#111"/></svg></g><g transform="translate(1244.0 51.0) rotate(-20.979970660678113 182.5 182.5) scale(1.089311614747787 1.0881360378730967)"><svg width="335.074" height="335.436" viewBox="0 0 335.074 335.436"><path d="m330.447 171.334-37.403 8.036-16.419 17.921 37.403-8.036c1.047-.173 1.906-.644 2.524-1.319l16.419-17.921c-.619.675-1.477 1.145-2.524 1.319z" fill="#3658c1"/><path d="M276.624 198.291a1.002 1.002 0 0 1-.738-1.676l16.419-17.921a.994.994 0 0 1 .527-.302l37.403-8.036.046-.009c.79-.131 1.463-.478 1.947-1.004l.004-.004a1 1 0 0 1 1.475 1.351l-16.419 17.921c-.789.862-1.861 1.425-3.098 1.63l-37.357 8.027a.984.984 0 0 1-.209.023zm16.941-18.011-14.085 15.374 34.338-7.377c.838-.14 1.513-.489 1.997-1.017l13.415-14.642z" fill="#111"/><path d="M106.016 9.123c-.39-1.707.002-3.235.951-4.27l-16.42 17.922c-.948 1.035-1.34 2.562-.951 4.27l7.373 40.408 16.419-17.92z" fill="#3658c1"/><path d="M96.97 68.453a1 1 0 0 1-.984-.82l-7.373-40.408c-.441-1.927-.008-3.811 1.197-5.125l16.419-17.921a1 1 0 1 1 1.475 1.351c-.755.823-1.014 2.052-.713 3.371l.009.043 7.373 40.409c.056.308-.035.624-.246.855l-16.419 17.92c-.193.21-.462.325-.738.325zm7.939-59.874L91.285 23.45c-.754.823-1.014 2.052-.713 3.372l7.021 38.471 14.724-16.07-7.28-39.899a6.83 6.83 0 0 1-.128-.745z" fill="#111"/><path d="m243.966 221.253-16.419 17.921c11.982-13.078 17.924-31.745 15.117-53.296-5.882-45.165-47.965-85.894-93.993-90.969-24.065-2.653-44.445 4.965-57.573 19.295l16.419-17.921c13.129-14.33 33.508-21.948 57.573-19.295 46.028 5.075 88.111 45.803 93.993 90.969 2.807 21.551-3.135 40.218-15.117 53.296" fill="#3658c1"/><path d="M227.547 240.174a1 1 0 0 1-.737-1.676c12.252-13.373 17.53-32.014 14.863-52.491-5.817-44.664-47.586-85.085-93.111-90.104-22.705-2.503-43.383 4.413-56.726 18.977a1 1 0 0 1-1.475-1.351l16.419-17.921c13.778-15.038 35.07-22.188 58.42-19.613 46.385 5.114 88.946 46.311 94.875 91.834 2.745 21.072-2.714 40.285-15.372 54.101l-16.419 17.921a.998.998 0 0 1-.737.323zM139.513 93.399c3.044 0 6.137.17 9.268.516 46.385 5.114 88.946 46.311 94.875 91.833 1.989 15.273-.332 29.57-6.579 41.543l6.151-6.714.737.676-.737-.676c12.251-13.373 17.53-32.014 14.863-52.491-5.817-44.664-47.586-85.085-93.111-90.104-22.708-2.503-43.384 4.413-56.726 18.977l-6.219 6.788c10.588-6.757 23.505-10.348 37.478-10.348z" fill="#111"/><path d="m309.469 275.485-16.419 17.921c-.967 1.056-2.445 1.52-4.031 1.346-.983-.108-2.007-.462-2.976-1.074l16.419-17.921c.97.611 1.994.965 2.976 1.074 1.587.174 3.064-.29 4.031-1.346" fill="#3658c1"/><path d="M289.666 295.787c-.249 0-.5-.014-.755-.042-1.159-.127-2.335-.55-3.4-1.221a1 1 0 0 1-.204-1.521l16.419-17.921a1.001 1.001 0 0 1 1.271-.17c.81.511 1.692.831 2.553.926 1.293.142 2.453-.232 3.182-1.026l.001-.001a1 1 0 0 1 1.475 1.351l-.004.005-16.415 17.916c-1.012 1.102-2.486 1.704-4.123 1.704zm-2-2.4a5.72 5.72 0 0 0 1.463.371c1.294.142 2.455-.231 3.184-1.027l13.62-14.865a6.93 6.93 0 0 1-.604-.04 7.89 7.89 0 0 1-2.666-.807z" fill="#111"/><path d="m302.462 275.757-16.418 17.921-38.899-22.374 16.419-17.921z" fill="#3658c1"/><path d="M286.043 294.678a.995.995 0 0 1-.498-.133l-38.898-22.374a1.002 1.002 0 0 1-.239-1.543l16.419-17.921a1 1 0 0 1 1.236-.191l38.898 22.374a1.002 1.002 0 0 1 .239 1.543l-16.419 17.921a1 1 0 0 1-.738.324zm-37.317-23.619 37.122 21.352 15.034-16.41-37.122-21.352z" fill="#111"/><path d="M25.629 59.954a3.987 3.987 0 0 0-.459.608L8.747 87.048l16.419-17.921 16.423-26.486a3.97 3.97 0 0 1 .459-.608z" fill="#3658c1"/><path d="M8.747 88.048a1 1 0 0 1-.849-1.527L24.32 60.035c.165-.268.357-.523.571-.756l16.414-17.915.005-.006.001-.001a1 1 0 1 1 1.474 1.352l-.004.005c-.126.138-.24.29-.341.452L26.016 69.654a.965.965 0 0 1-.113.148L9.484 87.724a.998.998 0 0 1-.737.324zm26.567-37.184-8.948 9.766v.001a3.018 3.018 0 0 0-.344.455L15.228 78.494l9.137-9.973zm-9.685 9.09h.01z" fill="#111"/><path d="m263.564 253.383-16.419 17.921c-7.421 6.236-15.996 11.155-25.473 14.6l16.419-17.921c9.477-3.445 18.052-8.364 25.473-14.6" fill="#3658c1"/><path d="M221.673 286.904a1 1 0 0 1-.738-1.676l16.418-17.921a1 1 0 0 1 .396-.264c9.36-3.403 17.829-8.257 25.172-14.427a1 1 0 0 1 1.38 1.441l-16.419 17.921a1 1 0 0 1-.094.09c-7.521 6.32-16.193 11.291-25.774 14.774a.946.946 0 0 1-.341.062zm16.99-18.065-13.344 14.565c7.768-3.26 14.861-7.562 21.132-12.824l9.418-10.279c-5.318 3.432-11.075 6.29-17.206 8.538z" fill="#111"/><path d="M61.259 107.186 44.84 125.107 10.844 94.805l16.419-17.921z" fill="#3658c1"/><path d="M44.84 126.107a.999.999 0 0 1-.665-.253L10.179 95.551a.997.997 0 0 1-.072-1.422l16.419-17.921a1 1 0 0 1 1.403-.071l33.996 30.302a.997.997 0 0 1 .072 1.422l-16.419 17.921a.997.997 0 0 1-.738.325zM12.266 94.733l32.503 28.972 15.068-16.446-32.503-28.972z" fill="#111"/><path d="M27.263 76.884 10.844 94.805c-2.576-2.13-3.497-5.512-2.097-7.757l16.419-17.921c-1.4 2.245-.479 5.627 2.097 7.757" fill="#3658c1"/><path d="M10.844 95.805a.995.995 0 0 1-.637-.229c-2.993-2.474-3.985-6.368-2.308-9.056a.986.986 0 0 1 .111-.146l16.419-17.921a1 1 0 0 1 1.585 1.204c-1.13 1.812-.302 4.648 1.886 6.457a1.003 1.003 0 0 1 .1 1.447L11.581 95.48a.995.995 0 0 1-.737.325zm-1.293-8.154c-.941 1.606-.395 3.972 1.24 5.731l15.063-16.441c-1.298-1.344-2.09-2.976-2.296-4.579z" fill="#111"/><path d="m58.44 138.167-16.419 17.921c-.651-10.776.288-21.212 2.819-30.98l16.419-17.921c-2.531 9.767-3.47 20.204-2.819 30.98" fill="#3658c1"/><path d="M42.02 157.087a1 1 0 0 1-.998-.939c-.659-10.92.299-21.448 2.85-31.291a1 1 0 0 1 .231-.425l16.419-17.921a1 1 0 0 1 1.706.926c-2.498 9.64-3.436 19.959-2.789 30.669.016.271-.078.536-.261.736l-16.419 17.921c-.194.21-.463.324-.739.324zm3.726-31.488c-2.268 8.854-3.223 18.277-2.845 28.048l14.516-15.844c-.532-9.392.135-18.491 1.985-27.109z" fill="#111"/><path d="m182.671 271.982-16.419 17.921c-11.162-1.948-22.357-5.438-33.239-10.37l16.419-17.921c10.882 4.932 22.077 8.422 33.239 10.37" fill="#3658c1"/><path d="M166.253 290.903a1 1 0 0 1-.172-.015c-11.262-1.966-22.526-5.48-33.48-10.444a.998.998 0 0 1-.325-1.586l16.419-17.921a.999.999 0 0 1 1.15-.235c10.8 4.895 21.902 8.359 32.998 10.296a1.001 1.001 0 0 1 .566 1.661L166.99 290.58c-.191.207-.46.323-.737.323zm-31.566-11.716c10.227 4.52 20.714 7.76 31.199 9.636l14.824-16.181c-10.439-1.974-20.865-5.273-31.03-9.821z" fill="#111"/><path d="m241.563 314.051-34.14 2.449-16.419 17.921 34.14-2.449c1.236-.091 2.256-.591 2.966-1.366l16.419-17.921c-.711.776-1.73 1.275-2.966 1.366z" fill="#3658c1"/><path d="M191.004 335.422a1 1 0 0 1-.737-1.676l16.418-17.921a1 1 0 0 1 .666-.322l34.14-2.449c.942-.07 1.736-.429 2.296-1.04l.004-.004a1 1 0 0 1 1.475 1.351l-.004.005-16.415 17.917c-.912.996-2.167 1.579-3.629 1.687l-34.142 2.449a.885.885 0 0 1-.072.003zm16.887-17.953-14.453 15.775 31.633-2.27c.942-.07 1.738-.43 2.3-1.043l13.591-14.835zm33.672-3.418h.01z" fill="#111"/><path d="m200.232 311.668-16.419 17.921-17.56-39.686 16.418-17.921z" fill="#3658c1"/><path d="M183.813 330.589a1.001 1.001 0 0 1-.915-.595l-17.561-39.686a1 1 0 0 1 .177-1.08l16.419-17.921a1 1 0 0 1 1.652.271l17.56 39.686a1 1 0 0 1-.177 1.08l-16.418 17.921a.999.999 0 0 1-.737.324zm-16.381-40.493 16.677 37.689 14.943-16.311-16.677-37.689z" fill="#111"/><path d="m207.423 316.501-16.419 17.921a5.662 5.662 0 0 1-1.049-.021c-2.569-.283-5.106-2.225-6.142-4.812l16.419-17.921c1.036 2.587 3.573 4.528 6.142 4.812.35.038.701.046 1.049.021" fill="#3658c1"/><path d="M190.599 335.436c-.249 0-.501-.014-.753-.042-2.948-.325-5.81-2.559-6.961-5.434a.998.998 0 0 1 .191-1.047l16.418-17.921a1.002 1.002 0 0 1 1.666.304c.889 2.219 3.078 3.942 5.324 4.19.294.032.584.039.866.018a1 1 0 0 1 .81 1.673l-16.419 17.921c-.172.188-.41.303-.664.322a7.53 7.53 0 0 1-.478.016zm-5.601-5.66c1.008 1.945 3.014 3.404 5.067 3.631.164.018.326.028.486.029l14.777-16.129c-2.123-.523-4.108-1.99-5.326-3.908z" fill="#111"/><path d="m97.716 224.25-16.419 17.921c-8.382-9.003-15.64-18.846-21.571-29.24l16.419-17.921c5.93 10.394 13.189 20.237 21.571 29.24" fill="#3658c1"/><path d="M81.297 243.171a.997.997 0 0 1-.732-.319c-8.43-9.054-15.733-18.955-21.707-29.426a1.001 1.001 0 0 1 .131-1.171l16.419-17.921a1.002 1.002 0 0 1 1.606.18c5.897 10.337 13.109 20.112 21.434 29.054a1 1 0 0 1 .005 1.357l-16.419 17.921a.997.997 0 0 1-.733.324l-.004.001zm-20.339-30.103c5.654 9.799 12.489 19.085 20.336 27.627l15.063-16.441c-7.848-8.526-14.703-17.789-20.396-27.562z" fill="#111"/><path d="m76.145 195.01-16.419 17.921-40.665-2.412 16.418-17.921z" fill="#3658c1"/><path d="M59.726 213.931c-.02 0-.039 0-.059-.002l-40.666-2.412a1 1 0 0 1-.678-1.674l16.419-17.921a.987.987 0 0 1 .797-.323l40.666 2.412a1 1 0 0 1 .678 1.674l-16.419 17.921a.999.999 0 0 1-.738.325zm-38.509-4.286 38.094 2.26 14.678-16.021-38.093-2.26z" fill="#111"/><path d="M17.689 152.271c-.573-1.873-.208-3.618.842-4.764L2.113 165.428c-1.05 1.147-1.415 2.891-.842 4.764l10.911 34.995 16.419-17.92z" fill="#3658c1"/><path d="M12.181 206.187a1.004 1.004 0 0 1-.955-.702L.316 170.49c-.658-2.152-.262-4.295 1.059-5.738l16.419-17.921a1 1 0 1 1 1.475 1.351l-.003.003c-.835.914-1.068 2.33-.622 3.789l10.91 34.994a1 1 0 0 1-.217.973l-16.419 17.92a.995.995 0 0 1-.737.326zm4.279-54.938L2.85 166.104c-.838.915-1.071 2.334-.623 3.796l10.392 33.33 14.856-16.214-10.739-34.447-.001-.005a6.94 6.94 0 0 1-.275-1.315z" fill="#111"/><path d="M35.479 192.598 19.06 210.519c-3.329-.34-6.009-2.549-6.88-5.331l16.42-17.921c.87 2.782 3.551 4.992 6.879 5.331" fill="#3658c1"/><path d="M19.06 211.519a1.16 1.16 0 0 1-.102-.005c-3.612-.369-6.719-2.791-7.732-6.028a1 1 0 0 1 .217-.974l16.419-17.921a1.002 1.002 0 0 1 1.692.376c.777 2.484 3.199 4.347 6.027 4.635a1 1 0 0 1 .636 1.67l-16.419 17.921a.996.996 0 0 1-.738.326zm-5.732-6.103c.877 2.079 2.931 3.636 5.348 4.043l14.876-16.237c-2.25-.693-4.156-2.196-5.252-4.147z" fill="#111"/><path d="m125.661 288.753-16.419 17.921c-.972 1.061-2.444 1.513-4.013 1.34-1.138-.125-2.328-.58-3.415-1.368l16.419-17.921c1.087.788 2.277 1.243 3.415 1.368 1.569.173 3.04-.279 4.013-1.34" fill="#3658c1"/><path d="M105.872 309.05c-.248 0-.499-.014-.752-.042-1.351-.149-2.697-.686-3.893-1.553a1 1 0 0 1-.15-1.485l16.419-17.921a1 1 0 0 1 1.324-.134c.915.664 1.93 1.073 2.937 1.184 1.284.141 2.437-.229 3.162-1.018l.004-.004a1 1 0 1 1 1.475 1.351c-.373.407 0 0-.001.001l-16.418 17.92c-1.007 1.1-2.476 1.701-4.107 1.701zm-2.501-2.623a5.855 5.855 0 0 0 1.967.594c1.286.142 2.441-.231 3.166-1.022l13.625-14.871a7.01 7.01 0 0 1-.591-.04 7.99 7.99 0 0 1-3.14-1.062z" fill="#111"/><path d="m83.68 257.992-16.419 17.921 14.036-33.742 16.419-17.921z" fill="#3658c1"/><path d="M67.26 276.913a1 1 0 0 1-.922-1.384l14.036-33.742c.045-.107.108-.206.186-.292l16.419-17.921a.999.999 0 0 1 1.66 1.06l-14.036 33.742a1.029 1.029 0 0 1-.186.292l-16.419 17.921a.999.999 0 0 1-.738.324zm14.893-34.196-11.781 28.319 12.451-13.59 11.781-28.319zm1.527 15.275h.01z" fill="#111"/><path d="m118.233 288.725-16.419 17.921-31.834-23.01 16.419-17.921z" fill="#3658c1"/><path d="M101.814 307.646a.997.997 0 0 1-.585-.189l-31.834-23.01a1 1 0 0 1-.151-1.486l16.419-17.921a1 1 0 0 1 1.323-.135l31.834 23.01a1 1 0 0 1 .151 1.486l-16.419 17.921a1.004 1.004 0 0 1-.738.324zm-30.338-24.163 30.202 21.831 15.059-16.436-30.202-21.831z" fill="#111"/><path d="M86.399 265.715 69.98 283.636c-2.7-1.959-3.889-5.309-2.719-7.723l16.419-17.921c-1.17 2.414.019 5.764 2.719 7.723" fill="#3658c1"/><path d="M69.979 284.636a.994.994 0 0 1-.587-.191c-3.112-2.257-4.415-6.113-3.032-8.968a.997.997 0 0 1 .163-.24l16.419-17.921a1 1 0 0 1 1.637 1.111c-.951 1.963.106 4.808 2.406 6.477a1 1 0 0 1 .15 1.485L70.716 284.31a.993.993 0 0 1-.737.326zm-1.875-8.163c-.758 1.747.005 4.134 1.779 5.789l15.067-16.445c-1.47-1.361-2.398-3.106-2.65-4.838z" fill="#111"/><path d="M333.794 165.264c.931 2.973-.524 5.602-3.347 6.069l-37.403 8.036c.672 10.778-.288 21.211-2.798 30.982l33.993 30.281c2.579 2.15 3.476 5.51 2.078 7.775l-16.402 26.489c-.915 1.467-2.622 2.137-4.476 1.933-.983-.108-2.007-.462-2.976-1.074l-38.898-22.374c-7.421 6.236-15.996 11.155-25.473 14.6l7.395 40.41c.681 2.987-1.025 5.444-3.923 5.658l-34.14 2.449a5.662 5.662 0 0 1-1.049-.021c-2.569-.283-5.106-2.225-6.142-4.812l-17.56-39.686c-11.162-1.948-22.357-5.438-33.239-10.37l-23.559 26.889c-.962 1.241-2.537 1.778-4.225 1.592-1.138-.125-2.328-.58-3.415-1.368l-31.834-23.01c-2.7-1.959-3.889-5.309-2.719-7.723l14.036-33.742c-8.382-9.003-15.64-18.846-21.571-29.24l-40.666-2.412c-3.329-.34-6.009-2.549-6.88-5.331L17.69 152.269c-.909-2.971.543-5.62 3.347-6.07l37.403-8.035c-.651-10.776.288-21.212 2.819-30.98l-33.996-30.3c-2.576-2.13-3.497-5.512-2.097-7.757l16.423-26.486c.914-1.482 2.614-2.149 4.47-1.944.981.108 2.006.46 2.98 1.064l38.88 22.393c7.418-6.256 15.993-11.175 25.471-14.621l-7.374-40.409c-.682-2.987 1.028-5.423 3.926-5.637l34.116-2.472a5.751 5.751 0 0 1 1.049.02c2.573.284 5.125 2.23 6.145 4.833l17.558 39.665c11.162 1.948 22.36 5.459 33.239 10.37l23.559-26.889c.958-1.236 2.525-1.767 4.206-1.582 1.145.126 2.343.585 3.437 1.378l31.853 22.991c2.7 1.958 3.891 5.33 2.719 7.723L253.79 93.287c8.358 8.98 15.619 18.844 21.549 29.238l40.663 2.392c3.35.342 6.03 2.551 6.901 5.333zm-147.401 75.284c46.028 5.075 78.573-27.426 72.691-72.591s-47.965-85.894-93.993-90.969S86.518 104.414 92.4 149.58c5.882 45.164 47.965 85.893 93.993 90.968" fill="#3A86FF"/><path d="M207.019 317.515a6.86 6.86 0 0 1-.754-.042c-2.947-.325-5.81-2.559-6.961-5.434l-17.331-39.165c-10.855-1.941-21.706-5.319-32.276-10.046l-23.071 26.332c-1.114 1.44-2.98 2.159-5.087 1.927-1.351-.149-2.697-.686-3.892-1.553l-31.833-23.009c-3.114-2.259-4.417-6.114-3.033-8.969l13.766-33.097c-8.119-8.79-15.18-18.367-21-28.483l-40.126-2.38c-3.654-.372-6.762-2.795-7.775-6.031l-10.911-34.996c-.556-1.817-.378-3.591.5-5 .791-1.269 2.085-2.105 3.644-2.355l36.515-7.846c-.548-10.395.375-20.427 2.747-29.841L26.598 77.631c-2.965-2.45-3.957-6.344-2.28-9.032L40.74 42.115c1.088-1.764 3.12-2.667 5.429-2.411 1.152.127 2.327.544 3.397 1.208L87.814 62.94c7.17-5.942 15.386-10.666 24.442-14.053l-7.223-39.582c-.397-1.734-.094-3.425.863-4.719.907-1.228 2.318-1.972 3.973-2.094L143.986.02c.403-.03.818-.022 1.231.024 2.97.327 5.835 2.573 6.966 5.462l17.326 39.138c10.786 1.929 21.638 5.308 32.275 10.047l23.073-26.333c1.107-1.432 2.969-2.149 5.067-1.917 1.358.15 2.711.69 3.915 1.563l31.851 22.99c3.125 2.267 4.427 6.124 3.032 8.973L254.96 93.081c8.09 8.762 15.144 18.338 20.978 28.48l40.123 2.36c3.668.373 6.784 2.796 7.797 6.033l10.893 35.015c.562 1.798.396 3.56-.467 4.963-.788 1.28-2.092 2.129-3.672 2.39l-36.519 7.847c.562 10.313-.355 20.345-2.728 29.842l33.54 29.878c2.943 2.453 3.927 6.351 2.265 9.047l-16.403 26.49c-1.097 1.759-3.13 2.655-5.436 2.401-1.16-.128-2.335-.55-3.4-1.222l-38.26-22.006c-7.187 5.935-15.402 10.651-24.443 14.034l7.244 39.583c.398 1.741.092 3.44-.87 4.741-.908 1.229-2.316 1.972-3.964 2.094l-34.142 2.449a7.55 7.55 0 0 1-.477.015zm-57.586-56.903c.139 0 .28.029.413.089 10.8 4.895 21.902 8.359 32.998 10.296a1 1 0 0 1 .743.581l17.56 39.686c.903 2.252 3.092 3.975 5.337 4.222.294.032.584.039.866.018l34.141-2.449c1.056-.078 1.945-.535 2.501-1.287.61-.825.794-1.944.519-3.15l-7.404-40.453c-.087-.48.184-.953.642-1.12 9.36-3.403 17.829-8.257 25.172-14.427a1 1 0 0 1 1.142-.101l38.898 22.374c.845.531 1.727.852 2.587.947 1.521.168 2.84-.381 3.519-1.469l16.4-26.486c1.124-1.822.303-4.669-1.869-6.48L289.58 211.1a1.001 1.001 0 0 1-.304-.995c2.5-9.731 3.431-20.05 2.769-30.671a1 1 0 0 1 .788-1.04l37.403-8.036c1.062-.177 1.855-.684 2.342-1.474.555-.903.648-2.081.261-3.319l-.001-.001-10.892-35.014c-.776-2.482-3.207-4.346-6.047-4.635l-40.62-2.388a.999.999 0 0 1-.81-.503c-5.914-10.365-13.118-20.14-21.413-29.052a.999.999 0 0 1-.191-1.065l14.034-33.763c.983-2.012-.075-4.855-2.383-6.53l-31.851-22.99c-.924-.671-1.947-1.083-2.96-1.195-1.392-.152-2.597.284-3.306 1.2l-23.598 26.935a.999.999 0 0 1-1.164.252c-10.873-4.908-21.975-8.372-32.999-10.296a.998.998 0 0 1-.742-.58L150.337 6.273c-.888-2.265-3.077-3.994-5.34-4.243a4.745 4.745 0 0 0-.866-.017l-34.117 2.472c-1.062.079-1.954.536-2.51 1.288-.605.818-.787 1.929-.513 3.129l7.382 40.451a.999.999 0 0 1-.642 1.119c-9.376 3.409-17.844 8.27-25.167 14.446-.322.271-.78.312-1.144.102L48.54 42.627c-.846-.523-1.733-.842-2.591-.936-1.548-.171-2.825.367-3.509 1.476L26.016 69.655c-1.132 1.814-.303 4.65 1.884 6.459l34.024 30.326a1 1 0 0 1 .303.997c-2.498 9.64-3.436 19.959-2.789 30.669a1 1 0 0 1-.788 1.038l-37.403 8.035c-1.045.169-1.827.666-2.314 1.448-.568.91-.669 2.101-.286 3.352l10.909 34.99c.777 2.483 3.199 4.346 6.027 4.634l40.624 2.409c.337.02.642.209.809.503 5.897 10.337 13.109 20.112 21.434 29.054a.999.999 0 0 1 .191 1.065l-14.036 33.742c-.975 2.015.083 4.86 2.383 6.529l31.833 23.009c.916.665 1.932 1.074 2.939 1.185 1.4.154 2.61-.288 3.325-1.211l23.597-26.936a.995.995 0 0 1 .751-.34zm46.385-18.537a87.11 87.11 0 0 1-9.534-.533c-46.385-5.114-88.947-46.31-94.875-91.833-2.852-21.9 3.09-41.623 16.731-55.535 13.963-14.24 34.227-20.696 57.061-18.179 46.385 5.114 88.946 46.311 94.875 91.834 2.852 21.899-3.09 41.622-16.731 55.535-11.987 12.223-28.616 18.711-47.527 18.711zM155.674 77.462c-18.375 0-34.505 6.279-46.107 18.112-13.202 13.465-18.947 32.599-16.176 53.877 5.817 44.664 47.587 85.084 93.111 90.104 22.214 2.449 41.89-3.799 55.414-17.592 13.203-13.465 18.947-32.599 16.176-53.876-5.817-44.664-47.586-85.085-93.111-90.104a84.71 84.71 0 0 0-9.307-.521z" fill="#111"/></svg></g><g transform="translate(1593.0 350.0) rotate(0.0 107.5 117.5) scale(0.9987132856738064 0.9915695491101191)"><svg width="215.277" height="236.998" viewBox="0 0 215.277 236.998"><path d="M135.252 17.667c-.16-1.145-.714-2.076-1.517-2.672L115.873 1.728c.803.597 1.357 1.527 1.517 2.673l2.845 21.058 17.862 13.266z" fill="#3A86FF"/><path d="M138.097 39.725a.998.998 0 0 1-.596-.197l-17.862-13.266a1.002 1.002 0 0 1-.395-.669l-2.845-21.058c-.117-.84-.516-1.554-1.122-2.004a1 1 0 1 1 1.195-1.604l17.859 13.265c1.04.772 1.718 1.957 1.911 3.336l.001.005 2.845 21.058a1 1 0 0 1-.991 1.134zm-16.928-14.817 15.619 11.6-2.527-18.704c-.119-.844-.517-1.556-1.123-2.005L118.466 4.9z" fill="#111"/><path d="m39.468 182.246-19.672 11.547c-.95.549-1.949.776-2.87.702a3.775 3.775 0 0 1-1.967-.723l17.862 13.267c.566.42 1.242.664 1.967.723.922.074 1.921-.153 2.87-.703l19.673-11.547z" fill="#3A86FF"/><path d="M35.131 208.775c-.142 0-.283-.005-.424-.017a4.808 4.808 0 0 1-2.483-.917l-17.858-13.264-.003-.002a1 1 0 0 1 1.192-1.606c.407.302.909.485 1.45.529.749.06 1.541-.138 2.29-.571l19.666-11.543a.997.997 0 0 1 1.102.06l17.862 13.266a1.001 1.001 0 0 1-.09 1.665l-19.672 11.547c-.972.562-2.011.853-3.032.853zm-16.415-13.458 14.701 10.919c.406.302.908.485 1.452.529.747.056 1.539-.138 2.288-.572l18.364-10.779-16.118-11.971-19.101 11.211a6.48 6.48 0 0 1-1.586.663z" fill="#111"/><path d="m123.737 78.15 17.862 13.267c-4.345-3.227-9.618-5.233-15.457-5.702-4.067-.326-8.411.092-12.904 1.363-17.519 4.964-31.851 22.254-33.81 40.81-1.434 13.471 3.527 24.604 12.102 30.973l-17.862-13.267c-8.576-6.369-13.536-17.502-12.102-30.973 1.959-18.555 16.292-35.845 33.81-40.81 4.493-1.271 8.838-1.69 12.904-1.363 5.839.469 11.112 2.475 15.457 5.702" fill="#3A86FF"/><path d="M91.529 159.861a.995.995 0 0 1-.595-.197l-.017-.012-17.845-13.254c-9.361-6.953-13.917-18.573-12.5-31.882 2.011-19.042 16.533-36.565 34.532-41.666 4.499-1.273 8.96-1.743 13.257-1.398 5.894.474 11.417 2.512 15.973 5.896l17.849 13.257.013.01a1 1 0 0 1-1.192 1.606l-.006-.004c-4.254-3.157-9.418-5.061-14.935-5.504-4.059-.323-8.283.122-12.552 1.329-17.244 4.886-31.159 21.689-33.088 39.952-1.34 12.587 2.926 23.545 11.704 30.065a1 1 0 0 1-.598 1.802zm14.079-86.519c-3.253 0-6.593.479-9.96 1.432-17.244 4.886-31.159 21.689-33.088 39.952-1.34 12.587 2.926 23.545 11.704 30.065l9.16 6.804c-4.167-6.543-5.952-14.79-4.991-23.813 2.011-19.042 16.534-36.565 34.532-41.666 4.499-1.272 8.957-1.746 13.257-1.398 2.111.169 4.175.54 6.164 1.101l-9.245-6.866c-4.255-3.16-9.421-5.064-14.941-5.508a32.286 32.286 0 0 0-2.592-.103z" fill="#111"/><path d="m77.175 198.271 17.862 13.267c-12.563-1.088-23.916-5.461-33.295-12.427L43.88 185.844c9.379 6.966 20.733 11.339 33.295 12.427" fill="#3A86FF"/><path d="M95.038 212.537a.844.844 0 0 1-.087-.004c-12.451-1.078-24.14-5.442-33.805-12.62l-17.862-13.267a1 1 0 0 1 1.192-1.606l.02.015c9.363 6.948 20.692 11.173 32.765 12.219.185.016.361.083.51.193l17.862 13.267a1 1 0 0 1-.595 1.803zm-37.859-18.061 5.159 3.832c8.413 6.248 18.414 10.297 29.117 11.815l-14.649-10.881c-6.846-.621-13.459-2.236-19.627-4.766z" fill="#111"/><path d="M201.266 44.276a3.69 3.69 0 0 0-.954-1.052L182.45 29.957c.372.276.695.628.954 1.053l12.411 20.611 17.862 13.267z" fill="#3A86FF"/><path d="M213.678 65.889a.998.998 0 0 1-.596-.197L195.22 52.425a.99.99 0 0 1-.26-.287l-12.412-20.612a2.696 2.696 0 0 0-.694-.766 1 1 0 0 1 1.193-1.605l17.862 13.267a4.689 4.689 0 0 1 1.213 1.338l12.412 20.612a.998.998 0 0 1-.185 1.256.99.99 0 0 1-.671.261zm-17.107-14.952 13.638 10.129-9.799-16.272a2.704 2.704 0 0 0-.694-.767l-13.218-9.818z" fill="#111"/><path d="m194.592 58.121 17.861 13.267L195.848 88l-17.861-13.266z" fill="#3A86FF"/><path d="M195.848 89c-.208 0-.417-.065-.596-.197l-17.861-13.267a.998.998 0 0 1-.111-1.509l16.605-16.612a.999.999 0 0 1 1.303-.096l17.862 13.267a.998.998 0 0 1 .111 1.509l-16.605 16.612a1 1 0 0 1-.708.293zm-16.335-14.379 16.239 12.062L210.928 71.5l-16.239-12.062z" fill="#111"/><path d="m195.816 51.622 17.862 13.267c1.131 1.892.624 4.666-1.225 6.499l-17.862-13.267c1.849-1.833 2.357-4.607 1.225-6.499" fill="#3A86FF"/><path d="M212.453 72.388c-.208 0-.417-.065-.596-.197l-17.862-13.267a1 1 0 0 1-.108-1.512c1.512-1.5 1.972-3.768 1.07-5.276a1 1 0 0 1 1.455-1.316l17.862 13.267a.995.995 0 0 1 .262.29c1.382 2.312.802 5.56-1.379 7.723-.193.19-.448.288-.704.288zm-16.404-14.43 16.255 12.073c1.014-1.394 1.275-3.174.606-4.468l-15.49-11.505c-.032 1.341-.504 2.72-1.371 3.9z" fill="#111"/><path d="M177.987 74.734 195.848 88c1.852 6.927 2.81 14.39 2.702 22.33-.103 7.918-1.244 15.775-3.279 23.403l-17.862-13.267c2.035-7.628 3.177-15.485 3.279-23.403.108-7.94-.85-15.403-2.701-22.329" fill="#3A86FF"/><path d="M195.27 134.733a.998.998 0 0 1-.596-.197l-17.861-13.267a1 1 0 0 1-.37-1.061c2.054-7.698 3.146-15.49 3.245-23.159.104-7.626-.793-15.047-2.667-22.058a1 1 0 0 1 1.562-1.061l17.861 13.267a.997.997 0 0 1 .37.544c1.921 7.188 2.842 14.792 2.735 22.602-.102 7.833-1.216 15.79-3.313 23.647a1.002 1.002 0 0 1-.966.743zm-16.722-14.666 16.126 11.978c1.815-7.232 2.782-14.534 2.875-21.729.103-7.505-.765-14.811-2.579-21.722l-15.343-11.396c1.46 6.375 2.153 13.048 2.06 19.878-.098 7.615-1.154 15.347-3.139 22.991z" fill="#111"/><path d="m110.043 218.072-25.397 4.579a4.407 4.407 0 0 1-1.175.067 3.72 3.72 0 0 1-1.939-.716l17.862 13.267c.547.407 1.21.657 1.939.716.376.03.77.01 1.175-.068l25.397-4.578z" fill="#3A86FF"/><path d="M101.668 236.997c-.139 0-.277-.005-.415-.016a4.743 4.743 0 0 1-2.457-.911l-17.861-13.266h-.001a1 1 0 0 1 1.193-1.605l.005.003a2.73 2.73 0 0 0 1.418.518c.292.024.598.006.911-.053l25.405-4.58a.993.993 0 0 1 .773.181l17.861 13.267a1 1 0 0 1-.419 1.787l-25.396 4.578a5.365 5.365 0 0 1-1.017.097zM85.293 223.55l14.696 10.916c.402.299.894.479 1.423.522.296.023.601.006.908-.053l23.133-4.17-15.66-11.632z" fill="#111"/><path d="m118.147 190.868 17.861 13.267-3.395 22.178-17.862-13.267z" fill="#3A86FF"/><path d="M132.613 227.313a1 1 0 0 1-.596-.197l-17.862-13.267a1 1 0 0 1-.392-.954l3.395-22.178a.998.998 0 0 1 1.585-.651l17.862 13.267a1 1 0 0 1 .392.954l-3.395 22.178a.998.998 0 0 1-.989.848zm-16.782-14.711 16.045 11.917 3.053-19.941-16.045-11.917z" fill="#111"/><path d="m114.751 213.046 17.862 13.267c-.372 2.47-2.376 4.605-4.709 5.026l-17.862-13.267c2.333-.42 4.338-2.556 4.709-5.026" fill="#3A86FF"/><path d="M127.904 232.338a1 1 0 0 1-.596-.197l-17.862-13.267a1 1 0 0 1 .419-1.787c1.915-.344 3.59-2.146 3.897-4.19a.998.998 0 0 1 1.585-.653l17.862 13.267a1 1 0 0 1 .393.952c-.437 2.898-2.758 5.363-5.521 5.861a1.173 1.173 0 0 1-.177.014zm-15.78-13.966 16.004 11.887c1.566-.455 2.91-1.866 3.373-3.526l-16.176-12.015c-.618 1.554-1.778 2.87-3.201 3.654z" fill="#111"/><path d="m156.442 161.116 17.862 13.267c-10.426 12.762-23.59 23.189-38.295 29.752l-17.862-13.267c14.705-6.564 27.869-16.99 38.295-29.752" fill="#3A86FF"/><path d="M136.008 205.135a1 1 0 0 1-.596-.197l-17.862-13.267a1 1 0 0 1 .188-1.716c14.263-6.367 27.379-16.558 37.929-29.472a1 1 0 0 1 1.371-.17L174.9 173.58a1.002 1.002 0 0 1 .178 1.436c-10.747 13.155-24.116 23.54-38.662 30.033a1.02 1.02 0 0 1-.408.086zm-15.907-14.061 16.032 11.908c13.758-6.246 26.428-16.051 36.729-28.424l-16.254-12.072c-10.255 12.341-22.831 22.187-36.507 28.588z" fill="#111"/><path d="m193.822 131.232 17.862 13.267c1.679 1.247 2.065 3.742.9 5.984l-17.862-13.267c1.165-2.243.779-4.737-.9-5.984" fill="#3A86FF"/><path d="M212.584 151.483a1 1 0 0 1-.596-.197l-17.862-13.266a1 1 0 0 1-.292-1.264c.927-1.785.671-3.771-.608-4.721a1 1 0 0 1 1.192-1.606l.004.003 17.857 13.264c2.072 1.539 2.573 4.587 1.192 7.248a1 1 0 0 1-.887.539zM195.96 136.89l16.163 12.004c.35-1.438-.021-2.84-1.035-3.593l-14.705-10.922c.028.82-.11 1.675-.423 2.511z" fill="#111"/><path d="m176.478 165.672 17.861 13.267-20.035-4.557-17.862-13.266z" fill="#3A86FF"/><path d="M194.34 179.939a.988.988 0 0 1-.222-.025l-20.036-4.557a1.001 1.001 0 0 1-.375-.172l-17.862-13.267a1 1 0 0 1 .818-1.778l20.036 4.557c.136.031.263.089.375.172l17.862 13.267a1 1 0 0 1-.596 1.803zm-19.609-6.485 15.201 3.457L176.05 166.6l-15.201-3.457z" fill="#111"/><path d="m194.722 137.216 17.862 13.267-12.991 25.212-17.861-13.267z" fill="#3A86FF"/><path d="M199.593 176.695a1 1 0 0 1-.596-.197l-17.861-13.267a1 1 0 0 1-.293-1.261l12.99-25.211a1 1 0 0 1 1.485-.345l17.862 13.266a1 1 0 0 1 .293 1.261l-12.991 25.212a1 1 0 0 1-.889.542zm-16.583-14.563 16.234 12.058 12.062-23.41-16.234-12.057z" fill="#111"/><path d="m181.732 162.428 17.862 13.267c-1.078 2.112-3.247 3.405-5.254 3.244l-17.862-13.267c2.007.161 4.176-1.132 5.254-3.244" fill="#3A86FF"/><path d="M194.671 179.952c-.138 0-.275-.005-.412-.017a.995.995 0 0 1-.516-.194l-17.862-13.267a1 1 0 0 1 .676-1.799c1.643.125 3.405-.979 4.284-2.702a1 1 0 0 1 1.487-.348l17.861 13.267a.998.998 0 0 1 .294 1.257c-1.166 2.287-3.51 3.803-5.812 3.803zm-15.723-13.69 15.74 11.691c1.322-.001 2.685-.775 3.576-1.999l-16.258-12.076a7.1 7.1 0 0 1-3.058 2.384z" fill="#111"/><path d="M193.661 131.119c1.815 1.204 2.263 3.785 1.062 6.098l-12.99 25.212c-1.078 2.112-3.247 3.405-5.254 3.244l-20.036-4.556c-10.426 12.762-23.59 23.189-38.295 29.752l-3.395 22.178c-.372 2.47-2.376 4.605-4.709 5.026l-25.397 4.579a4.366 4.366 0 0 1-1.175.067c-1.795-.144-3.187-1.45-3.451-3.389l-2.845-21.058c-14.604-1.265-27.574-6.969-37.707-16.025l-19.672 11.547c-.949.549-1.949.776-2.87.702-1.2-.097-2.269-.704-2.92-1.775L1.594 172.107c-1.131-1.892-.604-4.665 1.225-6.499l16.605-16.612c-1.852-6.927-2.81-14.39-2.702-22.33.103-7.918 1.238-15.753 3.274-23.381L3.75 92.611c-1.814-1.204-2.263-3.785-1.062-6.098l12.99-25.212c1.078-2.112 3.247-3.405 5.254-3.244l20.036 4.556c10.426-12.762 23.59-23.188 38.295-29.752l3.395-22.178c.372-2.47 2.397-4.604 4.729-5.024l25.376-4.58a4.428 4.428 0 0 1 1.172-.066c1.806.145 3.185 1.464 3.454 3.388l2.845 21.058c14.619 1.288 27.574 6.969 37.727 16.027l19.652-11.548c.949-.549 1.949-.776 2.87-.702 1.201.097 2.269.704 2.921 1.775l12.411 20.612c1.131 1.892.624 4.666-1.225 6.499l-16.605 16.612c1.852 6.927 2.81 14.39 2.702 22.33-.103 7.918-1.244 15.775-3.279 23.403zm-91.627 18.799c17.519-4.965 31.851-22.254 33.81-40.81 2.157-20.28-10.2-35.266-27.564-36.661-4.067-.326-8.411.092-12.904 1.363-17.519 4.964-31.851 22.254-33.81 40.81-2.16 20.288 10.186 35.274 27.541 36.669 4.074.328 8.424-.093 12.927-1.371" fill="#fff"/><path d="M83.805 223.731c-.139 0-.277-.005-.414-.017-2.287-.183-4.04-1.892-4.362-4.251l-2.738-20.27c-13.979-1.369-26.72-6.79-36.941-15.718l-19.047 11.179c-1.108.641-2.302.93-3.457.836-1.553-.125-2.9-.946-3.695-2.252L.737 172.624c-1.374-2.299-.796-5.545 1.373-7.722l16.2-16.207c-1.821-7.021-2.692-14.434-2.588-22.043.099-7.6 1.149-15.309 3.124-22.926L3.2 93.447c-2.259-1.5-2.846-4.608-1.4-7.395l12.99-25.208c1.235-2.421 3.792-3.979 6.223-3.783a.973.973 0 0 1 .142.021l19.433 4.419c10.556-12.778 23.594-22.903 37.77-29.329l3.313-21.641c.435-2.892 2.765-5.356 5.54-5.857l25.376-4.58a5.36 5.36 0 0 1 1.43-.079c2.281.183 4.035 1.889 4.364 4.245l2.739 20.275c13.997 1.391 26.745 6.812 36.96 15.719l19.027-11.182c1.109-.641 2.3-.93 3.457-.836 1.553.124 2.9.945 3.695 2.252l12.414 20.615c1.384 2.315.804 5.563-1.377 7.726L179.1 75.035c1.821 7.023 2.692 14.436 2.588 22.042-.099 7.601-1.151 15.317-3.128 22.948l15.649 10.257.004.003c2.256 1.497 2.843 4.605 1.396 7.393l-12.989 25.208c-1.235 2.421-3.793 3.979-6.224 3.783a.973.973 0 0 1-.142-.021l-19.434-4.419c-10.555 12.777-23.593 22.903-37.77 29.329l-3.313 21.641c-.436 2.896-2.757 5.361-5.52 5.858l-25.396 4.578a5.444 5.444 0 0 1-1.016.096zm-44.337-42.485a1 1 0 0 1 .667.254c10.18 9.098 23.018 14.552 37.127 15.774a1 1 0 0 1 .905.862l2.845 21.058c.197 1.448 1.17 2.417 2.54 2.526.292.021.599.005.909-.053l25.405-4.581c1.915-.344 3.59-2.146 3.897-4.19l3.396-22.181a1 1 0 0 1 .581-.762c14.263-6.367 27.379-16.558 37.929-29.472a1 1 0 0 1 .996-.342l19.961 4.54c1.631.094 3.35-1.007 4.217-2.707l12.992-25.215c.968-1.865.664-3.884-.723-4.805l-16.249-10.65a1.001 1.001 0 0 1-.418-1.094c2.054-7.698 3.146-15.49 3.245-23.159.104-7.626-.793-15.047-2.667-22.058a1 1 0 0 1 .259-.965l16.605-16.612c1.515-1.502 1.975-3.771 1.073-5.279l-12.41-20.609c-.462-.76-1.224-1.221-2.144-1.294-.745-.058-1.54.137-2.29.571L158.47 42.348a.998.998 0 0 1-1.172-.116c-10.174-9.076-23.02-14.531-37.149-15.776a1 1 0 0 1-.903-.862l-2.845-21.058c-.202-1.445-1.177-2.415-2.543-2.524a3.516 3.516 0 0 0-.908.052L87.565 6.643c-1.927.348-3.611 2.148-3.918 4.189l-3.395 22.181c-.052.336-.27.623-.581.762-14.262 6.365-27.378 16.556-37.928 29.471-.24.293-.626.425-.996.342L20.786 59.05c-1.626-.098-3.35 1.007-4.217 2.707L3.577 86.971c-.968 1.865-.663 3.886.726 4.807l16.242 10.671a1 1 0 0 1 .417 1.094c-2.051 7.685-3.141 15.469-3.24 23.136-.104 7.628.794 15.049 2.668 22.059a.998.998 0 0 1-.259.965L3.526 166.315c-1.507 1.512-1.969 3.782-1.074 5.279l12.41 20.609c.462.759 1.224 1.22 2.144 1.294.748.059 1.54-.138 2.289-.571l19.667-11.543a1 1 0 0 1 .506-.137zm52.31-28.85c-.924 0-1.841-.037-2.752-.11-8.413-.676-15.92-4.515-21.139-10.809-5.822-7.021-8.42-16.597-7.316-26.963 2.011-19.042 16.533-36.565 34.532-41.666 4.499-1.273 8.96-1.743 13.257-1.398 8.421.676 15.936 4.518 21.16 10.817 5.821 7.02 8.42 16.589 7.319 26.946-2.011 19.042-16.533 36.565-34.532 41.666-3.555 1.01-7.085 1.517-10.529 1.517zm13.83-79.054c-3.253 0-6.593.479-9.96 1.432-17.244 4.886-31.159 21.689-33.088 39.952-1.046 9.826 1.393 18.873 6.867 25.475 4.871 5.875 11.889 9.459 19.759 10.092 4.066.327 8.296-.123 12.575-1.337 17.244-4.887 31.16-21.689 33.088-39.953 1.044-9.817-1.396-18.858-6.869-25.458-4.876-5.88-11.901-9.467-19.78-10.101a32.757 32.757 0 0 0-2.592-.102z" fill="#111"/></svg></g><g transform="translate(2287.0 1202.0) rotate(-39.166976087391305 -178.5 192.5) scale(-1.3730241144571362 1.3686407087070434)"><svg width="260.01" height="281.301" viewBox="0 0 260.01 281.301"><path d="m239.005 118.653 7.838 20.673-72.465 21.498-7.837-20.673z" fill="#3A86FF"/><path d="M174.378 161.824c-.406 0-.784-.248-.936-.646l-7.837-20.673a1.003 1.003 0 0 1 .651-1.313l72.465-21.498a.998.998 0 0 1 1.22.604l7.837 20.672a1.003 1.003 0 0 1-.651 1.313l-72.465 21.499a.968.968 0 0 1-.284.042zm-6.521-21.021 7.126 18.798 70.543-20.928-7.126-18.797z" fill="#111"/><path d="m247.986 102.078 7.837 20.673c1.745 4.602.391 10.191-3.731 13.745-1.424 1.227-3.178 2.212-5.249 2.83l-7.837-20.673c2.071-.617 3.825-1.602 5.249-2.83 4.122-3.554 5.475-9.143 3.731-13.745" fill="#3A86FF"/><path d="M246.843 140.325c-.406 0-.784-.248-.936-.646l-7.837-20.672a1.003 1.003 0 0 1 .649-1.313c1.86-.555 3.503-1.439 4.882-2.628 3.713-3.202 5.1-8.276 3.45-12.63l-.001-.003a1 1 0 1 1 1.869-.709l7.838 20.673c1.948 5.138.335 11.108-4.013 14.857-1.596 1.375-3.485 2.395-5.616 3.031-.095.027-.191.04-.285.04zm-6.534-21.053 7.128 18.802a12.96 12.96 0 0 0 4.001-2.335c3.714-3.202 5.101-8.278 3.449-12.633l-5.413-14.278c-.59 2.92-2.159 5.678-4.566 7.754a14.96 14.96 0 0 1-4.599 2.69z" fill="#111"/><path d="m131.91 170.006 7.837 20.673-29.574 66.468-7.837-20.673z" fill="#3A86FF"/><path d="M110.174 258.147h-.028a.997.997 0 0 1-.906-.645l-7.838-20.673a.998.998 0 0 1 .021-.761l29.574-66.469a.962.962 0 0 1 .942-.593 1 1 0 0 1 .907.645l7.837 20.673c.093.247.085.52-.021.761l-29.573 66.469a1.004 1.004 0 0 1-.915.593zm-6.757-21.642 6.831 18.017 28.418-63.873-6.83-18.017z" fill="#111"/><path d="m102.336 236.474 7.837 20.673a13.31 13.31 0 0 1-3.473 4.689c-6.504 5.607-17.642 4.182-20.862-4.311l-7.837-20.673c3.22 8.493 14.358 9.918 20.862 4.311a13.29 13.29 0 0 0 3.473-4.689" fill="#3A86FF"/><path d="M97.508 266.187c-1.228 0-2.458-.148-3.657-.453-4.197-1.065-7.458-3.928-8.947-7.854l-7.837-20.673a1 1 0 0 1 1.871-.709c1.272 3.356 3.96 5.709 7.568 6.625 4.074 1.034 8.561-.006 11.705-2.717a12.293 12.293 0 0 0 3.212-4.339.999.999 0 0 1 1.847.053l7.838 20.673a1 1 0 0 1-.021.762 14.291 14.291 0 0 1-3.732 5.039c-2.705 2.331-6.265 3.593-9.847 3.593zm-16.153-23.31 5.419 14.294c1.271 3.356 3.96 5.709 7.568 6.625 4.071 1.032 8.562-.006 11.705-2.717a12.275 12.275 0 0 0 3.042-3.972l-6.915-18.238a14.162 14.162 0 0 1-2.657 3.052c-3.631 3.129-8.806 4.334-13.503 3.141a13.354 13.354 0 0 1-4.659-2.185z" fill="#111"/><path d="m210.983 252.913 7.838 20.673-79.074-82.907-7.837-20.673z" fill="#3A86FF"/><path d="M218.82 274.586a1 1 0 0 1-.724-.31l-79.073-82.907a1.004 1.004 0 0 1-.212-.335l-7.837-20.673a1 1 0 0 1 1.659-1.045l79.073 82.907c.092.096.164.21.212.335l7.837 20.673a1.002 1.002 0 0 1-.935 1.355zm-78.21-84.451 75.523 79.186-6.014-15.863-75.523-79.186z" fill="#111"/><path d="m249.878 229.8 7.837 20.673c3.034 8.003.701 17.533-6.634 23.856-9.564 8.245-24.006 7.912-32.261-.743l-7.837-20.673c8.255 8.655 22.697 8.988 32.261.743 7.335-6.323 9.668-15.853 6.634-23.856" fill="#3A86FF"/><path d="M235.022 281.286c-6.305 0-12.479-2.349-16.926-7.01a1.019 1.019 0 0 1-.212-.336l-7.837-20.673a1 1 0 0 1 1.659-1.045c7.879 8.262 21.735 8.564 30.884.675 6.854-5.908 9.348-14.83 6.355-22.734l-.003-.01a1 1 0 1 1 1.869-.709l7.838 20.673c3.3 8.701.585 18.502-6.915 24.968-4.805 4.144-10.815 6.2-16.712 6.201zm-15.34-8.247c7.903 8.121 21.649 8.373 30.746.532 6.856-5.911 9.35-14.838 6.353-22.744l-4.645-12.248c-.44 5.88-3.304 11.579-8.239 15.834-8.85 7.628-21.77 8.182-30.572 1.857z" fill="#111"/><path d="M5.56 4.447c3.71-3.198 9.162-4.569 14.347-2.383l221.547 93.459c8.904 3.737 9.39 14.618 2.8 20.299-1.424 1.228-3.178 2.212-5.249 2.83L166.54 140.15l79.073 82.907c8.255 8.655 7.194 22.353-2.369 30.598-9.564 8.245-24.006 7.912-32.261-.743l-79.073-82.907-29.574 66.469a13.31 13.31 0 0 1-3.473 4.689c-6.585 5.677-17.918 4.146-20.978-4.629L1.666 17.79C-.117 12.671 1.85 7.646 5.56 4.447z" fill="#fff"/><path d="M227.184 260.613c-6.304 0-12.479-2.349-16.925-7.01l-78.043-81.827-28.967 65.105a14.295 14.295 0 0 1-3.732 5.04c-3.69 3.182-8.937 4.368-13.689 3.092-4.238-1.136-7.477-4.106-8.887-8.149L.722 18.119C-1.067 12.987.537 7.458 4.906 3.69c4.343-3.743 10.237-4.718 15.39-2.547l221.547 93.459c4.229 1.774 7.046 5.266 7.729 9.579.72 4.546-1.067 9.297-4.664 12.399-1.595 1.375-3.484 2.395-5.616 3.031l-70.898 21.033 77.944 81.724c4.031 4.227 6.095 9.767 5.81 15.601-.307 6.282-3.237 12.122-8.25 16.443a25.635 25.635 0 0 1-16.714 6.201zm-95.274-91.607a1 1 0 0 1 .724.31l79.073 82.907c7.879 8.262 21.735 8.564 30.884.676 4.595-3.96 7.279-9.297 7.559-15.026.259-5.282-1.609-10.297-5.259-14.124l-79.073-82.908a.999.999 0 0 1 .44-1.648l72.465-21.498c1.858-.555 3.501-1.439 4.88-2.628 3.077-2.653 4.608-6.704 3.995-10.571-.572-3.614-2.952-6.547-6.529-8.049L19.518 2.986C15.073 1.113 9.974 1.962 6.213 5.205c-3.734 3.22-5.114 7.916-3.603 12.256l76.22 218.745c1.206 3.458 3.875 5.9 7.516 6.876 4.122 1.104 8.669.08 11.865-2.675a12.293 12.293 0 0 0 3.212-4.339l29.573-66.468a1.004 1.004 0 0 1 .914-.594z" fill="#111"/></svg></g><g transform="translate(32.0 710.0) rotate(-6.043592775942552 144.5 145.0) scale(1.4965951166463842 1.4892338662051754)"><svg width="193.105" height="194.731" viewBox="0 0 193.105 194.731"><path d="M50.289 8.198c-4.497-4.5-10.463-7.054-16.8-7.192C26.558.855 20.958 3.58 17.48 5.893 11.772 9.69 7.006 14.905 4.06 20.579.519 27.401.872 33.601 1.188 35.951c.167 1.237.556 4.133 2.251 7.628 1.5 3.093 2.93 4.659 4.586 6.473l.001.001L35.115 77.42c-2.106-2.128-.943-7.42 3.787-14.653C46.5 51.148 60.425 38.92 70.004 35.455c3.616-1.308 6.096-1.18 7.373.11z" fill="#3658c1"/><path d="M35.117 78.421a1 1 0 0 1-.711-.296L7.317 50.757c-1.737-1.901-3.213-3.518-4.776-6.741C.774 40.373.371 37.368.198 36.084c-.329-2.443-.698-8.891 2.975-15.966 3.023-5.822 7.908-11.169 13.754-15.057C20.525 2.668 26.345-.134 33.511.006c6.596.145 12.806 2.803 17.485 7.485l.004.004 27.089 27.367a1 1 0 0 1-1.422 1.408l-.004-.004c-1.017-1.022-3.26-.975-6.318.13-9.39 3.397-23.119 15.473-30.604 26.919-5.044 7.714-5.26 12.041-3.912 13.402a1 1 0 0 1-.712 1.704zM32.937 2c-6.428 0-11.634 2.551-14.903 4.726C12.465 10.43 7.817 15.513 4.948 21.04 1.539 27.608 1.877 33.562 2.18 35.818a23.154 23.154 0 0 0 2.159 7.325c1.437 2.962 2.822 4.479 4.426 6.234l24.368 24.618c.17-3.001 1.843-7.05 4.933-11.775 7.688-11.754 21.862-24.183 31.599-27.705 1.733-.627 3.152-.911 4.311-.964L49.579 8.903c-4.313-4.315-10.035-6.764-16.111-6.897A23.635 23.635 0 0 0 32.937 2z" fill="#111"/><path d="M98.418 43.783c-1.553-4.377-3.621-6.218-6.731-8.669-13.102-10.32-28.949 2.366-39.796 11.765C39.912 58.51 22.693 78.045 34.522 91.728c3.813 4.189 8.009 8.116 14.327 7.705 18.386-.221 56.308-36.623 49.569-55.65zm-11.16 25.235C81.254 78.2 70.25 87.862 62.68 90.601c-7.57 2.738-8.838-2.485-2.834-11.667S76.854 60.09 84.424 57.351c7.569-2.738 8.838 2.485 2.834 11.667z" fill="#3658c1"/><path d="M47.883 100.465c-6.215 0-10.373-3.969-14.101-8.064-13.786-15.946 9.694-38.747 17.411-46.24 9.367-8.12 26.726-23.162 41.111-11.833 3.202 2.523 5.424 4.521 7.055 9.12 2.329 6.576-.258 15.745-7.285 25.816-11.69 16.754-31.479 31.027-43.214 31.168-.33.022-.656.033-.977.033zm33.003-68.203c-9.036 0-18.843 7.143-28.341 15.373-20.04 19.461-25.701 33.683-17.267 43.439 3.574 3.926 7.558 7.75 13.506 7.361 11.037-.134 30.475-14.298 41.649-30.314 6.648-9.528 9.148-18.053 7.041-24.004-1.485-4.186-3.402-5.85-6.408-8.217-3.231-2.546-6.646-3.638-10.18-3.638zM59.207 92.327c-1.746 0-2.743-.672-3.31-1.389-1.799-2.274-.693-6.731 3.112-12.552 6.097-9.321 17.345-19.18 25.075-21.976 4.27-1.545 6.231-.525 7.123.602 1.799 2.274.694 6.732-3.112 12.552C82 78.886 70.751 88.745 63.02 91.541c-1.558.564-2.809.786-3.813.786zm28.687-34.703c-.837 0-1.9.223-3.13.667-7.383 2.67-18.186 12.176-24.081 21.189-3.774 5.772-4.092 9.111-3.218 10.217.677.853 2.453.839 4.875-.038 7.384-2.671 18.187-12.177 24.081-21.19 3.774-5.772 4.092-9.111 3.218-10.216-.333-.419-.932-.629-1.745-.629zm-.636 11.394h.01z" fill="#111"/><path d="m190.822 180.182-8.371-8.456c4.159-11.253 1.823-18.264-4.795-25.983L90.249 57.439c-1.155-1.14-3.08-1.036-5.815-.145-7.045 2.294-21.792 14.638-26.647 25.102-1.334 2.874-2.673 6.304-.936 8.117l87.408 88.304c8.38 8.114 18.102 8.186 25.938 5.067l8.359 8.445c5.16 5.65 17.543-7.292 12.266-12.147z" fill="#3A86FF"/><path d="M181.781 194.727c-1.555 0-2.925-.587-3.962-1.723l-7.872-7.951c-5.862 2.181-16.536 4.018-26.382-5.517-78.23-79.032-86.511-87.396-87.426-88.34l-.009.009c-2.092-2.184-.876-5.727.75-9.23 5.058-10.898 20.104-23.307 27.245-25.632 2.255-.734 5.066-1.354 6.827.383l87.412 88.31c6.216 7.246 9.457 14.511 5.242 26.435l7.911 7.992c1.44 1.339 1.92 3.309 1.349 5.552-1.052 4.135-5.353 8.482-9.391 9.494a6.964 6.964 0 0 1-1.694.218zm-11.583-11.842a1 1 0 0 1 .711.296l8.359 8.445c.935 1.022 2.176 1.33 3.722.943 3.293-.825 7.077-4.66 7.939-8.047.395-1.55.131-2.763-.783-3.604l-.034-.032-8.371-8.457a1.002 1.002 0 0 1-.227-1.05c4.215-11.406 1.358-18.017-4.616-24.986l.059-.05c-.622-.514-1.688-1.591-3.767-3.691l-83.65-84.51c-.756-.746-2.284-.716-4.795.103-6.656 2.168-21.279 14.293-26.05 24.572-1.19 2.564-2.393 5.677-1.121 7.005l87.397 88.293c9.381 9.084 19.603 6.934 24.856 4.841.121-.048.247-.071.371-.071z" fill="#111"/></svg></g><g transform="translate(1505.0 528.0) rotate(-11.550539425250761 -484.5 405.5) scale(-0.9638894580931899 0.9641413138713899)"><svg width="1005.302" height="841.163" viewBox="0 0 1005.302 841.163"><path d="m872.501 403.509-172.565-36.68c-13.146-2.794-26.77 6.66-30.432 21.133-3.656 14.451 4.039 28.436 17.185 31.23l172.565 36.68c13.144 2.794 26.769-6.659 30.424-21.11 3.663-14.473-4.032-28.459-17.177-31.253" fill="#3658c1"/><path d="M863.895 457.359a23.251 23.251 0 0 1-4.849-.508l-172.565-36.68c-6.166-1.312-11.448-5.063-14.873-10.565-3.891-6.251-5.011-14.229-3.073-21.889 3.783-14.958 17.956-24.765 31.609-21.866l172.564 36.68c6.164 1.311 11.443 5.061 14.867 10.561 3.894 6.255 5.014 14.243 3.073 21.916-3.333 13.174-14.748 22.35-26.753 22.351zm-168.611-90.017c-11.111 0-21.7 8.572-24.81 20.866-1.806 7.136-.773 14.55 2.832 20.341 3.135 5.037 7.961 8.47 13.591 9.666l172.565 36.68c12.612 2.687 25.727-6.463 29.247-20.377 1.809-7.148.776-14.573-2.832-20.369-3.133-5.033-7.958-8.465-13.585-9.66l-172.564-36.68a21.244 21.244 0 0 0-4.444-.467zm181.848 458.964c-.069 0-.139-.007-.209-.021l-383.867-81.594c-.266-.057-.497-.22-.641-.45s-.188-.51-.121-.773l69.433-274.47a1 1 0 0 1 1.178-.733l383.868 81.593c.266.057.497.22.641.45s.188.51.121.773l-69.434 274.471a1 1 0 0 1-.969.754zm-382.644-83.355 381.909 81.178 68.942-272.531-381.91-81.176z" fill="#111"/><path d="m577.171 459.2-22.65-4.815-6.299 24.9 10.114 2.15 2.42.514 10.116 2.151 2.813-11.121.673-2.66z" fill="#3A86FF"/><path d="M570.873 485.099c-.069 0-.139-.007-.209-.021l-22.65-4.814c-.266-.057-.497-.22-.641-.45s-.188-.51-.121-.773l6.299-24.899a1 1 0 0 1 1.178-.733l22.65 4.814c.266.057.497.22.641.45s.188.51.121.773l-6.299 24.899a1 1 0 0 1-.969.754zm-21.427-6.576 20.692 4.397 5.808-22.959-20.692-4.397z" fill="#111"/><path d="m507.737 733.671-10.115-2.151-2.42-.514-10.114-2.15-6.299 24.899 22.65 4.814 2.813-11.119.673-2.66z" fill="#3A86FF"/><path d="M501.439 759.569c-.069 0-.139-.007-.209-.021l-22.649-4.814c-.266-.057-.497-.22-.641-.45s-.188-.51-.121-.773l6.299-24.898a1 1 0 0 1 1.178-.733l22.649 4.814c.266.057.497.22.641.45s.188.51.121.773l-6.299 24.898a1 1 0 0 1-.969.754zm-21.425-6.576 20.691 4.397 5.808-22.958-20.691-4.398z" fill="#111"/><path d="m891.605 815.264-10.115-2.15-2.42-.514-10.115-2.15-2.812 11.119-.673 2.66-2.813 11.119 22.65 4.815z" fill="#3A86FF"/><path d="M885.308 841.163c-.069 0-.139-.007-.209-.021l-22.649-4.814c-.266-.057-.497-.22-.641-.45s-.188-.51-.121-.773l6.298-24.898a1 1 0 0 1 1.178-.733l22.65 4.814c.266.057.497.22.641.45s.188.51.121.773l-6.299 24.898a1.002 1.002 0 0 1-.969.754zm-21.426-6.576 20.691 4.397 5.808-22.958-20.692-4.398z" fill="#111"/><path d="m961.038 540.793-22.649-4.814-2.813 11.119-.673 2.66-2.813 11.121 10.114 2.15 2.42.514 10.116 2.15z" fill="#3A86FF"/><g fill="#111"><path d="M954.74 566.693c-.069 0-.139-.007-.209-.021l-22.649-4.814c-.266-.057-.497-.22-.641-.45s-.188-.51-.121-.773l6.299-24.899a1.002 1.002 0 0 1 1.178-.733l22.649 4.814c.266.057.497.22.641.45s.188.51.121.773l-6.299 24.899a1 1 0 0 1-.969.754zm-21.426-6.576 20.691 4.397 5.808-22.959-20.691-4.397zM302.535 440.26c-.069 0-.139-.007-.209-.021l-202.168-42.973a1 1 0 0 1 .416-1.958l202.168 42.973c.54.115.885.646.771 1.187a1.003 1.003 0 0 1-.978.792zm-146.709 19.752c-.069 0-.139-.007-.209-.021L13.026 429.682a1 1 0 0 1 .416-1.958l142.591 30.309a1 1 0 0 1-.207 1.979zm209.384 44.506c-.069 0-.139-.007-.209-.021l-172.717-36.712a1 1 0 0 1 .416-1.958l172.717 36.712c.54.115.885.646.771 1.187-.101.47-.516.792-.978.792zm-12.234 48.361c-.069 0-.139-.007-.209-.021l-105.552-22.436a1 1 0 0 1 .416-1.958L353.183 550.9c.54.115.885.646.771 1.187a1.004 1.004 0 0 1-.978.792zm-131.712-27.996c-.069 0-.139-.007-.209-.021L.792 478.043a1 1 0 0 1 .416-1.958l220.263 46.818a1 1 0 0 1-.207 1.98zm624.577-339.256c-.069 0-.139-.007-.209-.021L658.265 145.78a1.002 1.002 0 0 1 .416-1.958l187.367 39.825a1.002 1.002 0 0 1-.207 1.98zm-84.907 31.98c-.069 0-.139-.007-.209-.021l-114.47-24.331a1.002 1.002 0 0 1-.771-1.187c.115-.54.648-.883 1.187-.771l114.47 24.331c.54.115.885.646.771 1.187-.102.47-.517.792-.978.792zm243.369 51.73c-.069 0-.139-.007-.209-.021l-211.673-44.992a1.002 1.002 0 0 1 .416-1.958l211.673 44.992c.54.115.885.646.771 1.187a1.003 1.003 0 0 1-.978.792zm-12.003 47.45c-.068 0-.139-.007-.209-.021l-357.839-76.061a1.002 1.002 0 0 1 .416-1.958l357.839 76.061c.54.115.885.646.771 1.187-.101.47-.516.792-.978.792zm-91.376 30.579c-.069 0-.139-.007-.209-.021l-278.467-59.19a1.002 1.002 0 0 1-.771-1.187c.115-.539.645-.88 1.187-.771l278.467 59.19c.54.115.885.646.771 1.187-.101.47-.516.792-.978.792z"/></g><path d="m503.395 89.339-75.153 297.432-415.465-88.317L87.947 1z" fill="#3A86FF"/><path d="M428.243 387.771c-.069 0-.139-.007-.209-.021L12.569 299.432a1.002 1.002 0 0 1-.762-1.223L86.977.755a1.001 1.001 0 0 1 1.178-.733l415.448 88.34a1.002 1.002 0 0 1 .762 1.223l-75.152 297.432a1.003 1.003 0 0 1-.97.754zM14.001 297.692l413.507 87.9L502.17 90.101 88.681 2.178z" fill="#111"/><path d="M428.242 387.771a.995.995 0 0 1-.75-.339L87.197 1.661a1 1 0 1 1 1.5-1.322L428.992 386.11a1 1 0 0 1-.75 1.661z" fill="#111"/><path d="M12.778 299.454a1 1 0 0 1-.392-1.92L503.002 88.42a1 1 0 0 1 .785 1.839L13.169 299.374c-.128.054-.26.08-.391.08z" fill="#111"/></svg></g><g transform="translate(250.0 51.0) rotate(0.0 504.0 354.5) scale(2.443044110518662 2.451590594744122)"><svg width="412.6" height="289.2" viewBox="0 0 412.6 289.2"><defs><clipPath id="c"><path d="m169 210.9-13.6 24.6c4.9-8.8 3.2-20.9-5-36.3l13.6-24.6c8.2 15.4 9.9 27.5 5 36.3Z" style="fill:#3a86ff"/></clipPath><clipPath id="d"><path d="m211.9 226.3-13.6 24.6c-7.3 13.2-20.3 23.7-38.8 31.6-22.5 9.6-43.3 10.9-62.2 4.1s-34.5-21.3-46.4-43.5l13.6-24.6c11.9 22.2 27.4 36.7 46.3 43.5s39.8 5.5 62.3-4.1c18.5-7.9 31.5-18.4 38.8-31.6Z" style="fill:#3a86ff"/></clipPath><clipPath id="e" transform="translate(-5.9 -2)"><path d="M155.4 235.9h-.2c-.2-.1-.2-.4-.1-.6 4.8-8.6 3.1-20.7-5.1-35.9v-.3l13.6-24.6c.1-.2.2-.3.4-.2s.2 0 .3.2c8.3 15.4 10 27.7 5.1 36.6l-13.6 24.6c-.1.2-.2.2-.4.2Zm-4.6-36.6c6.7 12.4 9 22.8 7 31.1l10.9-19.7c4.7-8.5 3.1-20.4-4.7-35.2Z" style="fill:#111;clip-path:url(#c)"/></clipPath><clipPath id="f" transform="translate(-5.9 -2)"><path d="M121.8 291.2a73.7 73.7 0 0 1-24.7-4.2c-19-6.8-34.6-21.5-46.6-43.8v-.3l13.6-24.6c.1-.2.2-.2.4-.2s.2 0 .3.2c11.8 22 27.4 36.6 46.2 43.4s39.6 5.3 61.9-4.1c18.4-7.8 31.4-18.4 38.6-31.5.2-.2.4-.3.6-.2a.3.3 0 0 1 .1.5L198.6 251c-7.3 13.3-20.4 24-39 31.9-13.1 5.6-25.7 8.3-37.8 8.3Zm-70.5-48.1c11.8 21.9 27.3 36.4 46.1 43.2s39.6 5.3 61.9-4.1c18.4-7.8 31.4-18.4 38.7-31.5l9.1-16.5c-7.7 9.7-19.1 17.8-33.9 24.1-22.5 9.5-43.5 10.9-62.5 4.1s-34.3-21.3-46.2-43.1Z" style="fill:#111;clip-path:url(#d)"/></clipPath></defs><g><g><path style="fill:#3a86ff" d="m275.4 75.9-13.6 24.6 6.7-55.9L282.1 20l-6.7 55.9z"/><path d="M267.8 102.9h-.1a.5.5 0 0 1-.3-.5l6.7-55.8L287.7 22a.4.4 0 0 1 .5-.2c.2 0 .3.2.2.4L281.8 78v.2l-13.6 24.6Zm7-56.1-6.4 53.8L281 77.8l6.4-53.8Zm6.6 31.1Z" transform="translate(-5.9 -2)" style="fill:#111"/></g><g><path style="fill:#3a86ff" d="m362.9 169.5-13.6 24.6L293 161l13.6-24.6 56.3 33.1z"/><path d="M355.2 196.5h-.2l-56.2-33c-.2-.2-.3-.4-.2-.6l13.6-24.6.3-.2h.3l56.2 33c.2.2.3.4.2.6l-13.6 24.6-.3.2Zm-55.7-33.6 55.6 32.6 13.2-23.9-55.6-32.6Z" transform="translate(-5.9 -2)" style="fill:#111"/></g><g><path style="fill:#3a86ff" d="m412.2 148.5-13.6 24.6-49.3 21 13.6-24.6 49.3-21z"/><path d="m355.2 196.5-.2-.2a.2.2 0 0 1-.1-.4l13.6-24.6c0-.1.1-.1.2-.2l49.3-20.9c.2-.1.3 0 .5.1a.3.3 0 0 1 0 .4l-13.6 24.6a.2.2 0 0 1-.2.2l-49.3 20.9Zm13.9-24.7-13 23.5 48.2-20.5 13-23.5Z" transform="translate(-5.9 -2)" style="fill:#111"/></g><g><path style="fill:#3a86ff" d="m266.2 117.6-13.6 24.6-92.5-51.5 13.6-24.6 92.5 51.5z"/><path d="M258.6 144.6h-.2L165.9 93a.4.4 0 0 1-.2-.5l13.6-24.6.3-.2c.1-.1.2 0 .3 0l92.5 51.6a.4.4 0 0 1 .1.5l-13.6 24.6a.2.2 0 0 1-.2.2Zm-92-52.1 91.8 51.2 13.2-23.9-91.8-51.2Z" transform="translate(-5.9 -2)" style="fill:#111"/></g><g><path style="fill:#3a86ff" d="m251.7 216.7-13.6 24.6 14.5-99.1 13.6-24.6-14.5 99.1z"/><path d="M244 243.7h-.1a.5.5 0 0 1-.3-.5l14.6-99.1 13.6-24.6c.1-.2.3-.2.5-.2a.5.5 0 0 1 .3.5l-14.6 99v.2l-13.6 24.6Zm14.9-99.4-14.2 96.9 12.6-22.6 14.2-96.9Zm-1.3 74.4Z" transform="translate(-5.9 -2)" style="fill:#111"/></g><g><path style="fill:#3a86ff" d="M300.6 195.9 287 220.5l-48.9 20.8 13.6-24.6 48.9-20.8z"/><path d="M244 243.7h-.3a.4.4 0 0 1 0-.5l13.6-24.6.2-.2 48.9-20.7a.2.2 0 0 1 .4.1.6.6 0 0 1 .1.4l-13.6 24.6-.2.2-48.9 20.8Zm13.9-24.7-13 23.5 47.8-20.3 12.9-23.5Z" transform="translate(-5.9 -2)" style="fill:#111"/></g><g><path style="fill:#3a86ff" d="m158 172.6-13.6 24.6-43.8-81.6L114.2 91l43.8 81.6z"/><path d="M150.4 199.6c-.2 0-.3 0-.4-.2l-43.8-81.6a.3.3 0 0 1 0-.4l13.6-24.6.3-.2.4.2 43.8 81.7a.2.2 0 0 1 0 .3l-13.6 24.6c-.1.2-.2.2-.3.2Zm-43.4-82 43.4 80.8 13.1-23.8-43.4-80.8Z" transform="translate(-5.9 -2)" style="fill:#111"/></g><g><path d="m169 210.9-13.6 24.6c4.9-8.8 3.2-20.9-5-36.3l13.6-24.6c8.2 15.4 9.9 27.5 5 36.3Z" transform="translate(-5.9 -2)" style="fill:#3a86ff"/><path d="M155.4 235.9h-.2c-.2-.1-.2-.4-.1-.6 4.8-8.6 3.1-20.7-5.1-35.9v-.3l13.6-24.6c.1-.2.2-.3.4-.2s.2 0 .3.2c8.3 15.4 10 27.7 5.1 36.6l-13.6 24.6c-.1.2-.2.2-.4.2Zm-4.6-36.6c6.7 12.4 9 22.8 7 31.1l10.9-19.7c4.7-8.5 3.1-20.4-4.7-35.2Z" transform="translate(-5.9 -2)" style="fill:#111"/><g style="clip-path:url(#e)"><g><path d="m169 210.9-13.6 24.6c4.9-8.8 3.2-20.9-5-36.3l13.6-24.6c8.2 15.4 9.9 27.5 5 36.3" transform="translate(-5.9 -2)" style="fill:#3a86ff"/><path d="M155.4 235.9h-.2c-.2-.1-.2-.4-.1-.6 4.8-8.6 3.1-20.7-5.1-35.9v-.3l13.6-24.6c.1-.2.2-.3.4-.2s.2 0 .3.2c8.3 15.4 10 27.7 5.1 36.6l-13.6 24.6c-.1.2-.2.2-.4.2Zm-4.6-36.6c6.7 12.4 9 22.8 7 31.1l10.9-19.7c4.7-8.5 3.1-20.4-4.7-35.2Z" transform="translate(-5.9 -2)" style="fill:#111"/></g></g></g><g><path style="fill:#3a86ff" d="m58.5 216.5-13.6 24.6-44.5-83L14 133.5l44.5 83z"/><path d="M50.9 243.4c-.2 0-.3 0-.4-.2L6 160.3a.3.3 0 0 1 0-.4l13.6-24.6.3-.2a.5.5 0 0 1 .4.2l44.5 83a.2.2 0 0 1 0 .3l-13.6 24.6c-.1.2-.2.2-.3.2ZM6.8 160.1l44.1 82.1L64 218.5l-44.1-82.2Z" transform="translate(-5.9 -2)" style="fill:#111"/></g><g><path d="m211.9 226.3-13.6 24.6c-7.3 13.2-20.3 23.7-38.8 31.6-22.5 9.6-43.3 10.9-62.2 4.1s-34.5-21.3-46.4-43.5l13.6-24.6c11.9 22.2 27.4 36.7 46.3 43.5s39.8 5.5 62.3-4.1c18.5-7.9 31.5-18.4 38.8-31.6Z" transform="translate(-5.9 -2)" style="fill:#3a86ff"/><path d="M121.8 291.2a73.7 73.7 0 0 1-24.7-4.2c-19-6.8-34.6-21.5-46.6-43.8v-.3l13.6-24.6c.1-.2.2-.2.4-.2s.2 0 .3.2c11.8 22 27.4 36.6 46.2 43.4s39.6 5.3 61.9-4.1c18.4-7.8 31.4-18.4 38.6-31.5.2-.2.4-.3.6-.2a.3.3 0 0 1 .1.5L198.6 251c-7.3 13.3-20.4 24-39 31.9-13.1 5.6-25.7 8.3-37.8 8.3Zm-70.5-48.1c11.8 21.9 27.3 36.4 46.1 43.2s39.6 5.3 61.9-4.1c18.4-7.8 31.4-18.4 38.7-31.5l9.1-16.5c-7.7 9.7-19.1 17.8-33.9 24.1-22.5 9.5-43.5 10.9-62.5 4.1s-34.3-21.3-46.2-43.1Z" transform="translate(-5.9 -2)" style="fill:#111"/><g style="clip-path:url(#f)"><g><path d="m211.9 226.3-13.6 24.6c-7.3 13.2-20.3 23.7-38.8 31.6-22.5 9.6-43.3 10.9-62.2 4.1s-34.5-21.3-46.4-43.5l13.6-24.6c11.9 22.2 27.4 36.7 46.3 43.5s39.8 5.5 62.3-4.1c18.5-7.9 31.5-18.4 38.8-31.6" transform="translate(-5.9 -2)" style="fill:#3a86ff"/><path d="M121.8 291.2a73.7 73.7 0 0 1-24.7-4.2c-19-6.8-34.6-21.5-46.6-43.8v-.3l13.6-24.6c.1-.2.2-.2.4-.2s.2 0 .3.2c11.8 22 27.4 36.6 46.2 43.4s39.6 5.3 61.9-4.1c18.4-7.8 31.4-18.4 38.6-31.5.2-.2.4-.3.6-.2a.3.3 0 0 1 .1.5L198.6 251c-7.3 13.3-20.4 24-39 31.9-13.1 5.6-25.7 8.3-37.8 8.3Zm-70.5-48.1c11.8 21.9 27.3 36.4 46.1 43.2s39.6 5.3 61.9-4.1c18.4-7.8 31.4-18.4 38.7-31.5l9.1-16.5c-7.7 9.7-19.1 17.8-33.9 24.1-22.5 9.5-43.5 10.9-62.5 4.1s-34.3-21.3-46.2-43.1Z" transform="translate(-5.9 -2)" style="fill:#111"/></g></g></g><g><path style="fill:#3658c1" d="m328.4.4-14 94.6 97.8 53.5-49.3 21-56.3-33.1-6 59.5-48.9 20.8 14.5-99.1-92.5-51.5L222 45.6l53.4 30.3 6.7-55.9L328.4.4z"/><path d="M257.6 219.1h-.2a.5.5 0 0 1-.2-.4l14.5-98.8-92.2-51.5c-.2-.1-.2-.2-.2-.4l.2-.3 48.3-20.5h.3l53 30.1 6.6-55.3c0-.1.1-.3.2-.3L334.2 2h.4c.1.1.2.2.1.3l-13.9 94.5 97.6 53.4a.5.5 0 0 1 .2.4l-.3.3-49.3 20.9h-.4l-55.7-32.7-6 58.9-.2.3-48.9 20.7Zm-77-151 91.8 51.2c.1 0 .2.2.2.4l-14.5 98.4 48.1-20.4 6-59.3c0-.2.1-.3.2-.3h.4l56.1 32.9 48.4-20.5-97.1-53.1c-.2-.1-.2-.2-.2-.4l13.9-94-45.5 19.3-6.6 55.6c0 .2-.1.3-.2.3h-.4L227.9 48Z" transform="translate(-5.9 -2)" style="fill:#111"/></g><g><path d="m162.3 75.1 44.5 82.9q18 33.5 9 59.5t-42.7 40.4c-22.5 9.6-43.3 10.9-62.3 4.1s-34.4-21.3-46.3-43.5l-44.6-83 42.9-18.2 43.8 81.7q19.4 35.9 48.1 23.7t9.3-48.1L120.1 93Z" transform="translate(-5.9 -2)" style="fill:#3658c1"/><path d="M135.4 266.6a73.7 73.7 0 0 1-24.7-4.2c-19-6.8-34.6-21.5-46.6-43.8l-44.5-82.9a.2.2 0 0 1 0-.3.2.2 0 0 1 .2-.2L62.6 117a.4.4 0 0 1 .5.1l43.9 81.7c12.7 23.6 28.7 31.5 47.5 23.5 8.1-3.4 13.3-8.4 15.6-14.7 2.9-8.3.7-19.3-6.5-32.8l-43.8-81.6a.4.4 0 0 1-.1-.3l.3-.3 42.1-17.9a.4.4 0 0 1 .5.2l44.6 82.9c11.9 22.3 14.9 42.4 9 59.8s-20.5 31.1-43 40.7c-13.1 5.6-25.7 8.3-37.8 8.3ZM20.5 135.7l44.3 82.6c11.8 22 27.4 36.6 46.2 43.4s39.6 5.3 61.9-4.1 36.6-23 42.5-40.2 2.9-37.2-8.9-59.2l-44.4-82.6-41.4 17.6 43.6 81.3c7.3 13.6 9.5 24.8 6.5 33.4-2.3 6.5-7.7 11.6-16 15.1-19.3 8.2-35.6.2-48.5-23.8l-43.7-81.4Z" transform="translate(-5.9 -2)" style="fill:#111"/></g></g></svg></g><g transform="translate(1751.0 557.0) rotate(0.0 366.0 321.5) scale(2.231707317073171 2.232638888888889)"><svg width="328" height="288" viewBox="0 0 328 288"><g><g><path style="fill:#3a86ff" d="M137.533 182.292c-.132.042-.262.087-.395.127-.66.201-1.335.373-2.02.522-.394.086-.799.145-1.201.214-.436.074-.869.155-1.314.208-.323.039-.654.059-.982.088a29.62 29.62 0 0 1-1.538.103c-.325.011-.655.011-.984.013a35.4 35.4 0 0 1-2.647-.088 40.25 40.25 0 0 1-1.613-.155c-.38-.044-.759-.087-1.144-.141a47.14 47.14 0 0 1-1.611-.272c-.432-.079-.861-.153-1.3-.246a50.945 50.945 0 0 1-2.671-.63c-.42-.112-.825-.238-1.236-.358a52.416 52.416 0 0 1-2.168-.688c-.189-.065-.383-.126-.57-.192a44.847 44.847 0 0 1-2.379-.92c-.175-.073-.343-.153-.516-.229a43.446 43.446 0 0 1-1.7-.783c-.234-.115-.464-.233-.694-.35a39.11 39.11 0 0 1-1.504-.816c-.197-.113-.398-.223-.592-.338a35.641 35.641 0 0 1-1.99-1.268c-.079-.055-.154-.114-.232-.169a33.83 33.83 0 0 1-2.262-1.733 32.408 32.408 0 0 1-2.233-2.045c-.119-.12-.235-.242-.352-.364a31.414 31.414 0 0 1-1.94-2.202c-.074-.092-.142-.189-.215-.282a32.37 32.37 0 0 1-1.742-2.452c-.023-.036-.049-.071-.072-.107a33.72 33.72 0 0 1-1.515-2.679c-.071-.138-.144-.273-.213-.412a36.172 36.172 0 0 1-1.225-2.773c-.094-.239-.189-.479-.279-.723a40.471 40.471 0 0 1-1.178-3.727 46.094 46.094 0 0 1-.711-3.086c-.033-.173-.061-.351-.093-.525a51.545 51.545 0 0 1-.446-2.907c-.017-.137-.039-.271-.055-.41a59.517 59.517 0 0 1-.323-3.997 69.18 69.18 0 0 1-.088-3.594c0-.155.006-.315.007-.471.012-1.398.056-2.824.147-4.29l.002-.041c.027-.428.067-.867.101-1.301.035-.452.063-.898.105-1.356.043-.464.1-.941.15-1.412.047-.439.087-.871.14-1.315.078-.646.171-1.306.262-1.964.04-.286.072-.566.114-.855.14-.951.293-1.913.461-2.888l-30.016 12.788c-.168.975-.321 1.938-.461 2.889-.045.305-.079.6-.121.901-.089.641-.18 1.284-.255 1.914l-.003.02c-.056.468-.098.924-.147 1.386-.047.441-.1.888-.141 1.324-.042.454-.07.898-.105 1.346-.034.437-.074.879-.102 1.31l-.001.013-.001.028a80.158 80.158 0 0 0-.147 4.29c-.001.104-.01.216-.011.32 0 .052.004.1.004.151-.003 1.225.03 2.42.088 3.592.006.119.002.247.009.365.007.12.023.23.03.349.068 1.118.159 2.216.283 3.284.005.039.006.081.01.12.012.101.033.194.045.295.123.989.273 1.955.445 2.901.021.118.033.243.055.36.011.057.027.109.038.166.204 1.057.444 2.083.71 3.086.025.096.042.199.068.295.047.172.104.338.153.509a43.367 43.367 0 0 0 .614 1.958c.112.327.227.651.346.971.057.153.107.312.165.464.034.087.077.166.111.252.376.954.783 1.881 1.226 2.776.068.138.141.272.211.409.472.922.972 1.821 1.516 2.681l.071.106a31.747 31.747 0 0 0 1.743 2.454c.073.093.141.19.215.282.61.765 1.261 1.495 1.939 2.2.066.069.122.147.189.215.052.053.112.098.164.151a32.392 32.392 0 0 0 2.232 2.045c.061.051.113.11.175.16.089.073.187.137.276.209.585.47 1.186.927 1.811 1.365.061.042.115.09.177.133.018.013.038.023.055.036.642.441 1.307.862 1.99 1.268.061.036.117.077.178.114.134.079.28.148.416.225.491.281.992.553 1.503.816.126.065.242.137.369.201.105.052.218.097.324.149.555.272 1.123.532 1.701.785.135.058.26.125.396.182.038.016.08.03.119.046.772.324 1.566.631 2.379.92.056.02.107.044.163.063.132.046.274.083.407.129.708.242 1.43.472 2.168.688.142.042.274.092.418.133a53.93 53.93 0 0 0 3.075.778c.141.031.275.049.415.079.438.092.868.167 1.3.246.368.067.744.152 1.107.209.171.027.334.038.504.063.385.055.765.098 1.144.141.313.036.634.089.943.117.227.02.445.022.67.038.355.026.707.045 1.058.06.232.01.471.035.701.04.301.007.59-.011.887-.012.33-.001.661-.001.986-.013.152-.006.309.001.46-.006.365-.019.716-.066 1.075-.096.329-.028.661-.05.984-.089.095-.011.195-.013.29-.026.349-.046.682-.124 1.024-.182.402-.068.808-.128 1.201-.213.081-.018.166-.026.247-.044a25.654 25.654 0 0 0 1.773-.478c.133-.041.264-.085.396-.128.23-.074.463-.142.691-.223.47-.166.934-.347 1.391-.542l30.017-12.788c-.675.284-1.373.532-2.079.76z"/><path style="fill:#111" d="m98.333 196.875-.149-.001c-.14-.003-.282-.013-.425-.023l-.288-.018a36.115 36.115 0 0 1-1.072-.061l-.283-.015a7.698 7.698 0 0 1-.991-.095l-.362-.047c-.408-.047-.779-.089-1.156-.143l-.21-.026c-.1-.011-.2-.022-.302-.039-.223-.035-.454-.081-.685-.126l-.663-.125c-.36-.065-.719-.13-1.085-.208l-.177-.033a5.646 5.646 0 0 1-.241-.046 54.588 54.588 0 0 1-3.104-.785 6.086 6.086 0 0 1-.238-.075l-.184-.059a51.067 51.067 0 0 1-2.19-.695l-.41-.129-.103-.04a48.45 48.45 0 0 1-2.469-.956l-.119-.046c-.078-.033-.153-.069-.228-.104l-.171-.079a42.695 42.695 0 0 1-1.724-.795l-.131-.06a4.369 4.369 0 0 1-.196-.091c-.075-.037-.147-.078-.219-.118l-.156-.085a39.478 39.478 0 0 1-1.523-.827l-.175-.094a5.7 5.7 0 0 1-.245-.133l-.112-.071a38.966 38.966 0 0 1-2.087-1.331l-.173-.124a35.64 35.64 0 0 1-1.9-1.433l-.112-.084a2.124 2.124 0 0 1-.289-.236 34.87 34.87 0 0 1-2.325-2.131c-.092-.082-.132-.117-.168-.155-.042-.042-.083-.091-.124-.139l-.067-.078a32.105 32.105 0 0 1-1.97-2.235l-.218-.285a32.6 32.6 0 0 1-1.771-2.494l.357-.379-.428.271a33.472 33.472 0 0 1-1.54-2.721l-.214-.415a37.096 37.096 0 0 1-1.244-2.815l-.043-.097c-.024-.052-.048-.104-.069-.158-.035-.091-.067-.184-.099-.276l-.069-.195a40.595 40.595 0 0 1-.973-2.965l-.065-.215c-.031-.099-.062-.198-.089-.3-.016-.058-.029-.121-.042-.184l-.026-.115a47.049 47.049 0 0 1-.718-3.119l-.038-.165c-.014-.072-.024-.143-.034-.213l-.023-.153a52.633 52.633 0 0 1-.449-2.93l-.046-.297-.01-.122a59.854 59.854 0 0 1-.286-3.313l-.04-.718a68.71 68.71 0 0 1-.089-3.62l-.003-.155.011-.317a80.65 80.65 0 0 1 .148-4.32c.02-.328.044-.62.068-.912l.067-.868c.023-.309.045-.618.074-.932.027-.294.061-.593.093-.892l.095-.889c.031-.312.063-.625.101-.943.068-.567.146-1.125.223-1.682l.158-1.167c.14-.954.294-1.921.463-2.9a.509.509 0 0 1 .301-.381l30.016-12.788a.506.506 0 0 1 .699.553c-.167.971-.32 1.929-.459 2.876l-.138 1.022c-.083.598-.166 1.196-.236 1.783-.036.293-.065.582-.094.869l-.099.923c-.034.309-.068.618-.096.921-.029.31-.051.614-.073.919l-.067.865c-.024.288-.048.575-.065.857a80.631 80.631 0 0 0-.148 4.304l-.007.467a66.669 66.669 0 0 0 .088 3.569l.038.705a58.85 58.85 0 0 0 .281 3.259l.055.406c.118.951.267 1.919.441 2.878l.092.52a45.82 45.82 0 0 0 1.218 4.836 40.418 40.418 0 0 0 .65 1.897c.089.242.182.478.275.714a35.81 35.81 0 0 0 1.208 2.734l.21.406c.509.996.998 1.858 1.492 2.639l-.357.378.427-.273a31.933 31.933 0 0 0 1.714 2.414l.21.276c.574.72 1.199 1.428 1.911 2.167l.347.358c.691.696 1.43 1.373 2.198 2.013l.445.364c.606.488 1.189.928 1.783 1.344l.229.167c.597.411 1.239.819 1.962 1.25.126.075.255.148.384.22l.201.114a38.088 38.088 0 0 0 2.17 1.152c.547.268 1.108.525 1.679.774l.509.226c.743.313 1.534.619 2.353.91l.564.19c.702.24 1.417.467 2.148.682l.346.103c.29.086.58.172.877.252.785.21 1.625.409 2.645.624.347.074.688.135 1.028.196l.258.047c.535.097 1.068.193 1.593.269.364.052.724.093 1.083.134.582.066 1.114.12 1.639.159.35.025.697.044 1.042.059.527.022 1.048.025 1.565.028h.114c.286-.001.572-.002.854-.012a29.692 29.692 0 0 0 1.511-.102l.296-.024c.225-.018.449-.036.669-.062.354-.042.699-.103 1.043-.162l.551-.093c.293-.048.587-.096.874-.159a24.55 24.55 0 0 0 1.98-.512l.387-.125c.774-.25 1.441-.494 2.039-.749a.507.507 0 1 1 .398.934l-30.017 12.788c-.466.199-.94.384-1.42.554-.157.056-.316.106-.477.156l-.629.201c-.666.203-1.258.362-1.811.487a1.896 1.896 0 0 1-.16.029c-.395.082-.706.133-1.017.185l-.676.12c-.22.042-.44.085-.666.114-.059.008-.122.013-.185.018l-.111.009c-.235.028-.477.048-.718.067l-.674.061c-.231.024-.463.048-.701.06a4.032 4.032 0 0 1-.269.004l-.197.002c-.295.01-.592.012-.89.013l-.463.007c-.133.002-.267.005-.401.005zm-16.394-4.68a45.63 45.63 0 0 0 2.353.91l.106.041.459.15c.7.239 1.416.466 2.146.681l.414.132a52.786 52.786 0 0 0 3.044.77l.41.077a33.7 33.7 0 0 0 1.057.202l.681.129c.216.043.433.086.644.119.088.014.172.023.255.033l.243.03c.367.052.729.093 1.092.135l.419.054c.185.025.369.05.549.066.118.011.234.016.35.021l.313.017c.35.025.697.044 1.042.059l.314.02c.126.009.253.018.376.021.17.004.336-.001.502-.005l.486-.007c.287-.001.574-.002.856-.012l.237-.003c.07-.001.144 0 .215-.003.219-.011.433-.033.647-.056l.698-.063c.228-.019.455-.036.678-.063l.283-.025c.207-.027.406-.066.605-.104l.705-.125c.294-.048.588-.096.875-.159l.149-.026c.683-.151 1.26-.311 1.831-.485l.624-.2c.147-.046.295-.092.44-.143.46-.163.914-.34 1.361-.531l23.504-10.013-.24.031c-.233.028-.472.047-.711.066l-.288.023c-.516.045-1.035.086-1.563.104-.292.01-.589.012-.885.013h-.114a41.57 41.57 0 0 1-1.613-.029 35.99 35.99 0 0 1-1.073-.061 41.124 41.124 0 0 1-1.634-.157c-.415-.047-.784-.09-1.158-.144a43.392 43.392 0 0 1-1.631-.275l-.255-.046a30.26 30.26 0 0 1-1.059-.203 50.72 50.72 0 0 1-2.697-.636c-.307-.082-.606-.171-.905-.26l-.342-.101a51.067 51.067 0 0 1-2.19-.695l-.576-.194a45.352 45.352 0 0 1-2.405-.93l-.521-.231a43.846 43.846 0 0 1-1.721-.793 38.85 38.85 0 0 1-2.227-1.182l-.195-.111a17.737 17.737 0 0 1-.405-.232 36.294 36.294 0 0 1-2.018-1.286l-.236-.172a34.652 34.652 0 0 1-1.837-1.384l-.458-.375a32.576 32.576 0 0 1-2.268-2.078l-.357-.369a31.798 31.798 0 0 1-1.972-2.237l-.218-.287a32.444 32.444 0 0 1-1.769-2.491l-.073-.109a34.172 34.172 0 0 1-1.538-2.719l-.216-.417a36.53 36.53 0 0 1-1.242-2.813 37.1 37.1 0 0 1-1.254-3.693 46.193 46.193 0 0 1-.942-3.933l-.094-.532a53.138 53.138 0 0 1-.45-2.934l-.056-.414a59.94 59.94 0 0 1-.286-3.316l-.039-.715a68.618 68.618 0 0 1-.089-3.621l.007-.475c.013-1.513.062-2.925.148-4.317.02-.33.044-.625.069-.918l.066-.855c.023-.311.045-.622.074-.939.029-.31.063-.625.099-.94l.097-.914c.03-.294.06-.588.096-.888.071-.592.155-1.197.239-1.801l.139-1.03c.096-.656.199-1.317.309-1.985l-28.909 12.316a118.32 118.32 0 0 0-.413 2.604l-.156 1.159a86.542 86.542 0 0 0-.218 1.643c-.04.332-.071.638-.102.944l-.095.898a38.696 38.696 0 0 0-.164 1.787l-.068.877c-.023.286-.047.571-.065.852a80.559 80.559 0 0 0-.148 4.304l-.011.317-.504.149.507.001a67.672 67.672 0 0 0 .088 3.566l.039.708c.073 1.198.165 2.263.281 3.256l-.494.179.504-.061.045.293c.119.955.267 1.921.44 2.874l.093.519c.192.995.428 2.022.703 3.053l.218.794a39.137 39.137 0 0 0 .949 2.891l.205.551c.024.052.048.104.069.158.379.961.786 1.882 1.208 2.735l.208.403c.509.995.998 1.858 1.493 2.64l-.357.377.428-.273a31.1 31.1 0 0 0 1.715 2.415l.211.277a30.872 30.872 0 0 0 1.909 2.166c.04.042.077.085.113.128l.234.23a31.892 31.892 0 0 0 2.198 2.014c.04.033.076.067.111.102l.333.261c.619.498 1.202.938 1.784 1.345l.106.08.119.083a35.3 35.3 0 0 0 1.965 1.253l.11.07c.131.08.2.116.268.152l.207.112c.486.277.98.546 1.485.806l.682.344c.55.271 1.112.527 1.683.777l.391.18-.08.513.196-.466z"/></g><g><path style="fill:#3a86ff" d="M57.146 6 27.129 18.788 79.308 32.77l30.017-12.789z"/><path style="fill:#111" d="M79.308 33.277a.53.53 0 0 1-.131-.017L26.998 19.278a.51.51 0 0 1-.068-.957L56.947 5.533a.512.512 0 0 1 .33-.023l52.179 13.981a.51.51 0 0 1 .068.957L79.507 33.236a.506.506 0 0 1-.199.041zM28.68 18.679l50.59 13.556 28.503-12.144-50.59-13.556L28.68 18.679z"/></g><g><path style="fill:#3a86ff" d="M79.308 32.77 61.063 138.796l30.017-12.788 18.245-106.027z"/><path style="fill:#111" d="M61.063 139.303a.508.508 0 0 1-.5-.593L78.808 32.684a.509.509 0 0 1 .301-.381l30.017-12.788a.506.506 0 0 1 .699.553L91.58 126.094a.509.509 0 0 1-.301.381l-30.016 12.788a.517.517 0 0 1-.2.04zM79.761 33.128l-18.04 104.836 28.905-12.315 18.041-104.836-28.906 12.315z"/></g><g><path style="fill:#3a86ff" d="M211.874 161.059c.053-.297.105-.595.156-.894l-30.016 12.789a158.326 158.326 0 0 1-.998 5.264c-.029.139-.062.272-.091.411a142.782 142.782 0 0 1-.979 4.316c-.107.439-.22.869-.331 1.303a130.693 130.693 0 0 1-1.265 4.639 118.415 118.415 0 0 1-1.126 3.623c-.064.195-.123.395-.188.589a107.318 107.318 0 0 1-1.443 4.026c-.133.35-.272.693-.407 1.039a100.214 100.214 0 0 1-1.22 2.973c-.15.349-.298.7-.451 1.045a93.58 93.58 0 0 1-1.725 3.69c-.03.061-.063.119-.094.18a84.21 84.21 0 0 1-1.75 3.298c-.219.395-.446.78-.67 1.169a79.135 79.135 0 0 1-1.386 2.308c-.241.386-.482.771-.727 1.149a71.144 71.144 0 0 1-1.312 1.934c-.359.517-.717 1.038-1.086 1.542-.44.6-.895 1.18-1.349 1.761-.378.483-.751.97-1.139 1.439-.348.421-.711.823-1.067 1.234a67.844 67.844 0 0 1-1.99 2.208c-.389.41-.785.811-1.183 1.21a63.436 63.436 0 0 1-2.055 1.969c-.407.374-.814.748-1.229 1.11-.76.661-1.54 1.295-2.328 1.919-.371.293-.734.598-1.111.883a63.559 63.559 0 0 1-3.606 2.544 63.942 63.942 0 0 1-4.803 2.838 63.386 63.386 0 0 1-3.63 1.774c-.463.211-.922.429-1.391.629l.002-.001-.002.001 30.016-12.788a63.874 63.874 0 0 0 9.824-5.241 63.202 63.202 0 0 0 3.606-2.544c.378-.285.74-.59 1.111-.883a64.41 64.41 0 0 0 2.328-1.92c.416-.362.822-.736 1.23-1.11a64.53 64.53 0 0 0 2.055-1.969c.398-.398.794-.799 1.183-1.21a66.667 66.667 0 0 0 1.99-2.207c.244-.281.504-.54.744-.826.11-.132.213-.275.323-.408.388-.469.761-.957 1.139-1.439.454-.581.909-1.161 1.349-1.762.37-.504.727-1.024 1.086-1.542.286-.412.586-.808.866-1.229.153-.23.295-.472.446-.705.246-.379.487-.763.727-1.149.472-.756.934-1.526 1.386-2.309.224-.388.451-.774.67-1.168.112-.201.231-.392.341-.595.483-.884.95-1.788 1.409-2.704.03-.061.063-.119.094-.18a92.33 92.33 0 0 0 1.456-3.066c.092-.205.178-.418.269-.624.153-.344.301-.695.45-1.044.419-.976.826-1.967 1.221-2.975.136-.346.274-.688.407-1.038.07-.186.146-.365.216-.552.424-1.138.832-2.297 1.226-3.474.065-.194.124-.394.188-.588.292-.885.582-1.772.856-2.68.094-.31.178-.633.27-.945a129.612 129.612 0 0 0 1.265-4.638c.11-.434.224-.864.331-1.303.049-.201.103-.394.151-.595.291-1.221.564-2.465.828-3.721.029-.138.062-.271.091-.41.298-1.434.579-2.89.842-4.37z"/><path style="fill:#111" d="M137.881 239.479a.513.513 0 0 1-.156-.024h-.002a.504.504 0 0 1-.307-.685.504.504 0 0 1 .277-.268c.32-.137.635-.282.95-.427l.419-.192a62.353 62.353 0 0 0 3.602-1.76 64.227 64.227 0 0 0 4.765-2.815 62.24 62.24 0 0 0 3.577-2.523c.236-.178.466-.364.696-.55l.406-.326a64.541 64.541 0 0 0 2.31-1.904c.402-.35.796-.713 1.19-1.075a64.443 64.443 0 0 0 2.068-1.98c.395-.396.788-.793 1.174-1.2a66.7 66.7 0 0 0 1.975-2.191l.35-.4c.238-.272.478-.544.709-.825.305-.369.601-.75.898-1.131l.232-.298c.452-.577.903-1.153 1.34-1.749.31-.422.61-.855.911-1.289l.168-.243c.44-.633.878-1.267 1.303-1.92.244-.376.484-.758.722-1.141.47-.751.929-1.517 1.378-2.294l.163-.282c.168-.291.337-.583.502-.879a84.965 84.965 0 0 0 1.74-3.279l.052-.1a89.524 89.524 0 0 0 1.757-3.749c.107-.242.212-.488.317-.734l.131-.306c.417-.97.822-1.956 1.214-2.958l.129-.326c.093-.235.186-.47.277-.708a107.249 107.249 0 0 0 1.436-4.007l.187-.586a116.4 116.4 0 0 0 1.518-4.998c.299-1.063.586-2.141.863-3.231l.12-.469c.071-.275.142-.551.21-.83.344-1.416.672-2.863.975-4.3l.091-.409c.357-1.72.692-3.485.995-5.248a.509.509 0 0 1 .301-.381l30.017-12.789a.507.507 0 0 1 .699.552l-.157.897a155.016 155.016 0 0 1-.845 4.385l-.092.413a140.424 140.424 0 0 1-.831 3.733l-.151.596c-.072.297-.147.589-.223.881l-.11.428c-.279 1.1-.568 2.186-.87 3.257-.132.468-.264.937-.4 1.4l-.118.416c-.05.179-.1.358-.153.533a121.27 121.27 0 0 1-.86 2.691l-.188.59a114.073 114.073 0 0 1-1.232 3.491l-.217.554c-.091.241-.185.478-.279.714l-.13.33a101.363 101.363 0 0 1-1.227 2.99l-.104.242c-.116.271-.231.541-.349.807l-.27.626a91.533 91.533 0 0 1-1.465 3.084l-.052.1a93.897 93.897 0 0 1-1.459 2.8c-.062.114-.127.225-.191.335l-.151.263c-.17.306-.344.606-.518.906l-.156.27a77.57 77.57 0 0 1-1.396 2.323c-.243.389-.485.775-.732 1.156l-.192.304c-.084.136-.169.272-.257.405-.173.26-.352.509-.531.758l-.474.672a62.31 62.31 0 0 1-.961 1.361c-.443.604-.901 1.189-1.359 1.774l-.249.318c-.297.381-.594.762-.899 1.131l-.145.183a8.204 8.204 0 0 1-.18.228c-.138.164-.281.318-.424.473-.11.118-.22.237-.326.359a67.69 67.69 0 0 1-2.005 2.224 68.739 68.739 0 0 1-3.263 3.204l-.098.09c-.378.347-.756.693-1.143 1.029a63.86 63.86 0 0 1-2.346 1.935l-.4.321c-.238.192-.476.384-.72.569a63.7 63.7 0 0 1-3.635 2.564 64.705 64.705 0 0 1-9.902 5.282l-30.017 12.789h-.001a.454.454 0 0 1-.196.043zm44.586-66.166a155.31 155.31 0 0 1-.954 5.009l-.091.411a146.718 146.718 0 0 1-.982 4.333 64.65 64.65 0 0 1-.213.842l-.119.466c-.279 1.1-.568 2.186-.87 3.257-.132.468-.264.938-.4 1.401a116.713 116.713 0 0 1-1.131 3.639l-.189.591a107.524 107.524 0 0 1-1.45 4.045c-.092.243-.187.482-.282.722l-.127.322a98.572 98.572 0 0 1-1.226 2.988l-.13.304c-.107.25-.213.5-.323.746a90.441 90.441 0 0 1-1.735 3.71l-.055.105a88.371 88.371 0 0 1-1.8 3.393c-.167.302-.339.599-.512.895l-.162.281a79.735 79.735 0 0 1-1.396 2.323c-.242.388-.484.776-.732 1.156-.43.663-.875 1.306-1.321 1.947l-.168.242c-.305.441-.611.881-.926 1.311-.443.604-.901 1.189-1.359 1.774l-.231.296c-.302.389-.605.777-.916 1.154-.238.289-.484.568-.729.848l-.345.395a68.796 68.796 0 0 1-2.006 2.225 68.675 68.675 0 0 1-3.264 3.204c-.428.394-.829.762-1.239 1.119a64.761 64.761 0 0 1-2.346 1.934l-.398.319c-.239.193-.478.386-.723.571a64.181 64.181 0 0 1-3.463 2.452l19.545-8.327a63.692 63.692 0 0 0 9.746-5.199 63.175 63.175 0 0 0 3.577-2.523c.235-.178.465-.364.694-.549l.408-.327a63.577 63.577 0 0 0 2.309-1.904c.38-.331.751-.671 1.124-1.012l.097-.089a64.608 64.608 0 0 0 2.039-1.954c.394-.395.788-.793 1.173-1.201a65.715 65.715 0 0 0 1.976-2.191c.114-.131.231-.258.349-.385.132-.142.264-.284.39-.435.053-.063.104-.129.154-.195l.166-.21c.299-.362.59-.735.88-1.108l.25-.32c.451-.577.902-1.153 1.339-1.749.321-.438.633-.888.945-1.338l.485-.687c.172-.239.344-.479.51-.727.082-.123.161-.251.24-.379l.202-.32a85.606 85.606 0 0 0 2.1-3.436l.156-.27c.171-.295.342-.591.51-.891l.162-.282c.06-.102.119-.204.177-.309.479-.879.945-1.777 1.401-2.688l.054-.104a86.874 86.874 0 0 0 1.487-3.124l.268-.621c.117-.262.23-.528.343-.794l.104-.244c.417-.971.822-1.958 1.215-2.96l.131-.333c.092-.232.184-.464.273-.7l.215-.549c.422-1.132.828-2.287 1.221-3.458l.187-.585c.291-.881.579-1.765.853-2.668.051-.168.099-.34.146-.512l.122-.429a130.901 130.901 0 0 0 1.26-4.62l.11-.431c.074-.288.148-.576.22-.867l.149-.592c.291-1.217.562-2.457.825-3.708l.092-.411c.294-1.419.573-2.861.834-4.327l-28.9 12.312zm29.408-12.254h.01-.01z"/></g><g><path style="fill:#3a86ff" d="m200.547 65.255-18.533 107.699 30.017-12.789 18.532-107.698z"/><path style="fill:#111" d="M182.014 173.461a.508.508 0 0 1-.5-.593l18.533-107.699a.509.509 0 0 1 .301-.381L230.365 52a.506.506 0 0 1 .699.553l-18.533 107.698a.509.509 0 0 1-.301.381l-30.017 12.789a.509.509 0 0 1-.199.04zM201 65.613l-18.328 106.509 28.906-12.316 18.328-106.508L201 65.613z"/></g><g><path style="fill:#3a86ff" d="m179.172 38.697-30.016 12.788 51.391 13.77 30.016-12.788z"/><path style="fill:#111" d="M200.547 65.762a.53.53 0 0 1-.131-.017l-51.391-13.77a.51.51 0 0 1-.068-.957l30.016-12.789a.512.512 0 0 1 .33-.023l51.392 13.77a.51.51 0 0 1 .068.957l-30.017 12.788a.49.49 0 0 1-.199.041zm-49.84-14.386 49.802 13.344 28.503-12.144-49.803-13.344-28.502 12.144z"/></g><g><path style="fill:#3a86ff" d="m292.096 88.698 30.016-12.788-33.435 194.302L258.661 283z"/><path style="fill:#111" d="M258.661 283.507a.508.508 0 0 1-.5-.593l33.436-194.302a.509.509 0 0 1 .301-.381l30.016-12.788a.506.506 0 0 1 .699.553l-33.435 194.301a.509.509 0 0 1-.301.381l-30.017 12.789a.516.516 0 0 1-.199.04zm33.888-194.45-33.231 193.112 28.906-12.315 33.23-193.111-28.905 12.314z"/></g><g><path style="fill:#3a86ff" d="m239.917 74.717 30.017-12.788 52.178 13.981-30.016 12.788z"/><path style="fill:#111" d="M292.096 89.206a.53.53 0 0 1-.131-.017l-52.179-13.981a.51.51 0 0 1-.068-.957l30.017-12.789a.5.5 0 0 1 .33-.023l52.179 13.981a.51.51 0 0 1 .068.957l-30.016 12.788a.515.515 0 0 1-.2.041zm-50.628-14.598 50.59 13.555 28.502-12.144-50.59-13.556-28.502 12.145z"/></g><g><g><path style="fill:#3658c1" d="m200.547 65.255-18.533 107.698c-4.968 28.868-16.413 49.129-34.309 60.776-17.911 11.657-40.566 13.816-67.976 6.471s-47.358-20.918-59.842-40.72c-12.5-19.792-16.258-44.126-11.29-72.994L27.129 18.788 79.308 32.77 61.063 138.796c-5.35 31.088 3.661 49.764 27.033 56.026 23.193 6.215 37.465-6.222 42.815-37.31l18.245-106.026 51.391 13.769z"/><path style="fill:#111" d="M109.294 244.936c-9.219 0-19.13-1.414-29.696-4.245-27.41-7.344-47.644-21.118-60.14-40.939-12.507-19.803-16.329-44.481-11.362-73.351L26.629 18.702a.51.51 0 0 1 .632-.404L79.44 32.279a.509.509 0 0 1 .369.576L61.563 138.882c-5.273 30.641 3.698 49.296 26.664 55.45 9.835 2.636 18.134 1.851 24.668-2.331 8.625-5.52 14.518-17.152 17.516-34.575L148.656 51.4a.51.51 0 0 1 .632-.404l51.391 13.77a.509.509 0 0 1 .369.576L182.514 173.04c-4.968 28.874-16.586 49.436-34.532 61.115-11.036 7.183-23.982 10.781-38.688 10.781zM27.535 19.422 9.096 126.573c-4.924 28.615-1.149 53.053 11.219 72.637 12.356 19.599 32.39 33.225 59.545 40.5 27.133 7.27 49.866 5.115 67.568-6.406 17.699-11.519 29.167-31.853 34.086-60.437l18.454-107.243-50.407-13.506-18.151 105.479c-3.048 17.716-9.094 29.578-17.968 35.257-6.786 4.342-15.357 5.168-25.478 2.457C64.405 189 55.187 169.956 60.563 138.71L78.729 33.14 27.535 19.422z"/></g></g><g><g><path style="fill:#3658c1" d="M292.096 88.698 258.661 283l-52.179-13.981 33.435-194.302z"/><path style="fill:#111" d="M258.661 283.507a.53.53 0 0 1-.131-.017l-52.179-13.981a.509.509 0 0 1-.369-.576l33.436-194.301a.506.506 0 0 1 .632-.404l52.179 13.981a.509.509 0 0 1 .369.576l-33.436 194.302a.5.5 0 0 1-.501.42zm-51.601-14.859 51.195 13.718 33.263-193.298-51.195-13.717-33.263 193.297z"/></g></g></g></svg></g><g transform="translate(101.0 1058.0) rotate(0.0 311.0 270.0) scale(2.444315198767625 2.4498017475252465)"><svg width="254.468" height="220.426" viewBox="0 0 254.468 220.426"><path d="M237.982 71.918 52.345 9.896l.809-5.526-9.03 5.06-.003.011a6.288 6.288 0 0 0-2.884 3.751L4.418 143.738c-.998 3.539 1.048 7.357 4.571 8.534l188.562 62.998c1.737.58 3.506.407 4.974-.339h.001l.018-.009c.103-.053.201-.113.301-.171l7.735-4.398-4.027-2.262 36-127.64c.998-3.538-1.048-7.357-4.571-8.534z" fill="#3A86FF"/><path d="M199.652 216.017a7.046 7.046 0 0 1-2.228-.366L8.863 152.652c-3.715-1.241-5.882-5.289-4.829-9.022L40.853 13.084a6.695 6.695 0 0 1 3.009-3.954.397.397 0 0 1 .067-.049l9.03-5.06a.4.4 0 0 1 .591.408l-.76 5.194 185.319 61.916c3.716 1.241 5.882 5.288 4.829 9.021l-35.914 127.338 3.752 2.107a.402.402 0 0 1 .002.697l-7.736 4.397c-.142.084-.227.135-.316.181a6.792 6.792 0 0 1-3.074.737zM44.379 9.746a.35.35 0 0 1-.055.04 5.901 5.901 0 0 0-2.701 3.515L4.803 143.846c-.938 3.329.997 6.938 4.313 8.048l188.562 62.998c1.573.525 3.23.413 4.666-.316.092-.046.163-.089.234-.131l7.189-4.089-3.41-1.915a.4.4 0 0 1-.189-.457l36-127.641c.938-3.329-.997-6.938-4.313-8.046L52.219 10.276a.4.4 0 0 1-.269-.438l.691-4.722-8.262 4.629z"/><path d="M246.314 67.206c3.523 1.177 5.569 4.996 4.571 8.534l-36.819 130.546c-.998 3.538-4.66 5.45-8.183 4.273L17.321 147.561c-3.523-1.177-5.569-4.996-4.571-8.534L49.569 8.48c.998-3.538 4.66-5.45 8.183-4.273l188.562 62.998z" fill="#3658c1"/><path d="M207.998 211.308a7.059 7.059 0 0 1-2.243-.371L17.194 147.94c-3.715-1.241-5.882-5.289-4.829-9.022L49.184 8.372c.509-1.805 1.685-3.273 3.312-4.134 1.65-.873 3.561-1.02 5.383-.41l188.562 62.998c3.715 1.241 5.881 5.289 4.829 9.022l-36.819 130.546c-.509 1.805-1.685 3.273-3.312 4.134a6.693 6.693 0 0 1-3.141.78zM55.638 4.259c-.961 0-1.906.23-2.768.687-1.432.757-2.468 2.051-2.917 3.644L13.135 139.134c-.938 3.329.996 6.938 4.313 8.046l188.562 62.998c1.611.54 3.301.413 4.755-.357 1.431-.758 2.467-2.052 2.916-3.644L250.5 75.631c.938-3.329-.996-6.938-4.313-8.046L57.625 4.587a6.273 6.273 0 0 0-1.987-.328z"/><path d="M196.329 74.607c-5.008-1.673-10.214 1.045-11.633 6.074-1.416 5.02 1.492 10.449 6.501 12.122 4.999 1.67 10.215-1.045 11.631-6.065 1.418-5.029-1.5-10.462-6.498-12.132" fill="#fff"/><path d="M194.2 93.699a9.842 9.842 0 0 1-3.129-.517c-5.198-1.736-8.229-7.393-6.758-12.61.711-2.521 2.354-4.571 4.625-5.773 2.303-1.219 4.974-1.423 7.52-.572 5.198 1.737 8.229 7.398 6.756 12.62-.708 2.513-2.349 4.559-4.619 5.76a9.355 9.355 0 0 1-4.394 1.092zm-.875-19.188a8.543 8.543 0 0 0-4.014.996c-2.076 1.099-3.578 2.975-4.229 5.282-1.357 4.813 1.443 10.031 6.243 11.634 2.334.781 4.783.595 6.895-.524 2.075-1.098 3.575-2.97 4.224-5.27 1.358-4.817-1.441-10.041-6.241-11.644a9.087 9.087 0 0 0-2.877-.475z"/><path d="M117.25 76.987c-1.182-.395-2.508-.278-3.612.473l-69.885 47.564c-2.891 1.967-2.117 6.566 1.299 7.707l63.556 21.234 48.142 16.084 33.816 11.298c3.417 1.142 6.437-2.189 5.058-5.583l-23.734-58.417c-.527-1.296-1.564-2.202-2.746-2.597s-2.508-.278-3.612.473l-24.327 16.551-21.21-52.189a4.516 4.516 0 0 0-2.746-2.598" fill="#fff"/><path d="M191.926 181.972c-.492 0-.993-.08-1.485-.245L44.926 133.11a4.892 4.892 0 0 1-3.305-4.002c-.247-1.784.466-3.435 1.908-4.415l69.885-47.563c1.157-.787 2.601-.977 3.963-.522a4.919 4.919 0 0 1 2.99 2.827l21.024 51.73 23.918-16.272c1.156-.786 2.6-.976 3.963-.522a4.923 4.923 0 0 1 2.991 2.827l23.734 58.417c.709 1.745.38 3.649-.858 4.97a4.379 4.379 0 0 1-3.212 1.389zM115.903 77.165c-.725 0-1.431.212-2.039.625l-69.885 47.564c-1.185.806-1.77 2.167-1.565 3.644a4.1 4.1 0 0 0 2.767 3.354l145.515 48.617c1.424.476 2.866.127 3.86-.934 1.022-1.089 1.291-2.668.7-4.121l-23.734-58.417a4.125 4.125 0 0 0-2.503-2.369c-1.125-.374-2.313-.221-3.259.426l-24.736 16.829-21.397-52.648a4.12 4.12 0 0 0-2.502-2.369 3.836 3.836 0 0 0-1.22-.201z"/></svg></g></svg>
