<svg xmlns="http://www.w3.org/2000/svg" viewBox="0 0 2500 2500" width="2500" height="2500"><path fill="#FFF" d="M0 0h2500v2500H0z"/><g transform="translate(1133.0 346.0) rotate(0.0 533.5 525.0) scale(1.0018854601724707 1.002088160853283)"><svg width="1064.992" height="1047.812" viewBox="0 0 1064.992 1047.812"><linearGradient id="a" gradientTransform="matrix(.99890462 .04679264 -.04679264 .99890462 -8.066 304.802)" gradientUnits="userSpaceOnUse" x1="279.533" x2="461.167" y1="729.288" y2="557.384"><stop offset=".57" stop-color="#3A86FF"/><stop offset="1" stop-color="#3658c1"/></linearGradient><linearGradient id="b" gradientTransform="matrix(.99890462 .04679264 -.04679264 .99890462 -8.066 304.802)" gradientUnits="userSpaceOnUse" x1="884.197" x2="1089.325" y1="464.973" y2="321.934"><stop offset="0" stop-color="#3658c1"/><stop offset=".498" stop-color="#3A86FF"/></linearGradient><path d="m133.133 431.681 25.12 38.785c-21.233 2.096-42.988-1.134-63.035-10.487-19.807-9.241-35.466-23.271-46.351-40.078l-25.12-38.785c10.885 16.807 26.545 30.837 46.351 40.078 20.047 9.353 41.802 12.583 63.035 10.487" fill="#3A86FF"/><path d="M145.931 472.075c-17.832 0-35.299-3.8-51.137-11.189-19.29-9-35.462-22.984-46.767-40.441l-25.12-38.785a1 1 0 1 1 1.678-1.087c11.103 17.141 26.987 30.875 45.936 39.715 19.174 8.946 40.792 12.542 62.514 10.397a.991.991 0 0 1 .938.452l25.119 38.786a1 1 0 0 1-.74 1.539c-4.148.41-8.295.613-12.42.613zM35.892 398.029l13.813 21.329c11.102 17.141 26.985 30.874 45.935 39.715 18.694 8.722 39.708 12.358 60.874 10.549l-23.89-36.888c-21.875 2.055-43.628-1.619-62.949-10.634-12.806-5.975-24.237-14.146-33.783-24.072z" fill="#111"/><path d="m609.603 114.978 25.12 38.785c-18.247 11.656-33.9 27.927-44.743 48.04-21.415 39.725-18.736 84.414 3.022 118.009l-25.12-38.785c-21.758-33.595-24.437-78.284-3.022-118.009 10.843-20.113 26.496-36.384 44.743-48.04" fill="#3A86FF"/><path d="M593.003 320.813a.999.999 0 0 1-.84-.457l-25.12-38.785c-22.632-34.943-23.806-80.552-3.063-119.027 10.547-19.565 26.137-36.305 45.085-48.409a.999.999 0 0 1 1.377.299l25.119 38.785a.998.998 0 0 1-.3 1.387c-18.661 11.921-34.015 28.406-44.401 47.672-20.395 37.833-19.252 82.661 2.981 116.991a1 1 0 0 1-.838 1.544zm16.304-204.454c-18.284 11.877-33.335 28.156-43.566 47.134-20.396 37.832-19.253 82.66 2.98 116.991l13.8 21.305c-12.76-31.606-10.653-68.494 6.579-100.46 10.39-19.274 25.673-35.804 44.238-47.864l-24.031-37.107z" fill="#111"/><path d="m245.291 790.761 25.12 38.785L26.12 715.568 1 676.783z" fill="#3A86FF"/><path d="M270.411 830.546a.987.987 0 0 1-.423-.094L25.697 716.474a1.001 1.001 0 0 1-.416-.363L.161 677.326a.999.999 0 0 1 1.262-1.45l244.292 113.979c.17.08.314.205.416.363l25.119 38.785a.999.999 0 0 1-.839 1.543zM26.804 714.783 267.68 827.168l-23.071-35.623L3.731 679.161l23.072 35.623z" fill="#111"/><path d="m1038.872 315.261 25.12 38.785-132.126 245.089-25.12-38.785z" fill="#3A86FF"/><path d="M931.866 600.135a.999.999 0 0 1-.839-.457l-25.12-38.785a.997.997 0 0 1-.041-1.018l132.127-245.089a.997.997 0 0 1 .84-.524c.334-.011.687.158.88.456l25.118 38.785a.997.997 0 0 1 .041 1.018L932.746 599.61a.997.997 0 0 1-.84.524h-.04zm-23.959-39.832 23.88 36.871 131.044-243.081-23.879-36.871z" fill="#111"/><path d="m430.27 877.066 25.12 38.785c.871 20.576-3.773 41.984-14.622 62.11-32.123 59.587-106.337 85.438-165.727 57.729-19.807-9.241-35.466-23.271-46.351-40.078l-25.12-38.785c10.885 16.807 26.545 30.837 46.351 40.078 59.39 27.709 133.604 1.858 165.727-57.729 10.85-20.126 15.493-41.534 14.622-62.11" fill="url(#a)"/><path d="M325.62 1047.778c-17.349 0-34.734-3.591-51.003-11.182-19.29-9-35.462-22.984-46.767-40.441l-25.12-38.785a1 1 0 1 1 1.678-1.087c11.103 17.141 26.987 30.875 45.936 39.715 16.001 7.465 33.111 11 50.177 11 45.682.002 91.073-25.313 114.247-68.298 10.379-19.253 15.394-40.551 14.503-61.593a.999.999 0 0 1 1.838-.586l25.12 38.786c.098.15.152.323.16.501.905 21.404-4.192 43.06-14.742 62.626-23.526 43.642-69.629 69.341-116.026 69.343zm-109.905-74.039 13.813 21.329c11.102 17.141 26.985 30.874 45.935 39.715 58.836 27.452 132.595 1.747 164.424-57.298 10.333-19.167 15.351-40.366 14.515-61.321l-23.037-35.57c.227 20.231-4.873 40.573-14.837 59.055-23.526 43.641-69.63 69.34-116.027 69.343-17.349 0-34.733-3.591-51.002-11.182-12.806-5.975-24.237-14.146-33.783-24.072z" fill="#111"/><path d="m806.694 745.942 25.12 38.785-132.133 245.102-25.12-38.785z" fill="#3A86FF"/><path d="M699.68 1030.829a.999.999 0 0 1-.839-.457l-25.119-38.785a.997.997 0 0 1-.041-1.018l132.133-245.102a.997.997 0 0 1 .84-.524.99.99 0 0 1 .879.456l25.12 38.785a.997.997 0 0 1 .041 1.018L700.56 1030.304a.997.997 0 0 1-.84.524h-.04zm-23.958-39.832 23.879 36.871 131.052-243.094-23.88-36.87-131.051 243.094z" fill="#111"/><path d="m1016.138 610.934 25.12 38.785c21.758 33.595 24.443 78.287 3.028 118.012-32.123 59.587-106.337 85.438-165.727 57.729-19.802-9.239-35.446-23.282-46.323-40.076l-25.12-38.785c10.877 16.794 26.521 30.837 46.323 40.076 59.39 27.709 133.604 1.858 165.727-57.729 21.415-39.724 18.73-84.417-3.028-118.012" fill="url(#b)"/><path d="M929.139 837.548c-17.349 0-34.734-3.591-51.003-11.182-19.265-8.988-35.427-22.972-46.739-40.438l-25.12-38.786a1 1 0 0 1 1.679-1.087c11.109 17.152 26.983 30.884 45.906 39.713 16.001 7.466 33.112 11 50.178 11 45.682.002 91.073-25.313 114.246-68.298 20.395-37.83 19.25-82.659-2.986-116.993a1 1 0 1 1 1.678-1.087l25.119 38.785c22.635 34.946 23.811 80.556 3.069 119.03-23.526 43.641-69.629 69.34-116.026 69.342zm-109.866-74.02 13.802 21.313c11.108 17.151 26.983 30.884 45.907 39.713 16.001 7.466 33.112 11 50.178 11 45.681.002 91.072-25.313 114.246-68.298 20.394-37.831 19.249-82.661-2.987-116.994l-13.796-21.301c12.761 31.609 10.655 68.495-6.577 100.458-23.526 43.642-69.629 69.341-116.026 69.343-17.349 0-34.734-3.591-51.003-11.182-12.784-5.965-24.202-14.129-33.743-24.053z" fill="#111"/><path d="m674.561 991.044 25.12 38.785-244.292-113.978-25.119-38.785z" fill="#3A86FF"/><path d="M699.68 1030.829a.987.987 0 0 1-.423-.094L454.966 916.757a1.001 1.001 0 0 1-.416-.363l-25.12-38.786a.999.999 0 0 1 1.262-1.45l244.292 113.979c.17.08.314.205.416.363l25.119 38.785a.999.999 0 0 1-.839 1.543zM456.073 915.066l240.876 112.385-23.071-35.623-240.877-112.385z" fill="#111"/><path d="M1038.872 315.261 906.746 560.35c21.233-2.096 42.981 1.146 63.041 10.505 59.39 27.709 81.509 98.491 49.379 158.09-32.123 59.587-106.337 85.438-165.727 57.729-20.06-9.359-35.853-23.648-46.745-40.733L674.561 991.043 430.27 877.065c.871 20.576-3.773 41.984-14.622 62.11-32.123 59.587-106.337 85.438-165.727 57.729-59.402-27.715-81.502-98.504-49.379-158.09 10.85-20.126 26.503-36.397 44.75-48.053L1 676.783l132.133-245.102c-21.233 2.096-42.988-1.134-63.035-10.487-59.402-27.715-81.502-98.504-49.379-158.09 32.13-59.599 106.324-85.444 165.727-57.729 20.047 9.353 35.847 23.63 46.739 40.715L365.311 1l244.291 113.978c-18.247 11.656-33.9 27.927-44.743 48.04-32.13 59.6-10.023 130.375 49.379 158.09 59.39 27.709 133.597 1.87 165.727-57.729 10.843-20.113 15.486-41.521 14.616-62.097l244.291 113.978z" fill="#fff"/><path d="M300.5 1008.993c-17.349 0-34.733-3.591-51.002-11.182-28.323-13.215-49.259-36.605-58.952-65.864-10.148-30.634-6.911-63.878 9.116-93.607 10.269-19.048 25.31-35.416 43.571-47.436L.577 677.689c-.249-.117-.439-.331-.526-.592s-.062-.547.069-.789l131.249-243.462c-21.449 1.8-42.741-1.903-61.693-10.745-28.323-13.215-49.259-36.605-58.952-65.864-10.148-30.634-6.911-63.878 9.116-93.607 32.323-59.96 107.252-86.05 167.029-58.161 19 8.865 34.955 22.558 46.237 39.661L364.431.525a.998.998 0 0 1 1.303-.432l244.292 113.978a.998.998 0 0 1 .115 1.749c-18.661 11.921-34.015 28.406-44.401 47.672-15.765 29.243-18.954 61.926-8.981 92.03 9.518 28.729 30.081 51.699 57.903 64.68 58.833 27.449 132.594 1.746 164.424-57.298 10.374-19.245 15.387-40.539 14.496-61.58a1 1 0 0 1 1.422-.949l244.292 113.978a1.002 1.002 0 0 1 .457 1.381l-131.242 243.45c21.431-1.797 42.726 1.912 61.699 10.764 28.322 13.214 49.259 36.606 58.952 65.866 10.148 30.633 6.911 63.876-9.116 93.605-23.525 43.642-69.629 69.341-116.026 69.343-17.349 0-34.734-3.591-51.003-11.182-18.996-8.863-34.952-22.561-46.243-39.679L675.442 991.518a1.002 1.002 0 0 1-1.303.432L431.326 878.662c.585 20.866-4.518 41.917-14.799 60.988-23.526 43.641-69.63 69.34-116.027 69.343zM2.383 676.325l243.332 113.53a1.002 1.002 0 0 1 .115 1.749c-18.661 11.921-34.017 28.41-44.408 47.685-15.763 29.239-18.951 61.923-8.978 92.029 9.519 28.73 30.081 51.701 57.899 64.681 58.834 27.449 132.593 1.746 164.424-57.298 10.379-19.253 15.394-40.551 14.503-61.593a1 1 0 0 1 1.422-.949l243.437 113.58 131.686-244.271a1 1 0 0 1 .844-.525.973.973 0 0 1 .879.462c11.133 17.46 27.151 31.418 46.325 40.364 58.833 27.451 132.595 1.747 164.424-57.298 15.763-29.239 18.951-61.922 8.978-92.027-9.519-28.732-30.081-51.703-57.899-64.683-19.197-8.957-40.816-12.56-62.52-10.416a.999.999 0 0 1-.979-1.47l131.624-244.157-241.853-112.839c.585 20.866-4.516 41.913-14.792 60.975-23.526 43.641-69.63 69.34-116.027 69.342-17.349 0-34.733-3.591-51.002-11.181-28.326-13.216-49.264-36.607-58.956-65.864-10.147-30.631-6.909-63.875 9.12-93.607 10.264-19.04 25.303-35.403 43.564-47.423L365.744 2.305 234.065 246.564a1 1 0 0 1-.844.525c-.375 0-.689-.164-.879-.462-11.123-17.446-27.14-31.398-46.319-40.346-58.831-27.45-132.594-1.746-164.424 57.298-15.763 29.239-18.951 61.923-8.978 92.029 9.519 28.73 30.081 51.701 57.899 64.681 19.174 8.946 40.792 12.542 62.514 10.397a.999.999 0 0 1 .979 1.47z" fill="#111"/></svg></g><g transform="translate(315.0 1026.0) rotate(0.0 498.0 531.0) scale(0.9990951969200583 0.9999406814849966)"><svg width="996.902" height="1062.063" viewBox="0 0 996.902 1062.063"><linearGradient id="c" gradientUnits="userSpaceOnUse" x1="638.529" x2="638.789" y1="925.435" y2="1100.709"><stop offset="0" stop-color="#111"/><stop offset=".547" stop-color="#3658c1"/></linearGradient><linearGradient id="d" gradientUnits="userSpaceOnUse" x1="302.321" x2="295.511" y1="561.877" y2="798.516"><stop offset="0" stop-color="#111"/><stop offset=".746" stop-color="#3658c1"/></linearGradient><linearGradient id="e" gradientUnits="userSpaceOnUse" x1="240.167" x2="251.559" y1="236.161" y2="12.812"><stop offset="0" stop-color="#3A86FF"/><stop offset=".338" stop-color="#fff"/></linearGradient><path d="m784.088 498.487-62.445 1.608c16.913-.435 33.962-5.349 49.784-15.198 17.871-11.124 31.865-27.132 41.469-45.767l62.445-1.608c-9.604 18.635-23.598 34.644-41.469 45.767-15.822 9.848-32.871 14.762-49.784 15.198" fill="#3658c1"/><path d="M721.642 501.095a1 1 0 0 1-.024-1.999c17.379-.448 33.959-5.51 49.281-15.047 17.07-10.626 31.285-26.317 41.108-45.376a1 1 0 0 1 .863-.542l62.444-1.608c.328-.011.685.168.872.468a.998.998 0 0 1 .042.989c-9.988 19.38-24.452 35.342-41.829 46.159-15.407 9.59-32.798 14.897-50.287 15.348l-62.444 1.608h-.026zm91.87-60.98c-9.979 19.143-24.338 34.914-41.557 45.632-9.748 6.067-20 10.36-30.639 12.841l42.745-1.101c17.379-.447 33.96-5.51 49.281-15.047 16.62-10.346 30.533-25.492 40.321-43.875l-60.152 1.549z" fill="#111"/><path d="m726.264 1053.098-62.445 1.608c-39.657 1.021-78.561-22.581-99.112-64.929-9.9-20.399-14.249-42.534-13.667-64.182l62.445-1.608c-.582 21.648 3.767 43.784 13.667 64.182 20.551 42.348 59.455 65.95 99.112 64.929" fill="url(#c)"/><path d="M661.287 1055.739c-40.592 0-77.768-24.908-97.479-65.525-9.611-19.803-14.372-42.157-13.768-64.646a1 1 0 0 1 .975-.973l62.444-1.608a1 1 0 0 1 1.025 1.026c-.597 22.168 4.095 44.202 13.566 63.719 19.777 40.752 57.387 65.42 98.188 64.366h.025a1 1 0 0 1 .025 1.999l-62.445 1.608c-.853.022-1.707.033-2.558.033zM552.018 926.57c-.438 21.849 4.253 43.534 13.589 62.771 19.777 40.752 57.354 65.433 98.187 64.366l42.654-1.099c-33.656-5.977-63.322-29.234-80.195-64.002-9.461-19.495-14.222-41.46-13.792-63.592l-60.442 1.556z" fill="#111"/><path d="m445.861 136.468-62.444 1.608L601.051 2.608 663.496 1z" fill="#fff"/><path d="M383.417 139.076a1 1 0 0 1-.528-1.849L600.523 1.759a.992.992 0 0 1 .503-.15L663.471 0a.974.974 0 0 1 .983.712 1 1 0 0 1-.43 1.136L446.389 137.316a.992.992 0 0 1-.503.15l-62.444 1.607h-.025zM601.35 3.6 387.068 136.981l58.496-1.506L659.846 2.094zM445.862 136.468h.01z" fill="#111"/><path d="m281.867 811.084-62.445 1.608c16.908-.435 33.949-5.326 49.766-15.172 52.92-32.941 72.054-108.607 42.738-169.015-20.551-42.348-59.455-65.95-99.112-64.929l62.445-1.608c39.657-1.021 78.561 22.581 99.112 64.929 29.316 60.408 10.183 136.075-42.738 169.015-15.817 9.845-32.858 14.736-49.766 15.172" fill="url(#d)"/><path d="M219.423 813.691a1 1 0 0 1-.025-1.999h.003c17.395-.448 33.968-5.502 49.26-15.021 52.412-32.624 71.418-107.867 42.367-167.729-19.778-40.753-57.393-65.404-98.188-64.366-.579.022-1.011-.422-1.025-.974s.422-1.011.975-1.025l62.444-1.608c41.559-1.081 79.912 24.024 100.037 65.492 29.484 60.756 10.146 137.152-43.109 170.301-15.599 9.71-32.512 14.865-50.269 15.322l-62.444 1.607h-.025zm13.209-249.625c33.656 5.976 63.321 29.233 80.194 64.002 29.484 60.755 10.146 137.152-43.109 170.301-9.725 6.053-19.961 10.336-30.593 12.815l42.718-1.1.025 1-.025-1c17.396-.448 33.97-5.502 49.263-15.021 52.412-32.624 71.418-107.867 42.367-167.729-19.372-39.917-55.866-64.398-95.684-64.398-.833 0-1.667.011-2.504.032l-42.652 1.099z" fill="#111"/><path d="m395.851 1059.455-62.445 1.608-120.561-248.426 62.444-1.608z" fill="#3658c1"/><path d="M333.406 1062.063a.998.998 0 0 1-.899-.563L211.945 813.073a1.001 1.001 0 0 1 .874-1.436l62.444-1.607h.025c.383 0 .732.218.899.563l120.563 248.426a1.001 1.001 0 0 1-.874 1.436l-62.445 1.608h-.025zM214.422 813.596l119.603 246.451 60.25-1.552-119.604-246.45z" fill="#111"/><path d="M270.638 8.965c-16.913.435-33.962 5.349-49.784 15.197-52.92 32.941-72.054 108.607-42.738 169.015 9.9 20.399 24.069 36.422 40.518 47.469l62.445-1.608c-16.449-11.047-30.618-27.07-40.518-47.469-29.316-60.408-10.182-136.074 42.738-169.015 15.822-9.848 32.871-14.762 49.784-15.198l-62.445 1.608z" fill="url(#e)"/><path d="M218.635 241.646c-.198 0-.393-.059-.558-.17-17.112-11.493-31.242-28.043-40.86-47.863-29.484-60.755-10.146-137.151 43.109-170.301 15.407-9.59 32.796-14.897 50.286-15.348l62.445-1.608h.025a1 1 0 0 1 .025 1.999c-17.38.448-33.961 5.51-49.281 15.047-52.412 32.625-71.418 107.867-42.366 167.729 9.464 19.502 23.356 35.78 40.176 47.076a1 1 0 0 1-.533 1.829l-62.444 1.608h-.025zM270.638 8.965l.025 1c-17.379.448-33.959 5.51-49.28 15.047-52.412 32.625-71.417 107.868-42.367 167.729 9.415 19.399 23.213 35.609 39.913 46.898l59.063-1.521c-15.978-11.395-29.19-27.277-38.33-46.112-29.485-60.755-10.146-137.151 43.108-170.3 9.66-6.013 20.102-10.343 30.856-12.847l-42.964 1.106-.025-1z" fill="#111"/><path d="m184.006 622.933-62.444 1.608L1 376.114l62.445-1.608z" fill="#3658c1"/><path d="M121.561 625.541a.998.998 0 0 1-.899-.563L.101 376.551a1.001 1.001 0 0 1 .874-1.436l62.444-1.608h.025c.383 0 .732.218.899.563l120.562 248.426a1.001 1.001 0 0 1-.874 1.436l-62.444 1.608h-.025zM2.577 377.074l119.603 246.45 60.249-1.552-119.603-246.45-60.249 1.552z" fill="#111"/><path d="M63.445 374.506 1 376.114l217.635-135.468 62.444-1.608z" fill="#fff"/><path d="M1 377.114a1 1 0 0 1-.528-1.849l217.635-135.468a.992.992 0 0 1 .503-.15l62.444-1.608c.443-.028.854.28.983.712a1 1 0 0 1-.43 1.136L63.973 375.356a.992.992 0 0 1-.503.15l-62.444 1.608h-.025zm217.933-135.476L4.65 375.02l58.496-1.506 214.282-133.381-58.496 1.506zM63.444 374.507h.01z" fill="#111"/><path d="M283.299 22.554c52.92-32.941 119.58-10.676 148.896 49.731 9.9 20.399 14.249 42.534 13.667 64.183L663.496 1l120.562 248.426c-19.039-.806-38.473 3.993-56.344 15.117-52.92 32.941-72.054 108.607-42.738 169.015s95.975 82.672 148.896 49.732c17.871-11.124 31.865-27.132 41.469-45.767l120.562 248.426-217.635 135.468c16.449 11.047 30.618 27.07 40.518 47.469 29.316 60.408 10.183 136.075-42.738 169.015-52.92 32.941-119.58 10.676-148.896-49.732-9.9-20.399-14.249-42.534-13.667-64.182L395.85 1059.455 275.288 811.029c19.039.806 38.473-3.993 56.344-15.117 52.92-32.941 72.054-108.607 42.738-169.015s-95.975-82.672-148.896-49.731c-17.871 11.124-31.865 27.132-41.469 45.767L63.443 374.507l217.635-135.468c-16.449-11.047-30.618-27.07-40.518-47.469-29.316-60.408-10.182-136.074 42.738-169.015z" fill="#3A86FF"/><path d="M395.851 1060.455a1.002 1.002 0 0 1-.899-.563L274.389 811.466a1 1 0 0 1 .941-1.436c19.435.82 38.722-4.353 55.773-14.967 52.412-32.624 71.418-107.867 42.367-167.729-14.59-30.062-39.713-52.142-68.929-60.578-26.631-7.69-54.522-3.69-78.539 11.259-17.07 10.625-31.285 26.316-41.109 45.376-.174.336-.53.527-.9.542a1 1 0 0 1-.888-.563L62.543 374.944a1 1 0 0 1 .371-1.286l216.332-134.657c-16.54-11.451-30.207-27.668-39.586-46.995-29.485-60.755-10.146-137.151 43.108-170.3 24.504-15.252 52.969-19.332 80.152-11.482 29.759 8.593 55.335 31.055 70.171 61.626 9.348 19.261 14.107 40.932 13.805 62.796L662.968.151a.999.999 0 0 1 1.428.412l120.562 248.426a1 1 0 0 1-.941 1.436c-19.438-.823-38.721 4.352-55.773 14.967-52.411 32.625-71.417 107.868-42.367 167.729 14.59 30.062 39.713 52.142 68.929 60.578 26.628 7.69 54.521 3.691 78.54-11.259 17.07-10.626 31.285-26.317 41.108-45.376.174-.337.483-.552.9-.542.379.005.723.223.888.563l120.562 248.427a1 1 0 0 1-.371 1.286L780.101 821.455c16.54 11.451 30.208 27.668 39.587 46.994 29.484 60.756 10.146 137.152-43.109 170.301-24.504 15.253-52.969 19.331-80.151 11.482-29.76-8.593-55.336-31.055-70.172-61.626-9.348-19.261-14.107-40.933-13.805-62.795l-216.068 134.494a.998.998 0 0 1-.528.151zM276.913 812.084l119.354 245.935 216.69-134.881a1.002 1.002 0 0 1 1.528.876c-.597 22.168 4.095 44.202 13.566 63.719 14.589 30.062 39.712 52.142 68.928 60.578 26.629 7.69 54.521 3.691 78.54-11.259 52.412-32.624 71.418-107.867 42.367-167.73-9.465-19.501-23.357-35.779-40.177-47.075a1 1 0 0 1 .03-1.679l216.87-134.993L875.305 439.74c-9.947 18.586-24.058 33.912-40.905 44.399-24.506 15.253-52.972 19.331-80.152 11.482-29.759-8.593-55.336-31.055-70.172-61.626-29.484-60.755-10.146-137.151 43.109-170.301 16.908-10.524 35.972-15.813 55.248-15.323L663.081 2.436 446.39 137.317a1.002 1.002 0 0 1-1.528-.876c.597-22.17-4.095-44.204-13.566-63.72-14.589-30.062-39.712-52.142-68.927-60.578-26.63-7.688-54.522-3.691-78.541 11.259l-.528-.849.528.849c-52.412 32.624-71.417 107.867-42.366 167.729 9.464 19.502 23.356 35.78 40.176 47.076a1 1 0 0 1-.03 1.68L64.738 374.879l119.304 245.835c9.947-18.587 24.059-33.912 40.906-44.398 24.505-15.252 52.968-19.331 80.15-11.483 29.76 8.593 55.336 31.055 70.173 61.626 29.484 60.756 10.146 137.152-43.109 170.301-16.907 10.524-35.983 15.812-55.248 15.323z" fill="#111"/></svg></g><g transform="translate(2103.0 1221.0) rotate(0.0 -218.0 348.5) scale(-1.131303905593208 1.1331509236724493)"><svg width="385.396" height="615.099" viewBox="0 0 385.396 615.099"><path d="m347.634 408.376.005.011-.001-.019v.005c-1.314-46.138-4.183-71.92 1.38-95.704 2.367-8.852 6.226-16.576 12.155-28.433.14-.269.271-.536.405-.805 15.387-29.459 22.445-57.51 22.818-90.729-.104-7.454-.3-18.482-2.665-31.52-11.576-63.607-53.289-118.23-111.155-143.662C199.144-13.873 116.633.225 60.368 53.437 4.294 106.47-13.339 187.649 12.957 261.162c4.216 11.784 10.072 22.649 13.576 28.523.002-.026.005-.051.006-.078.032.055.058.111.09.166 17.264 28.705 37.727 49.454 66.248 67.188.14.091.27.184.414.274 11.044 7.22 18.221 11.916 24.709 18.371 17.604 19.661 21.375 30.682 45.511 74.486l-1.219-2.294 1.229 2.313-.01-.019c1.242 2.338 2.511 4.715 3.843 7.177l-.004-.013c6.651 12.531 15.075 21.535 27.234 29.116.082.052.161.105.245.156l.167.106c-.04-.024-.072-.051-.111-.075 5.793 3.522 16.098 5.389 30.377 4.935 35.45-1.127 81.928-16.112 103.811-33.47 4.745-3.763 7.938-7.328 9.677-10.593-.025.046-.044.091-.069.137l.079-.153.096-.187c6.66-12.68 9.373-24.692 8.778-38.852z" fill="#3A86FF"/><g fill="#111"><path d="M221.116 492.563c-11.826 0-20.938-1.716-26.527-5.015a1.21 1.21 0 0 1-.116-.061l-.366-.232c-12.358-7.706-20.858-16.782-27.598-29.45a1074.122 1074.122 0 0 1-3.861-7.204l-.01-.019-.013-.024c-5.608-10.179-10.043-18.449-13.955-25.745-12.719-23.719-17.982-33.536-31.415-48.538-6.382-6.348-13.594-11.063-24.511-18.201a8.288 8.288 0 0 1-.263-.173l-.151-.101c-28.629-17.8-49.146-38.595-66.489-67.396a.892.892 0 0 1-.167-.206c-2.549-4.271-8.979-15.618-13.659-28.699C-1.015 225.07-3.511 186.307 4.798 149.4c8.381-37.224 27.359-70.658 54.883-96.689C116.239-.778 199.178-14.951 270.978 16.605c28.447 12.502 53.803 32.496 73.326 57.82 19.4 25.164 32.682 55.102 38.41 86.579 2.425 13.364 2.586 24.833 2.682 31.685-.375 33.44-7.447 61.562-22.931 91.206l-.116.231c-.095.19-.189.38-.288.571-5.858 11.716-9.732 19.465-12.077 28.231-4.296 18.372-3.517 37.969-2.336 67.634.327 8.241.699 17.58.989 27.76v.004l.001.01v.062l-.001.022c.59 14.323-2.154 26.439-8.893 39.274l-.179.348h-.001l-.006.011a.745.745 0 0 1-.043.071c-1.873 3.409-5.175 7.003-9.819 10.686-21.99 17.443-68.824 32.555-104.4 33.686a135.92 135.92 0 0 1-4.18.067zm-25.704-6.854c5.868 3.565 16.183 5.221 29.819 4.787 35.212-1.119 81.518-16.037 103.223-33.254 4.527-3.59 7.695-7.049 9.416-10.28h.001l.007-.014a.15.15 0 0 1 .01-.017l.038-.074.047-.093c6.579-12.531 9.25-24.357 8.662-38.345a.902.902 0 0 1 .001-.104c-.289-10.143-.66-19.455-.987-27.673-1.187-29.828-1.971-49.533 2.396-68.199 2.404-8.992 6.314-16.813 12.234-28.652l.406-.806c15.337-29.365 22.34-57.208 22.711-90.292-.095-6.765-.255-18.13-2.649-31.331-5.671-31.163-18.82-60.803-38.026-85.715-19.319-25.06-44.406-44.843-72.547-57.211C199.11-12.796 117.028 1.229 61.056 54.164c-27.234 25.757-46.014 58.841-54.307 95.675-8.226 36.537-5.753 74.915 7.149 110.986 4.516 12.623 10.689 23.619 13.317 28.051a.915.915 0 0 1 .193.237l.058.106c17.206 28.614 37.536 49.233 65.939 66.893l.416.276c11.037 7.216 18.317 11.976 24.884 18.51 13.632 15.222 18.929 25.101 31.728 48.969 3.585 6.686 7.608 14.19 12.571 23.23.066.067.124.145.171.233l1.219 2.294a1031.042 1031.042 0 0 0 3.84 7.164c6.572 12.381 14.862 21.244 26.881 28.736l.235.15.056.032.003.002.003.001zm123.553 102.385c-14.233.453-32.893 6.469-41.679 13.438-5.817 4.614-5.847 8.488-.985 10.485 14.698 5.571 38.416-.81 50.51-10.023 2.863-2.304 4.222-4.016 5.121-5.149 4.111-5.396-.9-9.135-12.967-8.751z"/><path d="M289.1 615.083c-4.757 0-9.263-.657-13.154-2.132-3.086-1.267-3.943-3.053-4.124-4.33-.34-2.406 1.289-5.056 4.843-7.874 8.915-7.071 27.877-13.196 42.269-13.654 8.061-.257 13.365 1.284 14.938 4.338.634 1.229.949 3.271-1.145 6.018-.94 1.185-2.341 2.95-5.289 5.322-9.128 6.955-24.752 12.312-38.338 12.312zm29.897-25.99c-14.028.446-32.461 6.377-41.091 13.222-2.874 2.28-4.332 4.42-4.104 6.027.194 1.375 1.673 2.254 2.878 2.749 14.367 5.445 37.639-.84 49.525-9.894 2.753-2.217 4.07-3.876 4.941-4.974 1.162-1.525 1.484-2.833.947-3.876-1.165-2.261-6.075-3.478-13.096-3.254zm-.032-.999h.01z"/></g><path d="M356.003 541.64c-5.626-2.294-14.121-3.444-25.186-3.092-12.801.407-27.154 2.764-41.105 6.44-21.858 5.76-42.732 14.761-55.112 24.581-13.394 10.624-13.498 19.551-2.561 24.088l44.138 18.309c-4.738-1.965-3.264-5.66.958-9.482 5.075-4.594 14.405-8.153 23.873-10.648 6.043-1.593 12.261-2.614 17.806-2.79 4.793-.152 8.473.346 10.91 1.34 3.687 1.504 4.681 3.189 2.232 6.427l28.85-38.136c5.653-7.475 3.708-13.566-4.803-17.037z" fill="#3658c1"/><path d="M276.176 612.966a.996.996 0 0 1-.383-.077l-44.138-18.309c-4.983-2.067-7.89-5.109-8.405-8.798-.697-4.999 3.012-10.877 10.728-16.997 11.993-9.513 32.732-18.77 55.479-24.765 14.562-3.838 28.854-6.076 41.328-6.473 10.833-.344 19.675.751 25.597 3.166 4.627 1.887 7.43 4.508 8.331 7.791.892 3.244-.155 6.87-3.109 10.775l-28.845 38.129-.005.007a1 1 0 0 1-1.595-1.207c.903-1.194 1.272-2.124 1.097-2.764-.197-.718-1.148-1.416-2.908-2.134-2.382-.971-6.02-1.409-10.5-1.266-5.298.168-11.378 1.122-17.584 2.757-7.686 2.026-17.994 5.478-23.457 10.422-2.522 2.283-3.78 4.3-3.542 5.677.146.846.915 1.564 2.286 2.135l.01.004a1.003 1.003 0 0 1-.385 1.927zm58.447-73.48c-1.229 0-2.486.02-3.774.061-12.327.392-26.464 2.608-40.883 6.408-22.492 5.927-42.958 15.048-54.746 24.398-7.129 5.655-10.583 10.895-9.988 15.154.52 3.724 4.196 5.985 7.189 7.227l39.876 16.541a.287.287 0 0 1-.005-.031c-.37-2.137 1.033-4.661 4.171-7.501 5.761-5.215 16.389-8.791 24.289-10.874 6.35-1.673 12.585-2.649 18.029-2.822 4.774-.151 8.682.337 11.32 1.413 1.49.608 3.231 1.486 3.908 2.98l25.997-34.366c2.561-3.384 3.494-6.425 2.776-9.039-.728-2.652-3.136-4.828-7.158-6.469-4.972-2.028-12.181-3.08-21.001-3.08z" fill="#111"/><path d="M232.161 593.708c-5.706-2.478-13.66-7.012-16.844-17.732-1.367-5.036 2.119-11.397 11.009-18.448 21.974-17.43 68.646-32.477 104.243-33.609 21.197-.674 33.688 3.738 35.685 11.098 2.659 10.732-1.787 18.579-5.363 23.547 9.371-12.253-2.191-20.902-30.075-20.015-32.857 1.045-75.935 14.934-96.217 31.022-13.444 10.662-13.499 19.616-2.438 24.137" fill="#111"/><path d="M232.161 594.708a.987.987 0 0 1-.378-.075 23.538 23.538 0 0 1-1.723-.783c-5.677-2.713-12.708-7.507-15.703-17.59-1.538-5.669 2.388-12.41 11.347-19.516 22.082-17.515 69.109-32.689 104.832-33.825 21.079-.67 34.458 3.643 36.683 11.836 2.437 9.834-.839 17.297-4.178 22.441a22.347 22.347 0 0 1-1.356 1.975 1 1 0 0 1-1.606-1.191c.438-.609.891-1.263 1.341-1.962 1.85-3.099 2.172-5.86.954-8.23-2.928-5.694-14.721-8.775-31.525-8.24-32.622 1.037-75.521 14.857-95.629 30.806-7.139 5.663-10.593 10.908-9.986 15.17.442 3.114 3.093 5.206 5.719 6.537.552.263 1.089.506 1.607.731a1 1 0 0 1-.399 1.916zm102.526-69.857c-1.327 0-2.688.022-4.086.066-35.358 1.124-81.857 16.104-103.654 33.393-8.164 6.477-11.952 12.657-10.665 17.403 1.55 5.216 4.289 8.915 7.334 11.606a8.4 8.4 0 0 1-.362-1.515c-.711-5.004 2.997-10.889 10.725-17.018 20.394-16.176 63.821-30.189 96.807-31.238 18.139-.577 29.981 2.735 33.368 9.325.297.577.558 1.245.727 2.001 1.233-3.827 1.705-8.368.404-13.618-1.792-6.594-13.122-10.405-30.598-10.405z" fill="#111"/><path d="M340.042 439.664c-.47-1.709-1.509-3.258-3.094-4.62-5.199-4.467-16.278-6.921-32.437-6.407-18.045.574-38.947 4.738-58.008 10.978-18.386 6.019-35.058 13.969-45.803 22.491-8.838 7.01-12.313 13.335-10.98 18.311l25.58 95.496c-1.338-4.996 2.151-11.348 11.025-18.387 10.789-8.558 27.531-16.541 45.993-22.585 19.141-6.266 40.13-10.448 58.25-11.024 16.226-.516 27.35 1.948 32.571 6.434 1.592 1.367 2.635 2.923 3.107 4.639z" fill="#3658c1"/><path d="M215.299 576.914a1 1 0 0 1-.965-.742l-.002-.008-25.578-95.488c-1.498-5.596 2.418-12.288 11.325-19.353 10.469-8.304 26.845-16.351 46.112-22.658 20.016-6.552 40.716-10.469 58.287-11.028 15.789-.502 27.547 1.859 33.121 6.648 1.738 1.494 2.885 3.214 3.406 5.113l26.205 95.327a1 1 0 1 1-1.928.53l-.004-.013c-.418-1.511-1.357-2.901-2.791-4.133-5.216-4.482-16.548-6.681-31.888-6.193-17.46.555-38.048 4.453-57.971 10.975-19.128 6.262-35.353 14.224-45.684 22.418-8.149 6.465-11.942 12.623-10.682 17.342l.001.003a1 1 0 0 1-.964 1.26zm93.333-147.344c-1.328 0-2.692.022-4.089.066-17.388.553-37.889 4.434-57.729 10.929-19.049 6.236-35.205 14.164-45.493 22.325-8.116 6.438-11.894 12.571-10.636 17.269l24.043 89.757c1.458-4.099 5.155-8.556 10.976-13.172 10.512-8.338 26.956-16.418 46.303-22.752 20.1-6.58 40.886-10.512 58.529-11.073 15.782-.501 27.54 1.843 33.17 6.603l-24.628-89.592c-.415-1.509-1.351-2.897-2.781-4.126-4.72-4.055-14.461-6.234-27.665-6.234z" fill="#111"/></svg></g><g transform="translate(589.0 421.0) rotate(0.0 168.0 212.0) scale(0.9977728285077951 0.99844581547591)"><svg width="336.75" height="424.66" viewBox="0 0 336.75 424.66"><g style="fill:none;isolation:isolate"><g><path style="fill:#3a86ff" d="m295.823 312.621 39.927 65.941-59.502 42.751-39.927-65.941 59.502-42.751z"/><path d="M276.248 422.314a1.002 1.002 0 0 1-.855-.482l-39.927-65.941a1 1 0 0 1 .272-1.33l59.501-42.751a1.002 1.002 0 0 1 1.439.294l39.927 65.941a1 1 0 0 1-.272 1.33l-59.501 42.751a1 1 0 0 1-.583.188Zm-38.593-66.668 38.888 64.225 57.873-41.581-38.888-64.225-57.873 41.581Z" style="fill:#111"/></g><g><path style="fill:#3658c1" d="m276.248 421.313-27.621 2.347-39.927-65.942 27.621-2.346 39.927 65.941z"/><path d="M248.627 424.66a.999.999 0 0 1-.855-.482l-39.927-65.941a1.001 1.001 0 0 1 .771-1.515l27.621-2.346a.992.992 0 0 1 .94.479l39.927 65.941a1.001 1.001 0 0 1-.771 1.515l-27.621 2.346a1.2 1.2 0 0 1-.084.003Zm-38.237-66.082 38.771 64.033 25.397-2.157-38.771-64.033-25.397 2.157Z" style="fill:#111"/></g><g><path style="fill:#fff" d="m236.321 355.372-27.621 2.346 59.501-42.751 27.622-2.346-59.502 42.751z"/><path d="M208.699 358.718a1 1 0 0 1-.584-1.812l59.501-42.751c.146-.105.319-.169.499-.185l27.621-2.346a1.001 1.001 0 0 1 .668 1.809l-59.501 42.751a1.009 1.009 0 0 1-.499.185l-27.621 2.346a1.207 1.207 0 0 1-.085.003Zm59.861-42.778-56.333 40.475 23.734-2.016 56.333-40.475-23.734 2.016Zm-32.24 39.432h.01-.01Z" style="fill:#111"/></g></g><g style="fill:none;isolation:isolate"><g><path d="M197.093 294.245c-26.984-37.66-28.177-68.878-9.425-111.231 17.326-39.904 18.841-58.12 4.853-81.221-8.776-14.494-22.654-21.52-38.087-20.209l-27.621 2.346c15.433-1.311 29.311 5.715 38.087 20.208 13.987 23.101 12.472 41.317-4.853 81.221-18.753 42.354-17.56 73.572 9.425 111.231l6.774 10.343 27.621-2.346-6.774-10.343Z" style="fill:#3658c1"/><path d="M176.246 307.934a.998.998 0 0 1-.836-.452l-6.774-10.343c-26.313-36.721-28.984-68.184-9.503-112.184 17.341-39.939 18.443-57.951 4.913-80.298-8.375-13.833-21.908-21.025-37.147-19.73a1.001 1.001 0 0 1-.169-1.993h.008l27.613-2.346c16.018-1.355 30.242 6.179 39.027 20.687 13.946 23.033 12.871 41.456-4.792 82.137-19.151 43.254-16.537 74.164 9.32 110.25a.422.422 0 0 1 .023.035l6.774 10.343a1 1 0 0 1-.751 1.545l-27.621 2.346a1.2 1.2 0 0 1-.084.003ZM139.68 83.841c10.606 2.5 19.751 9.333 26.077 19.78 13.946 23.033 12.871 41.456-4.792 82.137-19.151 43.254-16.538 74.164 9.32 110.25l6.471 9.879 25.356-2.154-5.844-8.923c-26.323-36.747-28.992-68.21-9.514-112.202 17.341-39.939 18.443-57.951 4.913-80.298-8.375-13.833-21.913-21.025-37.147-19.73l-14.84 1.26Z" style="fill:#111"/></g><g><path d="M93.967 30.385C158.082-15.681 224.34-6.617 259.094 50.781c22.562 37.263 22.001 75.087 2.882 118.416-18.236 40.544-19.153 58.708-4.719 82.547l6.111 10.093-59.502 42.751-6.774-10.343c-26.984-37.659-28.177-68.877-9.425-111.231 17.326-39.904 18.841-58.12 4.853-81.221-13.987-23.101-40.934-27.23-66.483-8.873-25.777 18.521-32.16 48.398-16.947 76.661l1.876 3.098-60.753 43.65-1.876-3.098C11.993 150.586 25.158 79.824 93.967 30.385Z" style="fill:#3a86ff"/><path d="M203.867 305.588a.999.999 0 0 1-.836-.452l-6.774-10.343c-26.313-36.721-28.984-68.184-9.503-112.184 17.341-39.939 18.443-57.952 4.913-80.298-6.25-10.323-15.183-16.93-25.833-19.107-12.329-2.521-26.254 1.218-39.211 10.528-25.066 18.01-31.602 47.596-16.65 75.375l1.851 3.054a1 1 0 0 1-.272 1.33l-60.753 43.651a1.003 1.003 0 0 1-1.439-.294l-1.876-3.098C9.29 147.92 26.882 77.354 93.384 29.573 127.154 5.31 163.15-4.495 194.737 1.962c26.853 5.49 49.403 22.192 65.212 48.301 21.942 36.239 22.877 74.159 2.942 119.338-18.137 40.323-19.164 57.868-4.778 81.625l6.111 10.093a1 1 0 0 1-.272 1.33L204.451 305.4a.998.998 0 0 1-.583.188Zm-45.74-225.15c2.755 0 5.463.267 8.107.807 11.211 2.292 20.597 9.218 27.144 20.03 13.946 23.032 12.872 41.456-4.792 82.137-19.151 43.254-16.537 74.163 9.32 110.25l6.226 9.504 57.903-41.603-5.633-9.302c-14.636-24.172-13.59-42.896 4.662-83.476 19.646-44.522 18.749-81.856-2.826-117.488-15.512-25.619-37.609-42.002-63.901-47.377-31.037-6.345-66.475 3.341-99.786 27.275l-.583-.812.583.812c-65.593 47.13-82.97 116.69-45.348 181.535l1.306 2.157 59.124-42.48-1.397-2.307c-15.483-28.763-8.714-59.359 17.219-77.991 10.662-7.661 22.001-11.67 32.672-11.67Z" style="fill:#111"/></g><g><path d="M138.478 3.729c-23.125 1.964-47.783 11.508-72.132 29.002C-2.463 82.17-15.628 152.932 20.718 215.578l1.876 3.098 27.621-2.346-1.876-3.098C11.993 150.586 25.158 79.824 93.967 30.385 118.317 12.89 142.975 3.347 166.1 1.383l-27.621 2.346Z" style="fill:#fff"/><path d="M22.593 219.676a.999.999 0 0 1-.855-.482l-1.876-3.098C-18.331 150.266-.74 79.7 65.763 31.919 89.53 14.842 114.646 4.75 138.394 2.732L166.015.386a1 1 0 1 1 .169 1.993c-23.389 1.987-48.159 11.952-71.633 28.818-65.593 47.128-82.97 116.688-45.348 181.533l1.867 3.082a1.001 1.001 0 0 1-.771 1.515l-27.621 2.346a1.2 1.2 0 0 1-.084.003ZM138.563 4.725C115.174 6.712 90.404 16.677 66.93 33.543 1.337 80.671-16.04 150.231 21.582 215.076l1.545 2.551 25.397-2.157-1.042-1.72C9.29 147.92 26.882 77.354 93.384 29.573c16.84-12.1 34.356-20.693 51.585-25.392l-6.406.544Z" style="fill:#111"/></g></g></svg></g></svg>