<svg xmlns="http://www.w3.org/2000/svg" viewBox="0 0 1654.048 1207.887" width="1654.048" height="1207.887">
  <g
    transform="translate(614.0 685.0) rotate(0.0 827.0 603.5) scale(0.9999709802859409 0.9992656597844004)">
    <svg width="1654.048" height="1207.887" viewBox="0 0 1654.048 1207.887">
      <linearGradient id="a" gradientUnits="userSpaceOnUse" x1="897.013" x2="1238.137" y1="235.427"
        y2="1218.922">
        <stop offset=".315" stop-color="#3A86FF" />
        <stop offset="1" stop-color="#3658c1" />
      </linearGradient>
      <linearGradient id="b" gradientUnits="userSpaceOnUse" x1="1444.623" x2="1545.878" y1="747.079"
        y2="1088.817">
        <stop offset="0" stop-color="#3A86FF" />
        <stop offset="1" stop-color="#3658c1" />
      </linearGradient>
      <path
        d="M177.534 330.903 99.911 624.554C27.64 598.91-14.315 515.167 6.209 437.524l3.294-12.462c20.524-77.643 95.76-119.803 168.031-94.159z"
        fill="#fff" />
      <path
        d="M99.911 625.554a.983.983 0 0 1-.334-.058C26.938 599.722-15.38 515.283 5.242 437.268l3.294-12.462c10.324-39.057 34.434-70.292 67.888-87.952 31.332-16.54 67.359-18.989 101.444-6.894a1 1 0 0 1 .632 1.198l-77.623 293.651a.997.997 0 0 1-.967.745zm34.629-301.168c-19.771 0-39.256 4.774-57.183 14.237-32.954 17.395-56.708 48.184-66.888 86.694l-3.294 12.462c-20.266 76.667 20.992 159.603 92.048 185.464L176.33 331.54c-13.768-4.78-27.851-7.155-41.791-7.155z"
        fill="#111" />
      <path d="m177.534 330.903 199.743-47.048-77.623 293.651-199.743 47.049z" fill="#3A86FF" />
      <path
        d="M99.911 625.554a1 1 0 0 1-.967-1.256l77.623-293.651a1 1 0 0 1 .737-.718l199.743-47.048a.998.998 0 0 1 1.196 1.229L300.62 577.761a1 1 0 0 1-.737.718L100.14 625.527a.995.995 0 0 1-.229.027zm78.436-293.815-77.043 291.459 197.537-46.529 77.043-291.459z"
        fill="#111" />
      <path
        d="m106.391 326.668 199.743-47.048c22.619-5.328 47.046-4.315 71.143 4.235l-199.743 47.048c-24.097-8.551-48.524-9.563-71.143-4.235"
        fill="#3A86FF" />
      <path
        d="M177.534 331.903a.978.978 0 0 1-.334-.058c-23.081-8.189-47.486-9.644-70.579-4.205a1 1 0 1 1-.459-1.947l199.743-47.048c23.468-5.528 48.263-4.053 71.707 4.266a1 1 0 0 1-.105 1.915l-199.743 47.048a.995.995 0 0 1-.229.027zm-43.002-9.491c14.45 0 28.995 2.495 43.059 7.45l196.067-46.183c-22.103-7.195-45.294-8.269-67.294-3.087l-178.242 41.984c2.133-.109 4.271-.164 6.41-.164z"
        fill="#111" />
      <g fill="none">
        <path
          d="M1401.555 399.293 648.811 132.195c-39.056-13.858-78.642-15.5-115.294-6.867L334.311 172.25c36.652-8.633 76.238-6.992 115.294 6.867l752.744 267.098c117.115 41.556 185.096 177.246 151.837 303.065l-77.414 292.862c-22.169 83.866-83.724 142.181-156.992 159.439l199.206-46.922c73.269-17.258 134.824-75.573 156.992-159.439l77.414-292.862c33.259-125.82-34.722-261.509-151.837-303.066z"
          fill="url(#a)" />
        <path
          d="M1119.778 1202.582a1 1 0 0 1-.228-1.973c75.184-17.709 135.057-78.528 156.255-158.722l77.415-292.862c33.076-125.129-34.754-260.546-151.205-301.867L449.27 180.059c-37.521-13.313-77.193-15.677-114.73-6.836a1 1 0 1 1-.459-1.947l199.207-46.922c37.91-8.929 77.973-6.545 115.857 6.898l752.744 267.098c56.887 20.185 104.074 62.954 132.868 120.429 28.788 57.46 35.749 122.747 19.602 183.835l-77.415 292.862c-10.745 40.65-31.353 77.011-59.595 105.15-27.422 27.323-61.356 46.344-98.135 55.007l-199.206 46.921a.957.957 0 0 1-.23.027zM379.908 165.975c23.503 0 47.163 4.085 70.03 12.199l752.745 267.098c56.887 20.185 104.073 62.954 132.868 120.428 28.788 57.46 35.749 122.748 19.601 183.835l-77.415 292.862c-10.745 40.651-31.353 77.011-59.594 105.151-20.557 20.482-44.775 36.3-71.106 46.585l171.719-40.447c75.183-17.709 135.057-78.528 156.254-158.722l77.415-292.862c33.076-125.13-34.754-260.548-151.205-301.868L648.476 133.137c-37.521-13.313-77.193-15.678-114.73-6.836L361.892 166.78a201.576 201.576 0 0 1 18.016-.805z"
          fill="#111" />
        <path
          d="M1202.349 446.215c117.115 41.556 185.096 177.246 151.837 303.065l-77.414 292.862c-33.259 125.82-155.165 194.131-272.279 152.575L251.748 927.62C134.617 886.058 66.653 750.374 99.911 624.555l77.414-292.862c33.259-125.82 155.148-194.137 272.279-152.575l752.744 267.098z"
          fill="#fff" />
        <path
          d="M1074.171 1207.902c-23.363 0-46.962-4.063-70.013-12.242L251.413 928.562c-56.893-20.188-104.082-62.957-132.874-120.431-28.784-57.457-35.743-122.743-19.595-183.833l77.414-292.862c8.411-31.818 22.516-60.499 41.923-85.245 18.754-23.912 41.554-43.053 67.769-56.891 50.612-26.717 108.816-30.669 163.888-11.127l752.745 267.098c56.887 20.185 104.073 62.954 132.868 120.428 28.788 57.46 35.749 122.748 19.601 183.835l-77.414 292.862c-8.41 31.816-22.516 60.496-41.924 85.241-18.753 23.911-41.555 43.051-67.769 56.889-29.429 15.535-61.423 23.374-93.875 23.374zM379.92 167.932c-32.132 0-63.803 7.759-92.936 23.138-53.549 28.267-92.15 78.298-108.692 140.877l-77.414 292.862c-33.077 125.13 34.753 260.547 151.204 301.868l752.744 267.098c54.536 19.352 112.17 15.438 162.285-11.016 53.551-28.269 92.152-78.298 108.693-140.873l77.414-292.862c33.077-125.13-34.754-260.547-151.205-301.868L449.27 180.059c-22.833-8.102-46.211-12.127-69.35-12.127z"
          fill="#111" />
        <path
          d="M1189.211 475.824 446.17 212.169c-100.999-35.838-206.151 23.07-234.838 131.594l-77.414 292.863c-28.687 108.524 29.959 225.553 130.958 261.391l743.042 263.655c101.016 35.844 206.151-23.07 234.838-131.594l77.414-292.863c28.687-108.524-29.942-225.547-130.958-261.39z"
          fill="#3658c1" />
        <path
          d="M1068.02 1173.182c-20.169 0-40.538-3.506-60.438-10.568L264.54 898.959c-101.329-35.955-160.36-153.751-131.59-262.588l77.414-292.863c7.259-27.459 19.433-52.211 36.184-73.569 16.187-20.637 35.867-37.157 58.493-49.101 43.692-23.063 93.931-26.476 141.462-9.611l743.042 263.655c101.329 35.955 160.36 153.751 131.59 262.588l-77.414 292.863c-7.259 27.461-19.433 52.214-36.184 73.572-16.187 20.638-35.866 37.159-58.492 49.103-25.399 13.407-53.018 20.173-81.026 20.174zM386.078 202.663c-27.694 0-54.991 6.688-80.103 19.944-46.153 24.363-79.421 67.481-93.677 121.412l-77.414 292.863c-28.51 107.855 29.954 224.578 130.326 260.193l743.042 263.655c47.004 16.678 96.674 13.308 139.861-9.49 46.151-24.362 79.419-67.482 93.676-121.417l77.414-292.864c28.51-107.855-29.954-224.577-130.326-260.192L445.835 213.111c-19.673-6.98-39.819-10.449-59.757-10.449z"
          fill="#111" />
        <path
          d="M461.192 406.13a73.503 73.503 0 0 0-22.448-4.218c-13.114-.367-25.764 2.778-37.36 8.391-8.701 4.208-16.861 9.804-24.422 16.511-11.341 10.049-21.352 22.582-29.805 37.085-8.415 14.495-15.255 30.965-20.019 48.989-3.695 13.978 3.86 29.057 16.871 33.674s26.558-2.975 30.253-16.953c3.613-13.668 8.788-25.945 14.899-36.354 4.59-7.82 9.71-14.554 15.003-20.052 7.955-8.26 16.307-13.61 23.763-16.126 3.727-1.249 7.24-1.837 10.497-1.877 3.292-.028 6.332.473 9.385 1.557 2.697.957 5.199 2.303 7.619 4.099 4.202 3.125 8.27 7.738 11.894 14.107 2.693 4.763 5.097 10.48 6.993 16.993 2.822 9.751 4.457 21.255 4.441 33.668-.021 12.432-1.67 25.759-5.242 39.203-3.695 13.978 3.86 29.057 16.871 33.674s26.558-2.975 30.253-16.953c4.841-18.315 7.134-36.678 7.092-54.414-.026-13.305-1.388-26.266-4.065-38.598-4.036-18.495-10.998-35.676-21.366-50.219-5.187-7.262-11.23-13.812-18.144-19.315-6.896-5.497-14.651-9.922-22.963-12.872"
          fill="#fff" />
        <path
          d="M498.127 600.855c-2.695 0-5.417-.468-8.076-1.412-13.471-4.779-21.322-20.423-17.503-34.872 3.435-12.93 5.188-26.034 5.209-38.949.015-11.839-1.507-23.385-4.402-33.389-1.819-6.249-4.142-11.895-6.903-16.779-3.373-5.929-7.283-10.571-11.62-13.797-2.344-1.739-4.751-3.034-7.357-3.958a25.91 25.91 0 0 0-9.042-1.499c-3.267.041-6.696.655-10.188 1.826-7.827 2.641-15.906 8.13-23.361 15.872-5.442 5.651-10.442 12.334-14.861 19.864-6.337 10.795-11.315 22.942-14.794 36.103-1.918 7.256-6.404 13.063-12.633 16.35-5.848 3.087-12.567 3.544-18.921 1.29-13.47-4.78-21.322-20.423-17.503-34.872 4.694-17.758 11.463-34.323 20.121-49.235 8.592-14.742 18.688-27.302 30.006-37.332 7.802-6.919 16.095-12.525 24.649-16.663 12.375-5.99 25.1-8.85 37.823-8.49a74.348 74.348 0 0 1 22.755 4.275c8.253 2.928 16.077 7.313 23.252 13.032 6.757 5.378 12.925 11.944 18.334 19.516 10.032 14.072 17.275 31.092 21.529 50.587 2.686 12.374 4.062 25.431 4.088 38.81.044 18.226-2.353 36.62-7.125 54.671-1.918 7.256-6.404 13.062-12.633 16.35a23.152 23.152 0 0 1-10.846 2.701zm-59.45-146.656c3.308 0 6.407.529 9.468 1.615 2.796.992 5.374 2.378 7.88 4.238 4.562 3.393 8.655 8.242 12.167 14.416 2.838 5.021 5.221 10.81 7.083 17.209 2.947 10.184 4.497 21.922 4.481 33.949-.021 13.088-1.796 26.363-5.276 39.458-3.56 13.466 3.725 28.035 16.239 32.475 5.821 2.066 11.971 1.649 17.319-1.173 5.729-3.024 9.86-8.384 11.633-15.092 4.727-17.883 7.102-36.104 7.058-54.156-.026-13.238-1.386-26.154-4.042-38.389-4.196-19.228-11.33-36-21.203-49.851-5.3-7.42-11.34-13.851-17.952-19.113-7.002-5.581-14.631-9.857-22.675-12.711a72.352 72.352 0 0 0-22.143-4.161c-12.405-.345-24.813 2.442-36.896 8.292-8.389 4.057-16.529 9.561-24.194 16.359-11.16 9.889-21.12 22.284-29.604 36.841-8.567 14.757-15.268 31.156-19.916 48.741-3.56 13.467 3.725 28.036 16.238 32.476 5.821 2.064 11.971 1.649 17.318-1.173 5.729-3.024 9.86-8.384 11.633-15.092 3.525-13.337 8.573-25.652 15.003-36.605 4.499-7.665 9.594-14.475 15.146-20.239 7.677-7.972 16.032-13.636 24.164-16.379 3.691-1.238 7.325-1.887 10.805-1.93h.264z"
          fill="#111" />
        <path
          d="M810.402 850.616c-8.606-3.054-18.228-.907-24.683 6.387-.399.394-2.363 2.329-5.965 4.741-6.02 3.963-16.464 9.288-32.492 11.314-8.009 1.025-17.462 1.199-28.554-.146-11.08-1.32-23.825-4.208-38.35-9.341-20.64-7.344-36.04-16.117-47.636-24.896-8.69-6.572-15.263-13.151-20.291-19.26-7.544-9.155-11.673-17.258-13.899-22.732-1.111-2.746-1.754-4.809-2.058-5.973-.163-.575-.233-.938-.265-1.031-1.845-10.191-8.766-18.176-17.348-21.221-3.467-1.23-7.203-1.654-10.988-1.092-13.311 1.995-22.166 15.418-19.79 30.015.262 1.607 1.348 7.394 4.512 15.853 2.368 6.343 5.918 14.18 11.151 22.814 7.844 12.93 19.534 27.602 36.384 41.416 16.814 13.805 38.67 26.718 66.687 36.66l.163.058c24.948 8.872 47.016 12.636 66.112 12.973 14.307.273 26.935-1.386 37.81-4.125 16.294-4.086 28.593-10.605 36.985-16.378 8.391-5.774 12.93-10.801 14.035-12.103 9.041-10.546 8.192-27.412-1.889-37.707-2.862-2.92-6.164-4.994-9.63-6.224"
          fill="#fff" />
        <path
          d="M736.132 928.181c-1.017 0-2.036-.009-3.059-.029-20.796-.368-43.146-4.752-66.428-13.031l.172-1-.334.942c-25.86-9.176-48.398-21.567-66.988-36.83-14.948-12.253-27.263-26.273-36.604-41.67-4.584-7.565-8.364-15.298-11.232-22.983-3.204-8.565-4.302-14.444-4.562-16.042-1.25-7.683.525-15.505 4.871-21.462 3.878-5.315 9.474-8.76 15.757-9.702 3.867-.574 7.725-.19 11.471 1.139 9.226 3.274 16.115 11.679 17.989 21.941.015.054.032.124.052.21.041.17.103.432.199.771.197.753.777 2.792 2.023 5.871 2.122 5.216 6.229 13.35 13.745 22.471 5.61 6.818 12.38 13.244 20.122 19.099 13.059 9.886 28.995 18.213 47.368 24.751 13.446 4.752 26.277 7.878 38.132 9.29 10.041 1.218 19.564 1.267 28.309.147 12.418-1.57 23.207-5.325 32.069-11.158 3.073-2.058 4.961-3.776 5.813-4.617 6.521-7.372 16.394-9.926 25.72-6.617 3.737 1.326 7.104 3.502 10.01 6.466 10.413 10.633 11.28 28.155 1.934 39.058-1.19 1.401-5.744 6.438-14.227 12.275-7.481 5.146-20.026 12.191-37.309 16.524-11.031 2.779-22.797 4.184-35.013 4.184zM571.198 768.118a21.67 21.67 0 0 0-3.178.236c-5.75.862-10.877 4.023-14.437 8.903-4.033 5.527-5.678 12.803-4.513 19.962.253 1.552 1.322 7.269 4.462 15.663 2.825 7.569 6.549 15.188 11.069 22.646 9.223 15.202 21.39 29.05 36.163 41.16 18.411 15.116 40.747 27.393 66.388 36.491l.163.058c23.078 8.207 45.214 12.552 65.795 12.916 13.132.255 25.769-1.128 37.548-4.095 16.994-4.261 29.317-11.179 36.662-16.232 8.494-5.844 13.019-10.96 13.839-11.926 8.691-10.139 7.864-26.449-1.841-36.36-2.69-2.745-5.802-4.757-9.25-5.981-8.54-3.03-17.583-.691-23.6 6.106-.948.939-2.941 2.755-6.158 4.91-9.126 6.007-20.201 9.867-32.923 11.476-8.908 1.141-18.598 1.091-28.8-.146-12-1.429-24.975-4.589-38.562-9.391-18.568-6.607-34.685-15.032-47.906-25.041-7.866-5.949-14.75-12.484-20.459-19.423-7.676-9.315-11.879-17.644-14.054-22.99-1.291-3.189-1.898-5.326-2.099-6.097-.101-.355-.17-.645-.215-.834l-.037-.15c-.008-.03-.024-.09-.03-.121-1.734-9.579-8.133-17.418-16.698-20.458a21.828 21.828 0 0 0-7.328-1.281z"
          fill="#111" />
        <path
          d="M1083.032 626.779a73.685 73.685 0 0 0-22.466-4.224c-13.097-.362-25.748 2.784-37.343 8.397-8.701 4.208-16.86 9.805-24.422 16.511-11.34 10.049-21.368 22.577-29.805 37.085-8.415 14.495-15.254 30.966-20.018 48.989-3.695 13.978 3.859 29.057 16.871 33.674 13.011 4.617 26.558-2.975 30.253-16.953 3.613-13.668 8.788-25.945 14.898-36.354 4.59-7.82 9.693-14.56 15.004-20.051 7.954-8.261 16.307-13.61 23.763-16.126 3.726-1.25 7.223-1.843 10.497-1.877 3.291-.028 6.332.473 9.385 1.557 2.697.957 5.181 2.297 7.601 4.092 4.219 3.131 8.287 7.744 11.911 14.113 2.693 4.763 5.097 10.48 6.976 16.988 2.839 9.757 4.473 21.261 4.458 33.674-.021 12.432-1.687 25.753-5.242 39.203-3.695 13.978 3.86 29.057 16.871 33.674s26.558-2.975 30.253-16.953c4.841-18.315 7.135-36.678 7.092-54.414-.044-13.311-1.388-26.266-4.066-38.599-4.035-18.495-10.997-35.676-21.366-50.219-5.187-7.262-11.247-13.818-18.143-19.315-6.897-5.497-14.652-9.923-22.963-12.872"
          fill="#fff" />
        <path
          d="M1119.966 821.504c-2.695 0-5.417-.468-8.076-1.412-13.47-4.78-21.322-20.423-17.503-34.872 3.435-12.996 5.188-26.101 5.209-38.949.015-11.86-1.513-23.407-4.417-33.394-1.8-6.232-4.118-11.875-6.887-16.774-3.375-5.933-7.291-10.577-11.636-13.802-2.345-1.74-4.746-3.033-7.339-3.954a25.629 25.629 0 0 0-9.042-1.499c-3.25.034-6.678.648-10.188 1.825-7.829 2.642-15.907 8.13-23.361 15.871-5.407 5.591-10.407 12.273-14.862 19.864-6.337 10.797-11.314 22.944-14.793 36.104-1.918 7.256-6.405 13.063-12.633 16.35-5.846 3.087-12.566 3.545-18.921 1.29-13.471-4.779-21.322-20.423-17.503-34.872 4.694-17.759 11.463-34.324 20.12-49.235 8.549-14.703 18.645-27.263 30.006-37.332 7.803-6.92 16.097-12.526 24.649-16.663 12.372-5.989 25.09-8.851 37.807-8.496a74.567 74.567 0 0 1 22.772 4.281c8.253 2.929 16.077 7.313 23.252 13.032 6.77 5.396 12.938 11.962 18.333 19.516 10.032 14.072 17.275 31.092 21.529 50.587 2.669 12.29 4.044 25.346 4.089 38.808.044 18.225-2.353 36.619-7.125 54.673-1.918 7.256-6.404 13.062-12.633 16.35a23.152 23.152 0 0 1-10.846 2.701zm-59.443-146.655c3.304 0 6.401.529 9.462 1.615 2.783.988 5.355 2.372 7.862 4.232 4.57 3.392 8.669 8.243 12.184 14.421 2.848 5.037 5.225 10.825 7.068 17.205 2.957 10.164 4.512 21.906 4.497 33.953-.021 13.021-1.796 26.295-5.275 39.457-3.56 13.467 3.725 28.036 16.238 32.476 5.821 2.065 11.972 1.649 17.319-1.173 5.728-3.024 9.859-8.384 11.633-15.092 4.728-17.886 7.103-36.107 7.059-54.156-.044-13.321-1.404-26.237-4.043-38.388-4.195-19.229-11.329-36.001-21.203-49.851-5.287-7.402-11.327-13.833-17.952-19.113-7.001-5.58-14.63-9.857-22.674-12.711a72.588 72.588 0 0 0-22.161-4.167c-12.391-.343-24.798 2.449-36.878 8.297-8.388 4.057-16.528 9.561-24.194 16.359-11.202 9.928-21.162 22.322-29.604 36.84-8.566 14.756-15.267 31.156-19.916 48.742-3.56 13.467 3.725 28.036 16.238 32.476 5.821 2.064 11.971 1.649 17.318-1.173 5.729-3.024 9.86-8.384 11.633-15.092 3.525-13.335 8.573-25.651 15.002-36.605 4.536-7.728 9.632-14.537 15.148-20.24 7.673-7.969 16.029-13.633 24.162-16.378 3.71-1.245 7.345-1.894 10.807-1.93h.268z"
          fill="#111" />
      </g>
      <path
        d="M915.637 286.222c-.156.812 1.956 2.189 5.629 3.493 4.851 1.721 10.596 2.692 12.825 2.167.545-.128.83-.334.878-.597 39.386-146.708 141.722-216.762 142.754-217.448l-10.768-18.293c-4.462 2.982-110.178 75.044-151.318 230.679z"
        fill="#fff" />
      <path
        d="M932.521 293.024c-3.118 0-7.945-1.074-11.589-2.367-4.451-1.579-6.563-3.135-6.277-4.624a.805.805 0 0 1 .015-.067c41.22-155.936 147.237-228.253 151.729-231.255a1.002 1.002 0 0 1 1.418.325l10.768 18.293a1 1 0 0 1-.308 1.34c-.253.168-26.134 17.825-56.787 53.782-27.815 32.628-65.236 87.409-85.555 163.093-.069.399-.423 1.031-1.615 1.311-.493.117-1.104.17-1.799.17zm1.489-2.01a.464.464 0 0 0-.024.091l.024-.091zm-17.345-4.767c.305.365 1.6 1.341 4.936 2.525 5.09 1.806 10.448 2.561 12.261 2.136.084-.02.147-.04.192-.056 20.449-75.994 57.998-130.95 85.915-163.699 27.854-32.675 51.862-50.371 56.424-53.607l-9.757-16.575c-11.144 7.707-110.389 79.845-149.971 229.276z"
        fill="#111" />
      <circle cx="1093.12" cy="56.405" fill="#3A86FF" r="55.402" />
      <path
        d="M1093.16 112.808c-1.491 0-2.99-.059-4.501-.179-31.002-2.46-54.224-29.683-51.764-60.686 1.192-15.018 8.16-28.674 19.623-38.45 11.462-9.777 26.045-14.504 41.063-13.314 31.002 2.46 54.224 29.683 51.764 60.686-2.34 29.491-27.092 51.943-56.185 51.943zm-.128-110.809c-12.917 0-25.282 4.542-35.217 13.016-11.056 9.43-17.777 22.602-18.926 37.087-2.373 29.903 20.025 56.161 49.928 58.534 29.909 2.37 56.161-20.026 58.534-49.929s-20.025-56.161-49.928-58.534a55.785 55.785 0 0 0-4.391-.174z"
        fill="#111" />
      <path
        d="M1354.394 748.492c72.27 25.644 114.227 109.387 93.703 187.03l-3.294 12.462c-20.524 77.643-95.761 119.802-168.031 94.158l77.623-293.651z"
        fill="#fff" />
      <path
        d="M1319.768 1050.662c-14.461 0-29.064-2.514-43.332-7.577a1 1 0 0 1-.632-1.198l77.623-293.651a.997.997 0 0 1 1.301-.687c72.639 25.774 114.957 110.213 94.335 188.228l-3.294 12.462c-10.324 39.057-34.434 70.292-67.888 87.951-18.218 9.617-38.026 14.471-58.113 14.471zm-41.794-9.157c33.294 11.559 68.407 9.054 98.974-7.083 32.954-17.395 56.708-48.184 66.888-86.693l3.294-12.462c20.266-76.667-20.992-159.604-92.048-185.465z"
        fill="#111" />
      <path
        d="m1554.137 701.443-199.743 47.048c72.27 25.644 114.227 109.387 93.703 187.03l-3.294 12.463c-13.68 51.754-51.671 87.743-96.888 98.393l199.743-47.049c45.217-10.651 83.208-46.639 96.888-98.393l3.294-12.463c20.524-77.643-21.432-161.386-93.703-187.03z"
        fill="url(#b)" />
      <path
        d="M1347.914 1047.378a1 1 0 0 1-.228-1.974c46.263-10.897 83.105-48.324 96.15-97.676l3.294-12.463c20.363-77.034-21.388-160.397-93.07-185.832a1 1 0 0 1 .105-1.915l199.743-47.048a.994.994 0 0 1 .564.031c72.639 25.774 114.958 110.213 94.335 188.228l-3.294 12.463c-6.648 25.151-19.401 47.65-36.879 65.063-16.974 16.912-37.98 28.685-60.747 34.047l-199.743 47.049a.957.957 0 0 1-.23.027zm9.944-298.675c70.717 27.061 111.53 110.188 91.206 187.074l-3.294 12.463c-6.648 25.151-19.4 47.65-36.878 65.063-11.566 11.523-25.004 20.662-39.596 27.011l178.133-41.958c46.262-10.896 83.105-48.324 96.151-97.675l3.294-12.463c20.337-76.935-21.28-160.183-92.793-185.733l-196.221 46.219z"
        fill="#111" />
    </svg>
  </g>
  <g
    transform="translate(432.0 435.0) rotate(5.49996074257469 143.5 181.5) scale(0.852264291017075 0.854801488249423)">
    <svg width="336.75" height="424.66" viewBox="0 0 336.75 424.66">
      <g fill="none">
        <g>
          <path d="m295.823 312.621 39.927 65.941-59.502 42.751-39.927-65.941z" fill="#3A86FF" />
          <path
            d="M276.248 422.314a1.002 1.002 0 0 1-.855-.482l-39.927-65.941a1 1 0 0 1 .272-1.33l59.501-42.751a1.002 1.002 0 0 1 1.439.294l39.927 65.941a1 1 0 0 1-.272 1.33l-59.501 42.751a1 1 0 0 1-.583.188zm-38.593-66.668 38.888 64.225 57.873-41.581-38.888-64.225z"
            fill="#111" />
          <path d="m276.248 421.313-27.621 2.347-39.927-65.942 27.621-2.346z" fill="#3658c1" />
          <path
            d="M248.627 424.66a.999.999 0 0 1-.855-.482l-39.927-65.941a1.001 1.001 0 0 1 .771-1.515l27.621-2.346a.992.992 0 0 1 .94.479l39.927 65.941a1.001 1.001 0 0 1-.771 1.515l-27.621 2.346a1.2 1.2 0 0 1-.084.003zm-38.237-66.082 38.771 64.033 25.397-2.157-38.771-64.033z"
            fill="#111" />
          <path d="m236.321 355.372-27.621 2.346 59.501-42.751 27.622-2.346z" fill="#fff" />
          <path
            d="M208.699 358.718a1 1 0 0 1-.584-1.812l59.501-42.751c.146-.105.319-.169.499-.185l27.621-2.346a1.001 1.001 0 0 1 .668 1.809l-59.501 42.751a1.009 1.009 0 0 1-.499.185l-27.621 2.346a1.207 1.207 0 0 1-.085.003zm59.861-42.778-56.333 40.475 23.734-2.016 56.333-40.475zm-32.24 39.432h.01z"
            fill="#111" />
        </g>
        <g>
          <path
            d="M197.093 294.245c-26.984-37.66-28.177-68.878-9.425-111.231 17.326-39.904 18.841-58.12 4.853-81.221-8.776-14.494-22.654-21.52-38.087-20.209l-27.621 2.346c15.433-1.311 29.311 5.715 38.087 20.208 13.987 23.101 12.472 41.317-4.853 81.221-18.753 42.354-17.56 73.572 9.425 111.231l6.774 10.343 27.621-2.346-6.774-10.343z"
            fill="#3658c1" />
          <path
            d="M176.246 307.934a.998.998 0 0 1-.836-.452l-6.774-10.343c-26.313-36.721-28.984-68.184-9.503-112.184 17.341-39.939 18.443-57.951 4.913-80.298-8.375-13.833-21.908-21.025-37.147-19.73a1.001 1.001 0 0 1-.169-1.993h.008l27.613-2.346c16.018-1.355 30.242 6.179 39.027 20.687 13.946 23.033 12.871 41.456-4.792 82.137-19.151 43.254-16.537 74.164 9.32 110.25a.422.422 0 0 1 .023.035l6.774 10.343a1 1 0 0 1-.751 1.545l-27.621 2.346a1.2 1.2 0 0 1-.084.003zM139.68 83.841c10.606 2.5 19.751 9.333 26.077 19.78 13.946 23.033 12.871 41.456-4.792 82.137-19.151 43.254-16.538 74.164 9.32 110.25l6.471 9.879 25.356-2.154-5.844-8.923c-26.323-36.747-28.992-68.21-9.514-112.202 17.341-39.939 18.443-57.951 4.913-80.298-8.375-13.833-21.913-21.025-37.147-19.73l-14.84 1.26z"
            fill="#111" />
          <path
            d="M93.967 30.385C158.082-15.681 224.34-6.617 259.094 50.781c22.562 37.263 22.001 75.087 2.882 118.416-18.236 40.544-19.153 58.708-4.719 82.547l6.111 10.093-59.502 42.751-6.774-10.343c-26.984-37.659-28.177-68.877-9.425-111.231 17.326-39.904 18.841-58.12 4.853-81.221-13.987-23.101-40.934-27.23-66.483-8.873-25.777 18.521-32.16 48.398-16.947 76.661l1.876 3.098-60.753 43.65-1.876-3.098C11.993 150.586 25.158 79.824 93.967 30.385z"
            fill="#3A86FF" />
          <path
            d="M203.867 305.588a.999.999 0 0 1-.836-.452l-6.774-10.343c-26.313-36.721-28.984-68.184-9.503-112.184 17.341-39.939 18.443-57.952 4.913-80.298-6.25-10.323-15.183-16.93-25.833-19.107-12.329-2.521-26.254 1.218-39.211 10.528-25.066 18.01-31.602 47.596-16.65 75.375l1.851 3.054a1 1 0 0 1-.272 1.33l-60.753 43.651a1.003 1.003 0 0 1-1.439-.294l-1.876-3.098C9.29 147.92 26.882 77.354 93.384 29.573 127.154 5.31 163.15-4.495 194.737 1.962c26.853 5.49 49.403 22.192 65.212 48.301 21.942 36.239 22.877 74.159 2.942 119.338-18.137 40.323-19.164 57.868-4.778 81.625l6.111 10.093a1 1 0 0 1-.272 1.33L204.451 305.4a.998.998 0 0 1-.583.188zm-45.74-225.15c2.755 0 5.463.267 8.107.807 11.211 2.292 20.597 9.218 27.144 20.03 13.946 23.032 12.872 41.456-4.792 82.137-19.151 43.254-16.537 74.163 9.32 110.25l6.226 9.504 57.903-41.603-5.633-9.302c-14.636-24.172-13.59-42.896 4.662-83.476 19.646-44.522 18.749-81.856-2.826-117.488-15.512-25.619-37.609-42.002-63.901-47.377-31.037-6.345-66.475 3.341-99.786 27.275l-.583-.812.583.812c-65.593 47.13-82.97 116.69-45.348 181.535l1.306 2.157 59.124-42.48-1.397-2.307c-15.483-28.763-8.714-59.359 17.219-77.991 10.662-7.661 22.001-11.67 32.672-11.67z"
            fill="#111" />
          <path
            d="M138.478 3.729c-23.125 1.964-47.783 11.508-72.132 29.002C-2.463 82.17-15.628 152.932 20.718 215.578l1.876 3.098 27.621-2.346-1.876-3.098C11.993 150.586 25.158 79.824 93.967 30.385 118.317 12.89 142.975 3.347 166.1 1.383l-27.621 2.346z"
            fill="#fff" />
          <path
            d="M22.593 219.676a.999.999 0 0 1-.855-.482l-1.876-3.098C-18.331 150.266-.74 79.7 65.763 31.919 89.53 14.842 114.646 4.75 138.394 2.732L166.015.386a1 1 0 1 1 .169 1.993c-23.389 1.987-48.159 11.952-71.633 28.818-65.593 47.128-82.97 116.688-45.348 181.533l1.867 3.082a1.001 1.001 0 0 1-.771 1.515l-27.621 2.346a1.2 1.2 0 0 1-.084.003zM138.563 4.725C115.174 6.712 90.404 16.677 66.93 33.543 1.337 80.671-16.04 150.231 21.582 215.076l1.545 2.551 25.397-2.157-1.042-1.72C9.29 147.92 26.882 77.354 93.384 29.573c16.84-12.1 34.356-20.693 51.585-25.392z"
            fill="#111" />
        </g>
      </g>
    </svg>
  </g>
  <g
    transform="translate(203.0 1487.0) rotate(1.88660573320526 299.5 232.5) scale(1.193155787502739 1.1948690012436916)">
    <svg width="502.03" height="389.164" viewBox="0 0 502.03 389.164">
      <path d="m501.03 292.36-25.828 31.199-86.053-7.382 25.828-31.198z" fill="#3658c1" />
      <path
        d="m475.202 324.559-.086-.003-86.054-7.382a1 1 0 0 1-.685-1.634l25.828-31.198a.988.988 0 0 1 .856-.359l86.054 7.382a1 1 0 0 1 .685 1.634l-25.828 31.198a1 1 0 0 1-.77.362zm-84.065-9.215 83.629 7.174 24.276-29.324-83.629-7.174z"
        fill="#111" />
      <path
        d="m414.977 284.979-25.828 31.198c-22.014 24.571-51.984 44.785-88.449 57.651-109.365 38.586-235.801-3.396-282.41-93.775-29.936-58.049-19.66-121.945 20.499-170.454L64.616 78.4c-40.159 48.509-50.435 112.405-20.499 170.454 46.609 90.38 173.045 132.361 282.41 93.775 36.466-12.866 66.435-33.079 88.45-57.65"
        fill="#3658c1" />
      <path
        d="M216.486 389.112c-84.037 0-164.095-40.751-199.085-108.601-29.179-56.579-21.472-120.71 20.616-171.55l25.828-31.198a1 1 0 0 1 1.541 1.275l-.068.082c-41.5 50.189-49.095 113.463-20.312 169.276 46.313 89.805 172.456 131.655 281.188 93.291 35.044-12.365 65.486-32.205 88.037-57.375a1 1 0 0 1 1.515 1.306l-25.828 31.198c-22.8 25.45-53.527 45.48-88.887 57.956-27.584 9.731-56.295 14.34-84.545 14.34zM48.282 99.699l-8.724 10.537C-2.002 160.438-9.62 223.75 19.179 279.594c46.312 89.805 172.457 131.657 281.188 93.291 35.044-12.365 65.486-32.205 88.037-57.375l12.418-15c-20.602 18.413-45.814 33.132-73.961 43.062-109.645 38.684-236.878-3.601-283.631-94.26-25.119-48.705-22.9-103.011 5.052-149.613z"
        fill="#111" />
      <path
        d="M440.158 109.122c21.983 42.627 22.266 88.402 4.975 128.926l55.898 54.312-86.053-7.382c-22.014 24.571-51.984 44.785-88.449 57.651-109.365 38.586-235.801-3.395-282.41-93.775-46.609-90.38 4.26-194.933 113.625-233.519 109.362-38.586 235.804 3.407 282.414 93.787z"
        fill="#FFF" />
      <path
        d="M242.314 357.913c-84.037.004-164.095-40.751-199.085-108.601-20.617-39.979-22.954-84.725-6.578-125.994 19.446-49.008 63.461-88.71 120.758-108.926 109.642-38.685 236.881 3.605 283.637 94.272 21.202 41.111 23.068 86.945 5.275 129.145l55.406 53.834a1 1 0 0 1 .212 1.133.986.986 0 0 1-.995.581l-85.557-7.339c-22.74 25.244-53.341 45.14-88.527 57.555-27.585 9.732-56.296 14.339-84.546 14.34zm-.316-355.872c-28.044 0-56.533 4.573-83.923 14.237C101.322 36.302 57.743 75.585 38.51 124.056c-16.158 40.724-13.852 84.882 6.497 124.339C91.32 338.2 217.463 380.05 326.195 341.686c35.044-12.365 65.486-32.205 88.037-57.375a.987.987 0 0 1 .83-.329l83.262 7.143-53.888-52.359a1.002 1.002 0 0 1-.223-1.11c17.841-41.814 16.085-87.298-4.944-128.075C404.62 42.392 325.289 2.041 241.998 2.041z"
        fill="#111" />
      <path
        d="M317.423 125.747c11.961-4.22 26.872 2.455 33.304 14.928 6.427 12.462 1.937 25.995-10.024 30.215-11.972 4.224-26.889-2.462-33.315-14.924-6.432-12.473-1.937-25.995 10.035-30.219z"
        fill="#3A86FF" />
      <path
        d="M333.175 173.148c-10.485 0-21.388-6.471-26.675-16.723-3.416-6.624-3.978-13.944-1.541-20.084 2.158-5.44 6.467-9.538 12.132-11.536 12.403-4.374 27.888 2.54 34.525 15.413 3.415 6.623 3.976 13.944 1.538 20.089-2.158 5.438-6.462 9.532-12.117 11.528-2.526.89-5.181 1.313-7.862 1.313zm-15.418-46.458c-5.112 1.804-8.997 5.493-10.938 10.388-2.224 5.603-1.691 12.32 1.459 18.43 6.197 12.02 20.596 18.495 32.094 14.44 5.103-1.8 8.982-5.487 10.924-10.38 2.225-5.607 1.694-12.326-1.456-18.434-6.2-12.02-20.591-18.498-32.083-14.444z"
        fill="#111" />
      <path
        d="M143.572 187.086c11.961-4.22 26.872 2.455 33.304 14.928 6.427 12.462 1.937 25.995-10.024 30.215-11.972 4.224-26.889-2.462-33.316-14.924-6.432-12.474-1.936-25.995 10.036-30.219z"
        fill="#3A86FF" />
      <path
        d="M159.323 234.486c-10.485 0-21.388-6.471-26.675-16.723-3.416-6.624-3.978-13.945-1.541-20.085 2.159-5.44 6.468-9.537 12.132-11.536 12.403-4.375 27.887 2.54 34.526 15.412 3.415 6.623 3.975 13.945 1.536 20.09-2.157 5.438-6.461 9.532-12.116 11.527-2.526.892-5.18 1.315-7.862 1.315zm-8.185-47.666c-2.47 0-4.91.389-7.233 1.209-5.111 1.804-8.996 5.492-10.938 10.387-2.224 5.603-1.691 12.321 1.459 18.431 6.198 12.019 20.597 18.497 32.094 14.439 5.103-1.8 8.982-5.486 10.924-10.379 2.225-5.607 1.694-12.327-1.455-18.435-4.946-9.589-15.108-15.652-24.851-15.652zm-7.566.266h.01z"
        fill="#111" />
      <path
        d="M230.498 156.416c11.961-4.22 26.872 2.455 33.304 14.928 6.427 12.462 1.937 25.995-10.024 30.215-11.972 4.224-26.889-2.462-33.315-14.924-6.433-12.473-1.937-25.995 10.035-30.219z"
        fill="#3A86FF" />
      <path
        d="M246.249 203.817c-10.486 0-21.388-6.471-26.675-16.723-3.416-6.624-3.978-13.944-1.541-20.084 2.158-5.44 6.467-9.538 12.132-11.536 12.399-4.376 27.888 2.539 34.525 15.413 3.415 6.623 3.976 13.944 1.537 20.089-2.157 5.438-6.461 9.532-12.116 11.527-2.526.891-5.181 1.314-7.862 1.314zm-15.418-46.458c-5.112 1.804-8.997 5.493-10.938 10.388-2.224 5.603-1.691 12.321 1.459 18.43 6.197 12.019 20.596 18.496 32.094 14.439 5.103-1.8 8.982-5.486 10.924-10.379 2.225-5.607 1.694-12.326-1.456-18.434-6.198-12.018-20.591-18.498-32.083-14.444z"
        fill="#111" />
    </svg>
  </g>
</svg>
